<?xml version="1.0" encoding="utf-8"?>
<!-- Generator: Adobe Illustrator 28.0.0, SVG Export Plug-In . SVG Version: 6.00 Build 0)  -->
<svg version="1.1" id="Layer_1" xmlns="http://www.w3.org/2000/svg" xmlns:xlink="http://www.w3.org/1999/xlink" x="0px" y="0px"
	 viewBox="0 0 209.1 20.1" style="enable-background:new 0 0 209.1 20.1;" xml:space="preserve">
<style type="text/css">
	.st0{fill:#121212;}
</style>
<g>
	<path class="st0" d="M119.6,11.6c-1.8,0.3-2.7,1.5-4.2,1.4c-1.5-0.2-2.1-0.6-2-2.2c0.1-2.2,1.3-3.8,3.2-5c0.9-0.6,1.9-0.9,2.8-1.6
		c0.9-0.7,1.8-0.5,2.8,0c1.1,0.5,0.6,1.3,0.6,2c-0.1,3.7-2.1,6.6-3.9,9.5c-1.1,1.7-2.5,3-4.1,4.1c-0.4,0.3-0.8,0.3-1.3,0.4
		c-0.4,0-0.8-0.2-0.8-0.7c0-0.3,0-0.8,0.3-0.8c1.4-0.1,1.9-1.5,3.1-2C117.8,15.6,118.6,13.7,119.6,11.6z M121.5,6.2
		c0-0.7-0.1-0.9-0.7-1c-2.4-0.2-6,3.6-6.1,5.2c-0.1,0.9,0.3,1.1,1.1,1.1c1.2-0.1,2.1-0.7,2.9-1.4C120.1,9,120.9,7.6,121.5,6.2z"/>
	<path class="st0" d="M180.3,10.4c-1.3,1.1-2.6,2.2-4.5,2.4c-1.6,0.2-2-0.2-1.9-1.8c0.1-1.6,0.8-3.1,1.7-4.4c0.8-1.2,2.6-1.7,4-1.2
		c0.7,0.2,1.3,0.6,2.1,1c0-1.7,1.4-2.9,1.2-4.6c0-0.2,0.3-0.4,0.3-0.6c0.2-0.8,0.8-1.3,1.5-1.1c0.8,0.2,0.5,1.1,0.4,1.7
		c-0.5,3.1-1.6,5.9-2.9,8.7c-0.2,0.4-0.5,0.8-0.9,1.1c-0.3,0.2-0.6,0.4-0.8,0.1c-0.1-0.2,0-0.6-0.1-0.9c0.1-0.2,0.5-0.4,0.1-0.6
		C180.7,10.1,180.4,10.3,180.3,10.4L180.3,10.4z M180.2,8c-0.1-1-1.1-1.5-2-1.2c-1.3,0.5-2.2,1.6-2.8,2.8c-0.4,0.9,0.1,1.6,1.2,1.4
		c1.4-0.4,2.5-1.3,3.4-2.4C180.1,8.4,180.2,8.1,180.2,8L180.2,8z"/>
	<path class="st0" d="M149.6,9.1c1.4-0.6,2.2-1.4,2.8-2.5c0.5-1,1.3-1.8,2.1-2.5c0.6-0.5,1.3-0.7,2-0.2c0.6,0.4,0.6,1.1,0.4,1.7
		c-0.3,1.1-0.5,2.3-0.8,3.4c0.7,0.7,1.5,0.1,2.5,0.4c-0.9,0.9-1.6,1.2-2.6,1.2c-1.6,0-1.8-0.4-1.2-2c0.2-0.6,0.4-1.2,0.2-1.9
		c-0.8,0-1.2,0.6-1.6,1.2c-0.9,1.3-2.2,2.3-3.7,2.9c-1.1,0.4-1.5,0.2-1.5-0.9c0-1.5,0-3,0.9-4.3c0.2-0.3,0.4-0.7,0.7-0.9
		c0.4-0.2,0.7-0.4,1.1-0.1c0.3,0.2,0.2,0.6,0.1,0.9C150.5,6.5,149.9,7.6,149.6,9.1L149.6,9.1z M155.3,6c0-0.1-0.1-0.1-0.1-0.2
		C155.1,5.9,155,6,155,6s0.1,0.1,0.1,0.2C155.2,6.1,155.2,6.1,155.3,6z"/>
	<path class="st0" d="M44.8,7.5c1.3,0.3,2.7-0.2,3.8,0.4c-0.2,0.8-0.9,0.5-1.4,0.5c-2.2,0.3-3.6,1.6-4.2,3.8
		c-0.1,0.4-0.1,0.8-0.3,1.1c-0.7,0.9-0.7,2.2-1.5,3.1c-1.4-1.5-1.4-1.7-0.6-3.3c0.4-0.8,1-1.6,1.5-2.4c0.3-0.5,0.5-1,0.4-1.6
		c-0.5-0.5-1.7,0.2-1.8-0.7c-0.1-1.2,1-0.9,1.8-0.9c0.6,0,0.8-0.4,1-0.9c0.1-0.4,0.1-0.9,0.2-1.4c0.6-2.7,2.9-4,5.5-3
		c0.3,0.1,0.6,0.3,0.5,0.7c-0.1,0.6-0.6,0.9-1,1.3C47.9,5,47.7,4.5,47.3,4c-0.5-0.6-1.2-0.2-1.6,0.4C45.3,5.3,44.7,6.2,44.8,7.5
		L44.8,7.5z"/>
	<path class="st0" d="M166.2,11.7c1.5-1.5,1.3-3.3,2.4-4.8c-1.7-0.4-2.8,0.4-3.9,1.2c-1,0.8-2,1.6-2.5,2.8c-0.3,0.6-0.7,0.6-1.1,0.4
		c-0.4-0.2-0.5-0.8-0.3-1c0.3-0.5,0.3-1.2,0.6-1.5c1.2-1.1,1.5-2.9,2.7-4.3c0.9,1.1,1.9,1.4,3.1,0.5c0.8-0.6,1.7-0.6,2.4,0.1
		c0.6,0.6,0.7,1.3,0.4,2.2c-0.5,1.3-0.8,2.6-1.2,3.8C168.3,12.5,167.4,12,166.2,11.7L166.2,11.7z"/>
	<path class="st0" d="M90.4,14.7c0-2.7,2.1-4.9,1.6-7.7c-3.4,1.3-5,4.6-7.7,7.1c-0.1-2.6,1.3-4.4,1.7-6.4c0.1-0.4,0.7-0.6,1.2-0.5
		C88,7.3,87.6,8,87.8,8.3c0.7-0.1,0.9-0.8,1.2-1.3c0.4-0.5,0.8-1,1.4-1.2c2.4-0.9,3.5,0,3,2.5c-0.3,1.8-0.9,3.5-1.6,5.2
		C91.7,14.1,91.3,14.7,90.4,14.7L90.4,14.7z"/>
	<path class="st0" d="M135.1,10.3c-1.2,1.1-2.7,1.9-4.2,2.6c-0.7,0.3-1.3,0.4-2.1,0.5c-1.2,0.1-1.6-0.4-1.7-1.6
		c-0.1-2.2,0.3-4.3,1.2-6.3c0.5-1.1,1.4-1.9,2.8-1.9c0.9,0,1.6,0.3,1.9,1.1c0.3,0.8,0.2,1.6-0.5,2.2c-0.8,0.6-1.5,1.3-2.5,1.2
		c-0.9-0.1-1.4,0.3-1.5,1.1c-0.2,0.9-0.2,1.9,0.5,2.5c0.5,0.5,1.5,0.3,2-0.1c1.2-0.8,2.5-1.2,3.8-1.7L135.1,10.3L135.1,10.3z
		 M131.4,5.6c-0.1-0.4-0.4-0.5-0.7-0.4c-0.6,0.2-1,0.4-1.1,1c0,0.6,0.5,0.5,0.8,0.4C131.1,6.6,131.4,6.2,131.4,5.6z"/>
	<path class="st0" d="M57.9,12.3c-1.3,1.2-2.3,2.2-3.8,2.6c-1.7,0.4-2.3-0.2-2.5-1.9c-0.2-2.4,0.8-4.5,2-6.5
		c0.9-1.4,3.1-1.7,4.2-0.8c0.6,0.6,0.8,1.1,0,1.7c-0.9,0.7-1.9,1.1-3,1.4c-1.3,0.4-2.3,2.4-1.9,3.7c0.3,0.8,0.8,1,1.7,0.7
		C55.6,13.1,56.4,12.2,57.9,12.3L57.9,12.3z M54.5,7.4c0.9,0.4,1.5,0.2,2.2-0.6C55.6,6.4,55.1,7.2,54.5,7.4c0,0.1,0,0.1,0,0.1
		C54.5,7.5,54.5,7.5,54.5,7.4z"/>
	<path class="st0" d="M12.2,8.3c-0.6,2.3-2.8,4.2-4.8,4.1c-0.7,0-1.3-0.1-1.2-1.1c0.1-0.9-0.4-1.7-0.8-2.5C4.9,7.3,4.8,7.3,3.1,8
		C2.4,8.3,1.8,8.8,1.2,9.4c-0.3,0.3-0.6,0.2-0.9,0c-0.4-0.3-0.4-0.8-0.1-1.1c1.2-1,2.4-2.2,4.2-2.1c1.4,0.1,1.9,1.2,2.5,2.3
		c0.5,0.9-0.1,2.4,1.3,2.6c1.1,0.1,1.6-1.2,2.5-1.7C11.3,9.1,11.5,8.4,12.2,8.3L12.2,8.3z"/>
	<path class="st0" d="M196.1,7.9c0.6-1.5,2.3-1.8,3.2-2.9c0.2-0.3,0.8-0.2,1.1,0c0.6,0.3,1.3,0.6,1.7,1.3c0.5,0.8,0.6,2,1.6,2.3
		c1.2,0.4,2.3-0.4,3.4-0.7c0.6-0.2,1.1-0.5,2-0.3c-1.5,1.6-3.2,2.4-5.3,2.5c-1.5,0.1-2.2-0.9-2.8-2.2c-0.6-1.4-0.6-1.4-1.9-0.7
		C198.2,7.7,197.4,8.8,196.1,7.9z"/>
	<path class="st0" d="M138.7,11.4c-0.6-1.1,0-2.1,0.5-2.9c0.6-1.1,0.9-1.9,0.6-3.1c-0.2-1,0.2-1.3,1.1-0.6c0.7,0.5,0.9,0.2,1.3-0.2
		c1.7-1.4,1.7-1.4,4.3-1.8c-0.2,1.2-1.4,1.2-2,1.8c-1.6,1.7-3.1,3.3-4.2,5.4C140,10.6,139.8,11.5,138.7,11.4z"/>
	<path class="st0" d="M31.5,2.8c-0.2,1-0.7,1.8-0.9,2.7c-0.7,2.6-1.5,5.2-2.9,7.5c-0.2,0.4-0.5,0.9-1.1,0.7
		c-0.5-0.2-0.5-0.8-0.3-1.3c0.7-1.8,1.5-3.6,2.3-5.4c0.5-1.1,1.2-2.2,0.9-3.5c-0.2-0.6,0.3-1,0.8-1.4c0.3-0.2,0.6-0.2,0.8,0.1
		C31.3,2.4,31.4,2.6,31.5,2.8L31.5,2.8z"/>
	<path class="st0" d="M32.2,14.2c0,0-0.2-0.2,0-0.7c0.5-1.1,1-2.3,1.5-3.4c0.5-1,1.1-1.9,1.1-3.1c0-0.4,0.2-0.8,0.7-0.7
		c0.5,0.1,0.9,0.5,0.7,1c-0.4,1.4-0.8,2.9-1.4,4.3c-0.3,0.7-0.7,1.4-1.1,2.1C33.6,14.1,33.2,14.4,32.2,14.2L32.2,14.2z"/>
	<path class="st0" d="M77.2,11.9c0-1.5,1.1-3.3,1.8-5.2c0.1-0.2,0.4-0.4,0.7-0.6c0.2-0.1,0.5-0.1,0.7,0c0.1,0.1,0.2,0.4,0.2,0.6
		c-0.7,2-1.5,4-2.2,6c-0.1,0.3-0.2,0.9-0.8,0.7C77.1,13.3,77.2,12.9,77.2,11.9L77.2,11.9z"/>
	<path class="st0" d="M36.6,3.6c0.3,0,0.7,0.1,0.7,0.5c0,0.4-0.3,0.7-0.7,0.8C36.2,5,36,4.8,36,4.4C36,4,36.1,3.6,36.6,3.6z"/>
	<path class="st0" d="M80.8,4.2c0.1,0.3-0.2,0.4-0.4,0.4c-0.5,0.1-0.9,0-1.1-0.6c-0.1-0.3,0-0.7,0.4-0.6C80.2,3.6,80.7,3.7,80.8,4.2
		L80.8,4.2z"/>
	<path class="st0" d="M134.7,9.9c0.3-0.5,0.5-1.1,1.4-0.9c-0.1,0.7-0.5,1-1,1.3C134.9,10.2,134.8,10.1,134.7,9.9L134.7,9.9z"/>
</g>
</svg>
