<?xml version="1.0" encoding="UTF-8"?>
<svg id="Layer_1" data-name="Layer 1" xmlns="http://www.w3.org/2000/svg" viewBox="0 0 452.24 29.54">
  <defs>
    <style>
      .cls-1 {
        fill: #121212;
        stroke-width: 0px;
      }
    </style>
  </defs>
  <path class="cls-1" d="m230.73,15.22c4.47-5.09,7.03-4.41,9.35-.42,1.19-.64,1.96-1.85,3.23-2.39,1.88-.8,3.48-.11,3.97,1.84.82,3.26.23,6.44-.57,9.6-.06.25-.2.51-.36.71-.53.65-1.26.72-1.96.42-.62-.27-.46-.93-.37-1.43.24-1.42.57-2.82.8-4.25.23-1.43.3-2.86-.15-4.28-.28-.88-.79-.93-1.39-.41-1.18,1.02-2.1,2.23-2.5,3.77-.37,1.39-.71,2.79-1.12,4.18-.17.6-.41,1.19-.72,1.74-.39.71-1.07.99-1.84.71-.76-.28-.71-1.01-.58-1.62.19-.88.58-1.71.75-2.59.39-1.93.98-3.89-.28-5.75-.99-1.47-1.42-1.54-2.75-.44-1.13.94-1.88,2.17-2.54,3.46-.61,1.2-1.2,2.42-1.82,3.62-.29.57-.65,1.07-1.33,1.25-.84.22-1.66.09-1.39-.92.81-3.1.53-6.27.85-9.39.05-.45.13-.91.5-1.22.34-.28.7-.61,1.19-.5.48.12.76.49.8.97.09.97.14,1.94.23,3.33Z"/>
  <path class="cls-1" d="m259.48,23.97c-1.64,1.8-3.36,2.97-5.85,2.3-1.29-.34-2.03-1.06-2.49-2.21-1.27-3.18.03-8.98,2.78-11.01,1.18-.87,2.34-1.67,3.76-2.01,1.97-.47,3.58.18,4.69,1.82.82,1.21.81,2.32-.18,3.44-1.9,2.16-4.21,3.64-7.17,3.72-1.04.03-1.5.34-1.41,1.38.08.89.68,2.72,3.07,2.69.94-.01,1.88-.09,2.81-.14Zm-3.16-6.19c.8-.25,2.03-.55,3.07-1.29,1.02-.73.95-1.61-.08-2.41-1.57-1.21-3.87-.3-4.73,1.87-.5,1.27-.08,1.85,1.73,1.82Z"/>
  <path class="cls-1" d="m140.13,15.3c1.5-.52,2.34-1.51,3.42-2.09,1.88-1.02,2.95-.75,3.54,1.2.75,2.47.57,4.99-.13,7.46-.21.75-.72,1.32-1.56,1.2-1.05-.15-.72-1.05-.77-1.73-.13-1.79.66-3.54.16-5.35-.33-1.18-.73-1.38-1.56-.56-1.54,1.53-2.91,3.17-3.53,5.33-.25.86-.6,1.72-1.41,2.24-.95.61-1.77.19-1.8-.95-.02-.63.01-1.28.17-1.88,1.05-4.12,1.42-8.33,1.64-12.56.05-.95-.08-2.29,1.27-2.27,1.3.02,1.23,1.36,1.27,2.32.03.89-.13,1.79-.21,2.68-.15,1.58-.31,3.15-.49,4.96Z"/>
  <path class="cls-1" d="m127.15,21.3c-2.92.34-3.12.19-2.65-2.38.51-2.75,1.2-5.46,1.4-8.26.06-.82.08-1.61.02-2.42-.08-1.06-.62-1.61-1.63-1.84-1.32-.3-2.62-.67-3.92-1.05-.61-.17-1.21-.43-1.6-.95-.34-.45-.43-1-.11-1.52.29-.47.79-.46,1.21-.33.86.26,1.69.62,2.53.95,3.41,1.34,6.86,2.13,10.49.84.44-.16.91-.11,1.12.43.2.5-.02.9-.39,1.18-.98.74-2.19.91-3.33.93-1.59.03-1.87.76-1.88,2.17-.02,2.62-.24,5.23-.99,7.77-.43,1.47-.59,2.98-.26,4.49Z"/>
  <path class="cls-1" d="m198.28,21.3c-.88-1.91-1.42-3.84-.64-5.95.76-2.06,2.28-3.13,4.31-3.64.36-.09.73-.06.9.34.15.37,0,.7-.27.97-.06.07-.13.12-.2.18-3.21,2.84-3.33,3.36-1.53,7.25.56,1.2.98,2.38-.14,3.45-1.01.96-3.03,1.02-4.24.03-1.17-.96-2.39-2-1.73-4,1,.65,1.95,1.27,2.9,1.89.25.21.53.43.79.1.08-.1-.1-.41-.16-.62Z"/>
  <path class="cls-1" d="m162.03,23.67c-2.19-.06-3.09-1.12-2.82-3.13.08-.63.17-1.35.9-1.51.74-.17.76.57.97,1.03.23.52.56.92,1.11,1.09.51.16,1.04.43,1.5-.05.37-.39.14-.87,0-1.26-.29-.85-.71-1.66-.99-2.51-.86-2.63.49-5.36,3.02-6.06.64-.18,1.5-.45,1.8.55.22.75-.25,1.06-.92,1.36-1.87.85-2.25,1.69-1.67,3.54.3.94.78,1.82,1.11,2.75.71,2,.2,3.04-1.82,3.69-.77.25-1.58.37-2.21.52Z"/>
  <path class="cls-1" d="m190.3,15.43c.07,1.9-.24,3.75-.71,5.57-.18.67-.37,1.37-1.14,1.72-1.08.5-1.95.05-1.69-1.08.55-2.38.67-4.78.8-7.19.02-.42.23-.87.44-1.25.32-.58.84-.93,1.54-.85.94.11.69.89.74,1.46.05.53.01,1.07.01,1.61Z"/>
  <path class="cls-1" d="m152.87,19.88c-.13-1.53.68-3.35.15-5.25-.2-.73.43-1.12,1.14-1.15.59-.03,1.29-.2,1.52.66.23.87.44,1.74.25,2.64-.29,1.4-.61,2.79-.87,4.19-.17.94-.63,1.48-1.63,1.3-.98-.18-.46-.98-.55-1.52-.03-.17,0-.36,0-.87Z"/>
  <path class="cls-1" d="m272.57,29.54c.17-2.99,1.03-5.19,1.88-7.37.2-.52.82-.68,1.38-.47.46.17.65.58.68,1.06.04.63.02,1.25-.28,1.83-.83,1.64-1.43,3.45-3.67,4.96Z"/>
  <path class="cls-1" d="m159.03,9.29c-1.43.81-2.46.22-3.41-.36-.46-.29-.58-.9-.2-1.44.38-.53.93-.62,1.4-.24.74.59,1.4,1.29,2.21,2.05Z"/>
  <path class="cls-1" d="m191.23,9.72c-.77,0-1.51,0-1.53-1.04-.01-.58.37-.8.85-.83.86-.06,1.36.52,1.54,1.23.18.7-.54.49-.87.64Z"/>
  <g>
    <path class="cls-1" d="m350.88,15.86c-1.93-.37-3.65.56-5.46.86-.6.1-.65.64-.63,1.09.05,1.87-.55,3.69-.25,5.58.18,1.16-.02,2.29-.6,3.39-.39.75-.91.76-1.53.7-.7-.07-.89-.62-.84-1.19.19-2.02-.25-4.04.15-6.05.06-.3.12-.61.14-.92.12-1.74-.39-2.22-2.16-1.99-.46.06-.9.3-1.35.29-.54-.01-1.13-.18-1.15-.89-.02-.53.33-.89.83-.98.92-.17,1.85-.35,2.78-.37.91-.02,1.25-.4,1.23-1.27-.03-1.01.04-2.03-.01-3.04-.04-.72.34-1.15.81-1.59.46-.44,1-.44,1.53-.3.57.16.51.72.53,1.17.03.94.04,1.87.03,2.81-.02,1.04.39,1.65,1.51,1.57,2.81-.2,5.63.55,8.44-.85,2.22-1.1,4.66-.61,6.67,1.15,1.8,1.58,1.43,3.63.95,5.45-.79,2.97-2.08,5.69-5.5,6.65-2.33.65-4.68-.25-5.76-2.49-1.61-3.37-1.64-4.17-.34-8.77Zm8.99,4.02c0-.35,0-.51,0-.67-.07-2.36-2.21-3.98-4.48-3.38-.47.12-.91.38-1.09.82-.43,1.07-1.1,2.04-1.3,3.23-.3,1.83.47,3.18,1.72,4.31,1.11,1.01,2.4.81,3.43-.34,1.07-1.19,1.94-2.45,1.71-3.98Z"/>
    <path class="cls-1" d="m424.15,14.74c-2.91.05-3,2.31-3.28,4.13-.3,1.9-.67,3.85-.4,5.81.14.99-.31,1.82-.64,2.69-.27.71-.82.84-1.5.81-.78-.04-1.14-.48-1.17-1.18-.07-1.63-.38-3.34.11-4.89.53-1.66.4-3.41,1.01-5.02.26-.69-.1-.97-.79-1.03-3.84-.35-4.36.04-5.19,3.85-.23,1.05-.64,2.07-.87,3.12-.12.55-.39,1.3.67,1.34.27.01.37.25.33.5-.22,1.29-1.2,1.94-2.2,2.56-.73.45-1.41.15-1.9-.37-.79-.82-.77-1.69-.18-2.74,1.14-2.05,1.37-4.41,1.88-6.67.17-.76-.15-1.4-1.04-1.52-.63-.08-1.31-.07-1.26-.99.04-.71.65-.81,1.14-.99,2.07-.73,2.09-.72,2.13-2.8.01-.88-.01-1.68.93-2.2,1.04-.58,1.88-.31,2,.86.1.92,0,1.87-.04,2.81-.03.85.28,1.34,1.21,1.29.31-.02.62.02.94.02,2.59.04,3.3.13,3.89-2.78.25-1.24.44-2.83,2.3-3.1.79-.11.96.16,1.03.81.08.74-.24,1.36-.46,2.02-.71,2.16-.62,2.38,1.36,3.65Z"/>
    <path class="cls-1" d="m319.35,16.99c-1.3.11-2.46.1-3.58.32-2.16.43-2.55,1.01-2.61,3.17-.05,1.63-.15,3.26-.3,4.88-.1,1.07-.68,1.43-1.74,1.09-.81-.26-1.31-.62-.84-1.7.76-1.76.24-3.67.27-5.51,0-.6-.4-.99-1.05-1.01-.16,0-.31,0-.47-.01-4.28-.24-4.85.27-5.4,4.92-.06.54-.08,1.08-.11,1.63-.05.89-.29,1.5-1.4,1.36-.93-.12-1.31-.49-1.38-1.48-.13-1.82.34-3.55.56-5.31.45-3.53,1.21-7.01,2.17-10.45.39-1.39,1.89-2.35,3.6-2.33,1.91.02,3.22.99,4.08,2.61.92,1.72,1.61,3.51,1.71,5.5.08,1.65.53,2.01,2.19,1.72,1.09-.19,2.17-.15,3.26-.2.39-.02.79.03,1.03.8Zm-9.43-.72c0-1.66-.77-4.27-1.58-5.88-.23-.46-.38-.82-.97-.78-.69.04-.93.47-1.01,1.07-.15,1.08-.34,2.11-.8,3.14-.49,1.09.09,1.9,1.37,2.15.97.19,1.98.2,2.98.29Z"/>
    <path class="cls-1" d="m378.6,15.84c1.54-1.12,3.04-2.36,4.96-2.85.15-.04.28-.14.42-.19,2.09-.65,2.94-.26,3.69,1.81,1.36,3.76,1.18,7.48-.45,11.12-.24.54-.53,1.1-1.25,1.3-1.13.31-1.67-.09-1.44-1.26.41-2.05,1.29-4.01,1.1-6.16-.09-1.01-.09-2.04-.33-3.01-.5-2.03-2.16-2.49-3.56-.94-1.67,1.85-3.05,3.9-3.52,6.44-.17.91-.54,1.78-.85,2.66-.27.75-.8,1.04-1.63,1.02-.94-.03-1.37-.44-1.08-1.28.97-2.78.82-5.68.87-8.54.02-1.2.78-1.35,1.59-1.62,1.11-.36.69.76,1.08,1.09.12.1.21.23.38.41Z"/>
    <path class="cls-1" d="m333.51,20.53c-.52,2.04-.43,4.44-1.93,6.39-.24.31-.42.7-.9.54-.5-.16-.35-.62-.4-.99-.22-1.8.49-3.53.36-5.33-.08-1.02-.17-2-.63-2.93-.35-.7-.75-.89-1.45-.39-1.16.83-1.94,1.99-2.72,3.12-1.01,1.46-1.9,3-2.51,4.68-.08.22-.1.47-.21.67-.36.63-.85,1.24-1.63,1.08-.89-.19-.86-1.05-.73-1.71.46-2.32.47-4.63.17-6.96-.09-.69-.06-1.39-.34-2.06-.21-.51-.23-1.07.1-1.57.36-.55.44-1.48,1.41-1.24.76.19,1.09.77,1.08,1.58,0,.78.1,1.55.15,2.33.04.53-.05,1.16.64,1.34.7.18.85-.5,1.21-.87,1.35-1.4,2.78-2.59,4.79-3.06,1.18-.28,1.8.11,2.3.95.77,1.29,1.06,2.74,1.22,4.42Z"/>
    <path class="cls-1" d="m396.43,20.14c-.31,1.29.04,2.18.67,3.01.74.98,1.6,1.41,2.82.87,1.59-.71,3.2-1.35,4.84-2.04.11.68-.5.65-.62.99-.83,2.46-3.24,2.91-5.15,3.96-.83.45-4.01-.81-4.49-1.74-1.4-2.65-1.15-5.4-.41-8.17.56-2.09,2.16-3.13,3.96-3.97,1.25-.59,2.55-.11,3.22,1.11,1.55,2.85.26,4.78-2.05,6.26-.93.6-1.79.06-2.79-.28Zm1.69-1.58c.69,0,1.58-.98,1.44-1.85-.11-.68-.13-1.62-1.28-1.6-1.17.02-1.93.75-1.89,1.89.03.79.89,1.56,1.73,1.56Z"/>
    <path class="cls-1" d="m441.02,18.87c-.61,4.03-3.56,5.45-6.68,6.39-2.53.76-5.64-1.66-5.58-4.21.03-1.43-.14-2.37-1.66-2.7-.17-.04-.27-.34-.54-.7,1.82-.48,3.22-1.33,4.3-2.85.9-1.26,2.6-1.25,4.03-1.53,1.05-.21,1.74.45,2.35,1.18-.44,2.1-2.32,2.49-3.83,3.31-.58.31-1.49.13-1.68,1.03-.17.79,0,1.57.32,2.29.68,1.56,2.19,1.98,3.86,1.14,1.12-.56,2.11-1.25,3.02-2.12.51-.49.91-1.32,2.1-1.24Z"/>
    <path class="cls-1" d="m370.1,18.41c.04,1.57-.43,3.61-.93,5.65-.2.82-.58,1.26-1.43,1.17-.82-.09-.89-.71-.94-1.37-.19-2.51.51-4.94.65-7.43.04-.64.48-1.29,1.34-1.41,1.02-.14,1.41.15,1.43,1.21,0,.54-.06,1.09-.12,2.17Z"/>
    <path class="cls-1" d="m370.67,9.1c-.83-.09-1.44-.14-2.05-.23-.53-.07-.81-.37-.75-.94.06-.58.22-1.07.93-1.09.79-.02,1.52.19,2.15.69.36.29.77.52.62,1.1-.17.66-.68.47-.9.47Z"/>
    <path class="cls-1" d="m452.24,23.13c-1.07,1.12-2.17,1.82-3.71,1.47-.46-.1-.64-.33-.65-.77,0-.4.03-.87.5-.88,1.25-.04,2.54-.73,3.87.19Z"/>
  </g>
  <path class="cls-1" d="m16.18.3c1.25,1.01.87,3.11,1,4.66.42,4.76-.98,9.5-.18,14.23.34,1.56.06,4.91-2.09,4.54-1.13-.41-1.05-1.85-.85-2.83.42-2.46.49-5.03.38-7.55-.06-.65-.28-1.11-.71-1.14-.74-.01-1.5.61-2.16.95-1.77,1.04-3.7,1.89-5.6,2.37-.89.25-2.06.14-2.77.79-.72.73-.21,2.23-.36,3.42-.08.77-.26,1.57-.61,2.25-.58,1.25-2.13,1.41-2.22-.12.18-3.85.53-7.75.55-11.62.03-3.12,0-6.27,1.02-9.18.28-.81,1.32-1.63,1.76-.56.39,1.7-.02,3.74-.11,5.5-.15,1.61-.36,3.21-.43,4.83-.1,1.38.29,2.36,1.78,2.28,2.68-.12,9.18-1.58,9.92-4.45.72-2.33-1.3-7.38,1.59-8.4l.11.03Z"/>
  <path class="cls-1" d="m23.34,15.11c.13-3.97,2.09-7.41,5.51-8.93,2.05-.83,4.93.35,5.64,2.47.73,3.23-3.66,5.13-6.31,5.64-2.98.46-1.09,3.19.39,4.05,1.26.65,3.06-.04,4.33-.58.8-.39,1.8-.85,2.18-.5.4.42-.11,1.07-.51,1.43-1.68,1.45-4.62,2.81-6.84,2.61-2.3-.55-4.53-3.67-4.4-6.01v-.19Zm5.45-3.2c1.04.05,2.55-.72,3.37-1.41.18-.25.16-.53.02-.82-.67-1.44-2.82-1.9-3.93-.92-.68.62-2.1,1.89-1.43,2.87.49.36,1.22.19,1.8.27h.16Z"/>
  <path class="cls-1" d="m71.65,12.79c.1,3.27-1.65,6.63-4.63,8.05-1.04.34-1.84-.7-2.85-.86-3.39-.12-5.92-2.82-5.26-6.23.72-3.67,4.2-6.47,7.71-7.52,1.97-.39,3.95,1.57,4.62,3.57.29.96.33,1.95.39,2.81v.18Zm-2.43.83c-.25-7.35-7.85-4.62-7.2,1.35.11.74.38,1.51,1.06,1.9,1.03.44,2.25.54,3.24,1.09.5.36,1.13.97,1.65.28.76-1.28,1.24-2.98,1.25-4.45v-.17Z"/>
  <path class="cls-1" d="m44.15,1.46c1.37.96.99,3.29,1.17,4.79.32,3.52.32,7.11.08,10.72-.06.94-.26,2.25-.75,3.05-.65,1.14-1.67,1.05-2.04-.25-.31-1.05-.24-2.22-.21-3.31.13-3.96-.14-7.88-.18-11.86-.06-1.2.42-3.08,1.79-3.16l.14.03Z"/>
  <path class="cls-1" d="m54.33,10.1c-.05,1.65-.46,4.64-.15,6.37.48,1.45-.56,2.78-2.1,2.48-2.38-.4-.55-10.82-.83-12.94-.17-1.42-.49-3.04.96-3.91,1.61-.72,1.88,1.33,1.86,2.62.08,1.68.21,3.62.26,5.21v.17Z"/>
  <path class="cls-1" d="m86.21,6.7c.2-2.01-.45-3.71.44-5.5,1.81-2.73,2.69-.18,2.56,1.8.27,3.04-.57,6.04-.37,9.1.03.48.02,1.06-.4,1.36-2.9,1.02-2.34-5.05-2.24-6.59v-.17Z"/>
  <path class="cls-1" d="m90.62,19.72c.35.03,1.08-.06,1.3.35.45,1.24-.88,3.24-2.23,2.94-2.77-1.04-1.68-3.22.81-3.29h.12Z"/>
</svg>