<?xml version="1.0" encoding="UTF-8"?>
<svg id="Layer_1" data-name="Layer 1" xmlns="http://www.w3.org/2000/svg" viewBox="0 0 233.68 22.88">
  <defs>
    <style>
      .cls-1 {
        fill: #121212;
        stroke-width: 0px;
      }
    </style>
  </defs>
  <path class="cls-1" d="m208.03,21.43c-2.07.59-3.82.34-5.53.31-2.96-.06-5.91-.2-8.87-.35-3.21-.17-6.41-.03-9.56.53-3.25.58-6.55.63-9.79.65-12.31.1-24.63.55-36.94.14-6.55-.22-13.09-.7-19.65-.69-5.91,0-11.82.1-17.73.12-8.38.02-16.76.9-25.14-.21-2.63-.35-5.27-.02-7.91.05-9.27.24-18.54.52-27.81.75-3.85.1-7.64-.66-11.45-1.09-2.24-.25-4.49-.38-6.7-.13-3.78.44-7.49-.12-11.23-.38-.22-.02-.54-.04-.63-.19-.45-.66-2.08.19-1.77-1.04.29-1.15,1.38-.17,2-.03,3.06.66,6.16,1.03,9.27.8,4.74-.35,9.43-.14,14.11.56,3.91.58,7.82.56,11.73.32,6.36-.39,12.73-.04,19.08-.45,2.07-.13,4.15-.21,6.22-.32,2.96-.15,5.91,0,8.86.4,2.47.34,4.95.23,7.43.17,11.19-.27,22.37-.79,33.56-.53,9.19.22,18.38.59,27.57.82,6.71.17,13.43-.04,20.14-.24,1.68-.05,3.36-.03,5.04-.07,3.91-.08,7.83,0,11.71-.7,2.53-.45,5.09-.51,7.65-.48,4.48.04,8.96.13,13.44.19.95.01,1.87.07,2.92,1.08Z"/>
  <path class="cls-1" d="m215.86,16.38c.84.74.55,1.99,1.98,2.02,1.44.03,2.26-.49,2.79-1.62.66-1.41,1.27-2.83,2.75-4.11-1.34-.11-2.15.66-3.13.59-.95-.07-1.36-.38-1.57-1.35-.84-3.85,3.41-6.59,5.95-6.12.23.04.57.09.65.24.51.96,1.02,1.93,1.42,2.93.22.54-.08,1.1-.33,1.59-1.3,2.61-2.55,5.24-3.92,7.8-1.12,2.09-4.25,2.82-6.25,1.58-1-.63-1.08-1.24-.35-3.55Zm4.72-4.94c1.19.23,3.84-2.22,3.73-3.48-.04-.46-.39-.65-.84-.62-1.17.08-3.23,2.17-3.31,3.37-.02.32.05.62.42.73Z"/>
  <path class="cls-1" d="m88.26,9.74c-1.76,1.34-3.57,2.62-5.25,4.05-1.5,1.27-3.22,1.81-5.09,2.04-.66.08-1.34.05-1.54-.73-.58-2.21-.42-4.42.48-6.5.64-1.48,2.02-1.91,3.54-1.85,1.19.05,1.72.65,1.73,1.82,0,1.28-1.33,2.85-2.6,3.03-.34.05-.64-.07-.83-.35-.22-.34-.05-.6.24-.79.2-.13.42-.22.63-.34.55-.34,1.13-.67.95-1.47-.02-.11-.23-.25-.36-.25-.73-.02-1.2.46-1.5,1.02-.6,1.12-1.14,2.27-1.05,3.61.06.83.45,1.07,1.24,1.01.85-.06,1.44-.58,2.14-.94,1.91-1.02,3.87-1.89,5.02-3.97.45-.82,1.2-1.67,2.35-1.87.98-.17,1.58.05,1.62,1.12.06,1.86-.34,3.61-1.29,5.23-.49.84-1.18,1.26-2.2.98-.48-.13-.63-.42-.65-.85-.01-.46-.14-1.13.5-1.14,2.1-.05,1.73-1.63,1.9-2.89.17.06.26,0,.25-.14,0,0-.11-.02-.13,0-.04.05-.06.12-.08.18Z"/>
  <path class="cls-1" d="m119.32,10.31c-1.43,1.75-2.83,3.37-4.82,4.23-.89.38-1.83,1.37-2.88.11-.67-.81-1.12-2.43-.55-3.44,1.63-2.92,3.84-5.29,6.99-6.6,1.53-.64,2.28-.06,2.97,1.59.59,1.42.34,2.82.32,4.23-.02,1.87-.03,1.86,2.07,2.04-.98.99-1.95,2-3.19,1.49-1.59-.65-.29-2.31-.91-3.65Zm.05-3.84c-3.54.34-5.39,2.76-7.04,5.4-.23.37-.37.95.02,1.35.47.49,1.05.23,1.54.02,3.01-1.26,4.32-3.94,5.48-6.76Z"/>
  <path class="cls-1" d="m142.61,12.81c-.54-.02-.89.34-1.19.69-1.15,1.37-2.78,1.24-4.3,1.43-.73.09-1.21-.3-1.22-1.11,0-.08.01-.16,0-.24-.2-1.51-.78-3.05.6-4.38,1.85-1.79,4.08-2.44,6.5-1.87,1.06.25,1.31.24,1.5-.82.17-.96.73-1.85.88-2.8.11-.69.58-.92.98-1.24.65-.53,1.04-.12,1.15.54.11.64-.13,1.24-.35,1.84-1.09,2.94-2.14,5.89-3.17,8.85-.13.37-.07.83-.62.8-.56-.03-.49-.5-.55-.88-.04-.27.18-.62-.2-.82Zm-1.07-4.32c-1.66.07-2.98.5-3.94,1.72-.6.77-.76,1.64-.18,2.41.58.76,1.43.51,2.17.18,1.03-.45,1.85-1.21,2.68-1.94.46-.4,1-.91.69-1.62-.29-.68-1-.68-1.44-.74Z"/>
  <path class="cls-1" d="m46.53,9.26c-1.54.09-2.82,1.04-4.21.18-.22-.7.44-.9.89-1.11.49-.24,1.07-.3,1.61-.43,2.38-.56,2.33-.56,2.62-2.83.08-.64-.55-1.91.79-1.81,1.17.08.68,1.2.7,1.94.02.62-.32,1.23-.05,2.01,1.08.19,2.13-.36,3.22-.37,2.96-.03,3.93,1.14,3.08,3.94-.27.9-.66,1.76-.97,2.65-.3.87-1.06.78-1.58.55-.67-.29-.43-.95-.07-1.41.67-.85.73-1.97,1.4-2.85.44-.58.17-1.23-.73-1.33-1.45-.16-2.87.13-4.29.36-.64.11-.86.55-.97,1.18-.29,1.63-.75,3.21-1.36,4.75-.21.54-.43,1.1-1.07,1.11-.6,0-.97-.52-1.28-.97-.39-.57-.06-1.02.35-1.47,1.02-1.1,1.96-2.25,1.92-4.11Z"/>
  <path class="cls-1" d="m179.36,13.68c-1.29.37-2.09,1.48-3.39,1.7-.89.16-1.77.48-2.48-.17-.67-.61-.47-1.35-.2-2.26.93-3.06,3.62-5.44,6.68-5.52,1.21-.03,2.08,1.02,3.27,1.13.25.02.39.42.19.78-.3.55-.47,1.2-.86,1.68-.9,1.09-1.13,2.39-1.42,3.7-.1.47-.17,1.27-.9,1.23-.71-.05-.68-.75-.74-1.3-.03-.31-.09-.61-.15-.97Zm-4.56.01c2.32-.46,3.9-1.62,5.44-2.78.52-.39.49-1.17.05-1.73-.43-.54-1.04-.38-1.5-.11-1.71,1.01-3.29,2.16-3.98,4.62Z"/>
  <path class="cls-1" d="m68.81,14.42c-.94-2.36.72-3.97,1.19-6.01-1.59-.11-2.9.47-4.25.72-.77.14-1.04.94-1.33,1.59-.42.93-.75,1.9-1.14,2.84-.18.43-.39.96-.96.87-.63-.1-.61-.74-.51-1.15.18-.8-.15-1.73.7-2.4.32-.25.35-.86.52-1.33-.63-.4-1.26-.14-1.85-.18-.69-.05-1.34-.16-1.31-1.02.03-.9.67-.94,1.37-.78.23.05.48.06.7.14,1.43.52,1.89-.38,2.22-1.49.06-.22.07-.46.13-.68.22-.8.69-1.69,1.52-1.47,1.19.31.34,1.29.24,1.98-.07.46-.37.88-.15,1.42.66.42,1.34.07,2.01-.08.61-.15,1.2-.4,1.82-.53,1.79-.36,2-.18,1.71,1.6-.27,1.63-.64,3.23-1.4,4.72-.27.52-.71.81-1.23,1.23Z"/>
  <path class="cls-1" d="m13.88,8.28c.07.05.19.11.19.13-.69,2.22-2.4,3.55-4.28,4.67-.81.49-1.05-.18-1.2-.88-.68-3.24.52-5.63,3.83-6.55,1.83-.51,2.65-1.33,2.7-3.12,0-.23.09-.47.14-.7.06-.27.28-.38.51-.39.24,0,.46.11.52.38.05.23.08.47.09.71.04,4.08-.64,8.1-1.24,12.12-.04.28-.33.52-.59.91-1.07-1.84-.61-3.61-.19-5.35.2-.8.24-1.42-.51-1.9-.44-.48.83-1.58-.49-1.64-1.87-.09-3.91,2.72-3.6,4.78.44.04.69-.3,1.02-.5,1.19-.71,1.84-2.03,3.09-2.66Z"/>
  <path class="cls-1" d="m214.25,9.99c.16,1.1-.58,2.12-.89,3.25-.04.15-.37.29-.58.31-.34.03-.58-.17-.64-.54-.15-.97.21-1.9.25-2.85.02-.46.13-1.01-.32-1.32-.51-.36-.87.13-1.25.35-1.45.87-2.55,2.13-3.61,3.41-.54.65-1.15,1.75-2.04,1.15-.74-.5-.2-1.48.18-2.33.73-1.64,2.35-2.75,2.56-4.73.07-.59,1.19-.71,1.64.14.3.56.5.52,1.07.29,2.69-1.1,3.59-.4,3.64,2.85Z"/>
  <path class="cls-1" d="m128.58,6.2c1.19.26.97,1.14,1.15,1.71.88-.05,1.1-.76,1.54-1.18.56-.52,1.24-.49,1.77-.27.61.25.4.99.27,1.5-.41,1.59-.92,3.16-1.33,4.75-.21.84-.58,1.45-1.64,1.68-.75-1.66.83-3.09.54-4.86-1.25,1.02-1.76,2.4-2.71,3.43-.2.22-.28.58-.5.76-.42.36-.85.65-1.41.1-.48-.46-.63-.78-.18-1.38,1.37-1.82,2.09-3.94,2.51-6.25Z"/>
  <path class="cls-1" d="m38.25,8.35c-2.45.88-3.45,3.01-4.74,4.85-.22.32-.33.71-.51,1.06-.12.24-.34.27-.59.24-.3-.03-.4-.26-.42-.48-.02-.31,0-.64.07-.94.49-2.18.95-4.35.81-6.6-.02-.34.04-.64.44-.64.34,0,.59.18.67.54.25,1.08.12,2.18.09,3.53.71-.48,1.07-.95,1.43-1.46.55-.79,1.39-1.29,2.28-1.53.78-.22,1.57-.09,1.69,1.06.27,2.43-.15,4.72-1.11,6.95-.2.46-.44.6-.88.52-.4-.07-.41-.39-.48-.7-.28-1.27.36-2.4.68-3.53.26-.91.59-1.76.57-2.84Z"/>
  <path class="cls-1" d="m30.49,11.84c-2.02,1.02-3.58,2.02-5.28,2.61-1.49.51-2.33-.23-2.7-1.85-.34-1.48-.19-3.01-.39-4.52-.19-1.48,2.99-3.12,4.32-2.37.98.55,1.2,1.61.52,2.63-.55.82-1.35,1.37-2.22,1.75-.91.4-1.55.88-1.11,1.97.33.81,1.3,1.08,2.41.53,1.26-.62,2.48-1.16,4.45-.74Zm-4.58-4.9q-1.44.83-1.72,2.08c.62-.73,1.53-.83,1.72-2.08Z"/>
  <path class="cls-1" d="m171.8,7.93c-1.27-.62-2.25-1.76-3.47-.82-1.72,1.33-1.69,3.28-1.62,5.22.08,2.01,2.06.97,2.87,1.81-1.1,1.14-2.54,1.61-3.43,1.13-.87-.47-1.62-2.57-1.22-3.66.4-1.09.06-2.3.66-3.36.88-1.55,1.79-2.98,3.86-3.01,1.73-.02,2.09.31,2.33,2.69Z"/>
  <path class="cls-1" d="m198.79,2.95c-.22,2.77-1.4,4.91-2.5,7.08-.6,1.18-.97,2.56-2.17,3.31-.35.22-.8.9-1.38.25-.43-.48-.42-.93-.04-1.47,1.72-2.39,2.76-5.15,4.08-7.75.31-.61.29-1.21.41-1.81.1-.5.23-.95.82-.98.88-.04.61.76.81,1.2.05.11-.07.3-.04.18Z"/>
  <path class="cls-1" d="m187,11.39c-.23-1.29,1.26-2.45,1.75-4.01.59-1.88,1.74-3.58,2.65-5.36.29-.57.56-1.26,1.37-.88.64.3.39.86.29,1.43-.26,1.51-1.1,2.77-1.66,4.14-.8,1.97-1.86,3.83-2.82,5.73-.22.44-.54.85-1.1.66-.57-.19-.46-.74-.46-1.72Z"/>
  <path class="cls-1" d="m226.16,14.11c.84.03,1.39.59,2.2.14.64-.36,1.02-.6.99-1.36-.03-.79.02-1.59.11-2.38.21-1.89,1.49-2.95,3.35-2.82.4.03.82.07.87.6.04.43-.12.88-.57.9-2.64.14-2.07,2.15-2.15,3.71-.1,1.96-.88,3.09-2.56,3.47-2,.45-2.39.07-2.22-2.26Z"/>
  <path class="cls-1" d="m199.48,11.81c.31-2.05,1.31-4,2.11-6.01.26-.65.9-.6,1.4-.44.57.18.52.75.34,1.19-.79,1.96-1.6,3.91-2.45,5.84-.15.34-.5.66-.96.53-.51-.14-.38-.6-.45-1.11Z"/>
  <path class="cls-1" d="m0,12.07c-.08-1.96.7-3.75.49-5.65-.04-.41.38-.71.73-.81.29-.08.72.21.67.51-.35,2.08-.25,4.3-1.89,5.95Z"/>
  <path class="cls-1" d="m.12,2.31c.32-.54.57-1.02.88-1.47.78-1.14,1.46-1.12,2.21.06.19.3.69.54.38.99-.27.38-.62.77-1.16.35-.78-.62-1.44.63-2.31.06Z"/>
  <path class="cls-1" d="m57.37,2.29c-.46,1.52-1.47,1.93-2.9,1.59.35-1.82,1.86-1.24,2.9-1.59Z"/>
  <path class="cls-1" d="m74.22,2.77c-.52.85-1.31.83-2.1.77-.3-.03-.63-.09-.64-.51,0-.37.25-.53.52-.68.88-.51,1.61-.35,2.21.43Z"/>
  <path class="cls-1" d="m204.68,4.27c-.18.32-.51.31-.8.3-.26,0-.43-.18-.35-.47.1-.38.36-.49.71-.32.2.1.47.16.45.48Z"/>
</svg>