<?xml version="1.0" encoding="UTF-8"?>
<svg id="Layer_1" data-name="Layer 1" xmlns="http://www.w3.org/2000/svg" viewBox="0 0 458.92 138.67">
  <defs>
    <style>
      .cls-1 {
        fill: #121212;
        stroke-width: 0px;
      }
    </style>
  </defs>
  <path class="cls-1" d="m286.29,59.81c.2.57,0,.82-.23,1.04-2.51,2.34-4.04,5.22-4.75,8.56-.08.38-.31.73-.38,1.11-.16.85-.62,1.26-1.48,1.2-.58-.04-.58-.06-.71-1.68-.71-.13-.89.51-1.29.86-2.02,1.82-4.46,2.54-7.11,2.35-1.58-.11-2.61-1.34-2.85-2.91-.16-1.03-.21-2.05-.09-3.1.17-1.51.04-1.59-1.52-1.6-.08,0-.16,0-.24,0-2.98.05-3.09.15-3.36,3.18-.04.48-.09.96-.08,1.44.01,1.26-.57,1.78-1.89,1.43-.37-1.41-.14-2.92-.04-4.42.08-1.17-.63-1.25-1.47-1.34-.91-.1-1.56.01-1.57,1.17,0,.95-.22,1.91-.24,2.86-.03,1.19-.46,1.96-1.75,2.15-.84-1-.26-2.13-.31-3.19-.04-.88.02-1.76.09-2.63.05-.71-.07-1.2-.85-1.47-1.09-.38-1.16-1.08-.18-1.65,1.09-.64,1.47-1.34.78-2.51-.56-.95.35-1.28.91-1.56.81-.41.94.55,1.07.9.29.81.3,1.72.46,2.58.24,1.27,1.69,2.05,2.89,1.59.45-.17.54-.53.58-.94.08-.96.23-1.91.21-2.87,0-.59.19-1.07.41-1.57.2-.46.6-.46,1-.38.41.08.41.45.41.75,0,1.36.03,2.71-.05,4.07-.05.93.28,1.33,1.21,1.31.72-.02,1.44.01,2.16.05,1.19.06,2.02-.12,2.55-1.5.48-1.24,1.69-2.08,3.23-1.91,1.57.18,2.33,1.57,1.57,2.95-.8,1.44-1.57,3.04-3.62,2.43-.37.49-.25.9-.24,1.29.08,3.87,2.38,3.84,5.06,2.98.84-.27,1.68-.88,2.28-1.54,1.65-1.83,3.63-3.36,4.88-5.57,1-1.78,2.55-3.07,4.6-3.89Zm-16.43,5.8c1.09-.46,1.87-.95,1.83-2.09,0-.22-.17-.49-.46-.38-1.02.37-1.37,1.16-1.37,2.47Z"/>
  <path class="cls-1" d="m405.48,12.07c-.56,1.05-.91,1.75-1.29,2.44-.46.85-.94,1.68-2.13,1.56-.33-.03-.57.2-.85.35-1.91,1.03-1.92,1.02-3.67-.43-.8.79-1.7,1.5-2.71,2.06-1.19.66-2.44.75-3.59.07-1.03-.6-.91-1.71-.96-2.78-.1-1.95.8-3.44,1.83-4.96.89-1.32,2.2-1.72,3.63-1.91.37-.05.88-.03,1.14.18.81.64,1.5,1.43,2.3,2.09.95.79.5,1.73.4,2.66-.08.8-.17,1.75.67,2.1.72.3,1.47-.02,2.16-.61.81-.7,1.38-1.35,1.44-2.51.1-1.82.19-1.9,2.07-2.04.84-.06,1.24-.42,1.7-1.02.89-1.16,2.17-1.24,3.2-.35,1.49,1.29,2.5,6.03.92,8.24-.58.8-1.36.8-2.05,1.01-.83.25-1.23.5-1.11,1.42.1.87-.08,1.69-.46,2.53-.47,1.04-1.17,1.25-2.1.97-.64-.19-1.23-1.61-.97-2.29.82-2.13.45-4.42.9-6.6.12-.56-.25-1.22-.48-2.17Zm-8.29.54c-.04-.99-.45-1.65-.98-2.26-.4-.46-.85-.43-1.24-.07-1.43,1.33-2.39,2.99-2.6,4.92-.17,1.52.95,2.1,2.33,1.34,1.61-.88,2.22-2.38,2.49-3.93Zm11.76-2.33c-.53,1.93-.67,3.77-.45,5.65.05.44.24.75.72.74.42-.01.72-.24.91-.63.74-1.47.25-4.13-1.19-5.75Z"/>
  <path class="cls-1" d="m155.63,64.16c-1.24.87-2.34,1.85-3.4,2.89-1.05,1.02-1.79,2.13-1.96,3.68-.21,1.89-1.02,2.73-1.95,2.44-.64-.2-.83-1.66-.35-3.05.17-.51.67-.93.26-1.59-1.16-.2-1.6.79-2.23,1.43-1.29,1.3-2.42,2.74-4.12,3.6-.88.45-1.78.66-2.7.7-2.28.09-3.14-.74-3.27-3.03-.03-.55,0-1.1,0-1.86-2.26.52-4.37.69-6.49.54-.84-.06-1.11.28-1.15,1.09-.07,1.35-.25,2.7-.37,4.05-.07.73-.36,1.25-1.18,1.14-.81-.11-.65-.81-.64-1.32.02-1.28.02-2.57.19-3.83.15-1.15-.15-1.79-1.33-2.05-.49-.11-1.12-.21-1.35-.84.24-.42.57-.74,1.1-.76,1.37-.07,2.03-.42.84-1.78-.35-.4-.04-.86.55-1.04.54-.17,1.07-.47,1.48.18.12.19.14.45.2.67.7,2.62.7,2.64,3.41,2.6,1.04-.02,2.07-.2,3.11-.18,1.38.02,2.09-.55,2.11-1.96.01-1.16.52-2.04,1.71-2.18.69-.08,1.33.27,1.68,1.04.66,1.45.6,2.38-.33,3.27-.12.11-.25.2-.37.3-1.32,1.03-1.52,1.89-.7,3.07.63.91,2.1,1.16,3.19.41,1.02-.7,1.96-1.52,2.89-2.34,1.45-1.29,2.65-2.97,5.04-2.4.75.18,1.21-.59,1.72-1.09,1.2-1.18,2.54-2.11,4.43-1.77Z"/>
  <path class="cls-1" d="m321.63,34.76c-.22.79-.8,1.08-1.31,1.41-1.57,1-2.63,2.29-2.51,4.26.05.75-.19,1.42-.45,2.08-.27.7-.89.53-1.42.48-.51-.04-.56-.48-.61-.88-.11-1,.47-1.99.12-3.22-1.77.86-2.98,2.21-4.32,3.37-1.61,1.4-3.4,2.2-5.54,2.47-1.13.14-1.93-.07-2.45-.95-.96-1.64-2.28-1.75-3.76-.99-1.84.95-3.94.27-5.8,1.07-.67.29-.98-.34-.98-.97,0-1.2.1-2.4.04-3.59-.09-1.72.04-3.44-.66-5.14-.62-1.49-.19-2.54.59-2.67.79-.14,1.5.73,1.76,2.19.27,1.47.2,2.96,0,4.96,1.32-1.14,2.17-2.05,3.32-2.45.32-.11.81-.34,1,.22.11.31,0,.64-.32.81-.93.47-1.69,1.17-2.43,1.89-.63.62-.85,1.36-.5,2.18.41.95,1.27.88,2.06.7,1.3-.29,2.65-.41,3.74-1.36.69-.59,1.08-1.03.96-2.11-.22-2.03,2.67-4.3,4.63-3.87,1.03.23,1.16.98,1.03,1.84-.19,1.3-1.2,2.02-2.04,2.87-.65.66-1.69,1.11-1.36,2.3.25.9,1.59,1.31,3.08,1.34,1.9.04,3.02-1.41,4.21-2.35,1.27-.99,2.43-2.11,3.84-2.99.97-.6,2.03-1.12,2.83-2.1.7-.86,1.96-1.06,3.21-.81Zm-17.14,4.07c1.04-.67,1.56-1.36,1.14-2.73-.9.81-1.23,1.59-1.14,2.73Z"/>
  <path class="cls-1" d="m240.01,98.23c-1.86,2.4-3.81,3.61-6.13,4.39-1.29.43-2.59.5-3.76.21-1.58-.38-2.17-1.95-2.53-3.4-.49-1.95-.41-1.97-2.54-2.14-.95-.08-1.9-.27-2.94-.04.15,1.78.23,3.54-.08,5.32-.22,1.22-.83,1.57-2.14,1.52,0-1.82-.1-3.64.03-5.45.09-1.24-.1-1.99-1.51-2.01-.25,0-.49-.35-.74-.54.26-.46.64-.8,1.1-.88,1.13-.2,1.68-.74,1.52-1.95-.1-.72.18-1.28,1.03-1.26.91.02,1.02.72.92,1.36-.25,1.63.61,2.06,2.01,2.09.55.01,1.11.13,1.64.27,1.12.28,2.04.34,2.61-1.01.35-.84,1.35-1.06,2.19-1.27,1.24-.3,2.13.17,2.5,1.22.38,1.06-.18,2.22-1.3,2.74-.75.35-1.57.25-2.37.37-.3.3,0,.56.09.8,1.06,2.98,2.66,3.52,5.48,2.05.91-.47,1.75-1.05,2.48-1.68,1.05-.91,1.97-1.64,3.5-1.6,1.1.03,1.79-1.16,2.7-1.75,1.91-1.23,1.85-1.32,4.37-1.38-.2.7-.87.84-1.32,1.15-2.07,1.45-3.72,3.19-4.4,5.7-.08.3-.28.57-.41.86-.32.7-.95.46-1.46.45-.58,0-.42-.56-.52-.9-.25-.86.09-1.72-.01-3.25Zm-8.26-2.86c-.09-.27-.25-.49-.5-.41-.52.16-1.06.41-1.19.99-.08.37.26.53.61.43.54-.15,1.04-.35,1.08-1.01Z"/>
  <path class="cls-1" d="m175.63,131.23c-1.54.72-3.24,1.32-5.1,1.2-.74-.05-.97.38-.95,1.05.03.96-.06,1.92.22,2.86.16.54.3,1.1-.07,1.61-.27.37-.58.86-1.11.69-.36-.12-.5-.54-.51-.99-.02-1.36-.16-2.71-.13-4.07.02-1.04-.16-1.86-1.2-2.3-.53-.23-.92-.61-1-1.23-.14-1.12.67-1.49,2.25-.98.05-1.06.05-2.09.15-3.12.19-2.01,2.34-3.64,4.22-2.35.81.55.84.56.96,3.01-.93,0-1.26-.87-1.87-1.28-.86-.58-1.31-.51-1.49.42-.24,1.25-.41,2.52-.38,3.81.02.8.39,1.22,1.14,1.21,1.5-.02,3,.24,4.45-.5,1.54-.78,3.39-.42,4.97-1.33.76-.44,1.85.09,2.22.89.63,1.35,1.63,1.57,2.9,1.45.4-.04.81-.05,1.2.03,1.31.26,2.2-.14,2.9-1.35.85-1.48,2.62-1.9,3.89-2.91.31-.25,1.02-.32,1.72.25-1.43.72-2.48,1.77-3.47,2.88-1.1,1.23-2.31,2.45-1.51,4.41.27.67-.2,1.26-.93,1.39-.84.15-1.17-.2-1.38-1.12-.56-2.43-1.68-3.07-3.93-2.64-.5.1-.9.28-1.24.64-.22.23-.43.47-.68.68-2.54,2.14-4.4,1.66-5.67-1.44-.11-.28-.07-.64-.57-.85Zm5.42-.24c-1.07-.08-1.88-.43-2.85.5,1.13.07,1.92.36,2.85-.5Z"/>
  <path class="cls-1" d="m129.05,100.45c-1.23-.71-2.79.19-3.97-1.01.49-.94,1.39-1.08,2.3-1.16.86-.07,1.86.08,1.16-1.39-.1-.22.14-1.11.93-1.11.72,0,.67.5.73.97.2,1.6,1.13,2.32,2.73,2.29.63-.01,1.27.1,1.91.18.85.11,1.7,0,1.96-.91.36-1.23,1.51-1.04,2.29-1.43.74-.38,1.44.38,1.17,1.19-.2.58-.48,1.15-1.04,1.52-.98.64-1.13,1.52-.51,2.47.63.97,1.62.89,2.57.63.36-.1.74-.34.99-.62.93-1.07,1.98-1.58,3.47-1.62,1.34-.04,2.09-1.49,3.19-2.2,1.67-1.09,2.6-1.49,5.27-1.61-1.11.99-2.22,1.65-3.22,2.38-1.95,1.41-3.48,2.93-3.51,5.54-.01.95-.64,1.24-1.45.74-.58-.36-1.26-.68-1.46-1.48-.26-1.1-.33-1.14-1.09-.59-1.33.97-2.82,1.25-4.41,1.15-1.47-.1-2.51-.95-2.58-2.46-.05-1.05-.51-1.2-1.31-1.2-.48,0-.98-.09-1.43,0-.92.2-2.01-.72-2.7.13-.6.74-.26,1.85-.34,2.8-.07.96-.14,1.9-.56,2.78-.22.46-.65.39-1.02.41-.48.02-.43-.48-.44-.69-.07-.95-.1-1.91-.03-2.86.07-.94.27-1.87.41-2.82Z"/>
  <path class="cls-1" d="m371.19,99.83c2.01,2.61,5.71,2.21,8.25-.2.62-.59,1.11-1.32,1.7-1.94.63-.66.91-2,2.33-1.22.33.18.45-.37.68-.51,2.41-1.42,4.69-3.16,7.81-3.43-.5.91-1.08,1.46-1.95,1.88-1.04.51-2,1.24-2.93,1.96-1.73,1.34-3.11,2.98-3.42,5.23-.12.88-.52,1.09-1.26.93-.67-.14-1.1-.43-1.11-1.27-.01-.8.52-1.53.25-2.34-.36.03-.62.23-.78.51-2.07,3.6-5.47,3.69-8.97,3.31-1.7-.19-2.76-1.57-3.01-3.4-.53-3.94,2.05-6.52,6.02-6.04,1.05.13,1.84.67,2.11,1.68.26.98.05,1.84-.96,2.45-.89.53-1.76,1.02-2.76,1.33-.7.22-1.69.06-2.01,1.08Zm.42-2.17c1.06-.02,2.02-.55,2.9-1.23.32-.25.44-.64.23-1.06-.15-.3-.38-.48-.72-.54-.93-.17-2.79.83-3.14,1.71-.23.59-.22,1.1.72,1.12Z"/>
  <path class="cls-1" d="m451.3,9.67c-.34.82-.83.92-1.2,1.19-1.68,1.23-2.95,2.68-2.68,4.98.05.46-.03.97-.18,1.41-.27.75-.91,1.12-1.68,1.11-.85-.02-.92-.7-.98-1.35-.03-.31-.1-.62-.17-1.01-1.27.12-2.37.56-3.3,1.28-2.13,1.64-4.6,2.05-7.17,2.02-2.22-.02-3.56-1.39-3.74-3.59-.13-1.68-.23-3.34.54-4.91,1.05-2.15,4.12-2.69,5.81-1.03,1.29,1.26,1.21,2.82-.28,3.84-.71.49-1.57.75-2.3,1.21-.48.3-1.51.14-1.31,1.07.19.85.68,1.63,1.75,1.68,1.51.06,3,.19,4.38-.72.76-.5,1.6-.99,2.47-1.17,2.21-.46,3.54-1.65,4.58-3.71.98-1.94,3.13-2.39,5.46-2.27Zm-18.62,4c.83-.02,1.51-.37,2.12-.87.46-.38.68-.87.44-1.46-.18-.44-.37-.88-.94-.93-.63-.06-1.04.23-1.31.78-.38.78-.78,1.54-.31,2.49Z"/>
  <path class="cls-1" d="m435.54,70.64c.2-.09.41-.26.6-.25,1.06.08,1.56-.13,1.96-1.38.37-1.18,1.15-2.65,2.97-2.64.82,0,1.56-.16,2.06.75.58,1.07.64,2.59.06,3.35-.57.75-1.31,1.14-2.24,1.2-.71.05-1.21.35-1.26,1.15-.05.84.41,1.34,1.13,1.65.69.29,1.39.33,2.09,0,1.34-.64,2.6-1.36,3.63-2.5,1.16-1.28,2.28-2.88,4.49-1.74.71.36,1.27-.12,1.73-.82.9-1.39,1.99-2.69,3.57-3.33.44-.18.95-.73,1.53-.34.36.25,1.05.05,1.09.72.03.51-.43.66-.77.79-2.46,1-3.81,2.91-4.56,5.36-.19.61-.4,1.21-.62,1.8-.23.59-.64.83-1.3.78-.73-.05-.93-.39-.93-1.07,0-.73-.47-1.32-.82-1.93-.76-1.37-.95-1.39-1.83-.16-1.32,1.85-2.97,3.24-5.23,3.85-1.03.28-2.03.4-3.07.23-1.53-.24-2.69-1.36-2.4-2.87.33-1.74-.44-2.16-1.86-2.61Zm6.16-1.62c-.12-.38.12-1.13-.62-.98-.86.16-.82,1.07-1.02,1.72-.17.53.28.75.65.77,1.07.04.98-.78.99-1.51Z"/>
  <path class="cls-1" d="m98.28,9.86c-1.14,2.02-2.55,3.57-4.37,4.74-1.74,1.12-3.63,1.13-5.54.8-1.01-.17-1.86-1.09-2.02-1.86-.48-2.35-1.09-4.83.72-6.99.89-1.06,3.7-1.61,4.84-.92,1.25.76,1.31,2.29.12,3.15-.82.6-1.77.81-2.73.62-1.24-.25-1.33.42-1.28,1.33.14,2.65,2.93,4.41,5.11,2.91,1.92-1.33,4.15-2.66,4.42-5.5.09-.92,1.01-1.24,1.78-.92.81.34,1.11-.02,1.57-.52,1.49-1.62,3.37-2.57,5.71-3.16-.1,1.12-.79,1.67-1.41,2.15-2.26,1.74-4.11,3.69-4.44,6.71-.06.56-.45,1.09-1.13,1.01-.68-.08-1.16-.44-1.15-1.25,0-.68.17-1.38-.22-2.29Zm-9.7-1.61c.92-.02,1.56-.31,2.38-.99-1.26-.34-1.97-.23-2.38.99Z"/>
  <path class="cls-1" d="m259.73,42.13c1-1.6,1.11-3.21.89-4.96-1.66.09-3.01,1.13-4.62,1.09-.47-.01-.58.42-.64.85-.12.86-.23,1.72-.45,2.56-.21.82-.37,1.73-1.44,2.12-1.05-1.03-1.53-2.23-1.19-3.74.25-1.1-.17-1.75-1.37-1.55-.64.11-1-.37-1.51-.52-.42-.12-.88-.53-.61-1.09.21-.43.59-.66,1.16-.68.81-.03,1.47.73,2.39.31.32-.85-.07-1.81.08-2.74.08-.51.23-.93.85-.94.64-.01.78.41.82.93.02.24.03.48.05.72.2,3.1.16,2.63,2.95,2.22.23-.03.49-.06.68-.18.84-.5,2.1,0,2.67-.77.59-.81-.14-1.84-.17-2.78,0-.16-.03-.32,0-.48.09-.67-.14-1.59.93-1.61.89-.02.91.78.96,1.38.13,1.39.17,2.79.27,4.65,1.08-1.5,2.17-2.29,3.47-2.76,1.14-.41,2.16-.08,2.45,1.03.62,2.33.77,4.69,0,7.03-.14.41-.36.78-.8.75-.64-.04-.65-.63-.66-1.09-.02-1.6.03-3.19.01-4.79,0-.45.19-1.06-.31-1.29-.6-.28-1.2-.11-1.74.37-1.22,1.08-2.2,2.26-2.46,3.94-.1.61-.07,1.29-.49,1.82-.65.82-1.35.48-2.18.18Z"/>
  <path class="cls-1" d="m338.02,128.75c.69-1.81,2.39-2.24,3.8-3.07.49-.28.99-.27,1.29.11.35.45.01.93-.37,1.23-.37.29-.82.47-1.23.72-.61.38-1.25.72-1.8,1.17-1.98,1.68-1.78,3.51.49,4.73,1.76.95,5.5.14,6.65-1.47.49-.69.32-1.52.41-2.3.21-1.91,1.3-2.99,2.98-3,1.65-.01,2.44,1.29,1.6,2.69-.53.87-1.54,1.41-1.75,2.51,1.81.92,1.78.89,3.47-.52.33-.28.85-.81,1.46-.31-1.38,2.9-3.15,3.68-5.69,2.34-.68-.35-1.02-.04-1.5.16-1.23.5-2.31,1.26-3.65,1.59-2.01.49-3.93.7-5.7-.53-.86-.6-1.48.27-2.41.14,0-2.4.03-4.78-.01-7.17-.02-1.35.15-2.73-.47-4-.14-.28-.45-.48.03-.69.28-.12.56-.33.89-.14.69.39,1,.99,1,1.77,0,1.27,0,2.55,0,3.82.17.08.33.15.5.23Zm12.35-.35c-.98.4-1.34.94-1.23,1.91.64-.47,1.27-.78,1.23-1.91Z"/>
  <path class="cls-1" d="m283.58,2.85c-2.51,1.63-2.85,4.3-3.58,6.77-.13.45-.11.96-.27,1.39-.26.68-.83.99-1.53.84-.68-.15-.79-.75-.72-1.33.15-1.32.36-2.64.59-4.3-1.9,1.37-2.84,3.11-3.96,4.67-1.31,1.84-3.18,2.53-5.24,2.75-1.95.2-3.05-.85-3.33-2.8-.17-1.2-.15-2.39-.05-3.58.22-2.72,2.17-4.39,4.84-4.28,1.26.05,1.83.75,2.3,1.74.51,1.08-.04,1.91-.75,2.53-.81.72-1.73,1.35-2.81,1.7-.71.23-1.59.47-1.11,1.63.49,1.18,1.19,1.65,2.34,1.34.82-.22,1.56-.58,2.2-1.17,1.1-1.02,2.2-2.04,2.95-3.37.27-.48.55-1.19.97-1.3,2.38-.67,3.91-2.79,6.23-3.53.22-.07.45-.15.93.3Zm-12.76,2.87c.03-.72-.44-1.17-1.19-1.14-1.15.04-2.41,1.87-2.04,3,.05.17.32.36.51.38.99.12,2.68-1.3,2.72-2.24Z"/>
  <path class="cls-1" d="m434.58,36.56c-.71,1.08-1.72,1.85-2.6,2.74-1.44,1.46-3.11,2.83-2.55,5.3.12.55-.11,1.14-.84,1.22-.66.07-1.31-.02-1.66-.68-.34-.63.01-1.83-1.15-1.75-.73.05-1.01.96-1.43,1.51-1.7,2.26-4.02,2.61-6.59,2.25-.91-.13-1.53-.94-1.68-1.52-.62-2.37-.97-4.8.37-7.1,1.03-1.78,2.83-1.88,4.55-1.98,1-.06,1.86,2.18,1.11,3.03-.85.96-1.51,2.22-3.06,2.44-.98.14-1.49.82-1.16,1.93.38,1.27,1.24,1.88,2.37,1.68,1.23-.22,2.17-.83,2.98-1.77,1.01-1.18,1.92-2.6,3.86-2.22.55.11.52-.45.74-.74,1.4-1.81,3-3.39,5.1-4.42.56-.27.98-.39,1.63.08Zm-16.05,4.44c.82-.13,2.04-1.34,2.05-2.05,0-.44-.2-.79-.68-.75-1.09.11-1.59.87-1.85,1.84-.04.15-.07.3-.09.46-.06.47.3.44.57.49Z"/>
  <path class="cls-1" d="m348.71,7.62c1.31-.99,2.36-1.24,3.01-2.32.6-1.01,1.82-.66,2,.54.18,1.19.77,1.48,1.82,1.78,1.52.44,3.13.49,4.59,1.21.83.41,1.67-.36,2.54-.45,1.42-.15,2.8-.19,3.54,1.29,1,2,.22,3.9-.77,5.61-.88,1.53-2.43,1.92-4.16,1.75-.83-.08-1.16-.5-1.54-1.2-.72-1.34-.61-2.79-.77-4.2-.28-2.47-.84-2.94-3.34-2.82-1.01.05-1.46.39-1.35,1.43.14,1.36-.04,2.68-.42,4.01-.23.82-.69,1.01-1.38.94-.67-.07-.58-.64-.61-1.09-.03-.56-.1-1.13-.01-1.68.35-2.32-.24-4.1-3.16-4.81Zm15.76,4.95c.04-1.13.1-2.13-1-2.59-.75-.31-1.62-.47-2.24.13-.73.71-.76,1.7-.5,2.66.08.3.17.62.32.89.39.72.36,1.88,1.5,1.88,1.19,0,1.4-1.11,1.73-1.98.14-.36.15-.77.19-1Z"/>
  <path class="cls-1" d="m44.67,12.86c-.86-.11-1.78.04-2.08-.32-1.17-1.41-1.83-.38-2.64.34-2.44,2.17-3.9,1.94-6.11-.35-.11-.11-.23-.23-.31-.36-.81-1.25-.58-7.18.32-8.34.72-.93,2.07-1.42,2.93-1.05.97.41,1.53,1.63,1.38,2.8-.18,1.35-1.29,1.55-2.26,1.72-.79.14-1.16.36-1.03,1.19.21,1.41.11,3.16,1.69,3.68,1.61.53,2.88-.82,3.7-1.97,1.21-1.72,2.79-3.16,3.74-5.08.18-.37.25-.89.87-1.04.79-.2,1.42-.31,1.67.68.39,1.53.87,3.05,1.15,4.61.42,2.3-.85,3.61-2.99,3.5Zm.65-6.39c-.92,1.19-1.65,2.1-2.34,3.04-.22.3-.49.75-.16,1.07.67.66,1.54.81,2.42.54.73-.22.89-.8.73-1.52-.2-.91-.38-1.83-.65-3.13Zm-9.56-.68c.3-.12.58-.34.65-.77.05-.32.02-.69-.35-.75-.5-.08-.59.41-.73.74-.13.31-.05.6.43.77Z"/>
  <path class="cls-1" d="m65.21,12.07c-.9.04-1.32.84-2.02,1.21-2.38,1.25-4.25.21-4.47-2.41-.17-1.94.57-3.62,1.17-5.34.3-.85.82-1.62,1.82-2.04,1.48-.63,1.83-.61,2.56.75.55,1.02.58,2.57,2.42,2.28.28-.04.39.47.4.79.09,3.41.43,6.83-.8,10.14-.82,2.21-2.84,2.99-4.96,1.9-.37-.19-.64-.5-.7-.9-.08-.49-.05-1.1.66-.78.45.21.83.36,1.33.34.91-.04,1.7-.04,1.84-1.32.08-.74.55-1.45.65-2.24.1-.78.25-1.56.1-2.36Zm-2.45-7.32c-1.62,2.08-2.2,4.05-1.98,6.24.06.59.28,1.46,1.14,1.07.89-.41,1.93-.93,1.91-2.16-.02-1.64-.21-3.27-1.07-5.15Z"/>
  <path class="cls-1" d="m427.31,71.34c-1.27.64-2.28,1.11-3.25,1.64-.8.43-1.62.59-2.53.51-.92-.08-1.94-1.26-1.67-2.13.37-1.18.68-2.39,1.79-3.2.77-.56,1.39-1.31,2.08-1.98,1.26-1.22,2.42-1.38,3.93-.49.41.24.59.46,1.16.06.87-.61,1.45.06,1.2.91-1.06,3.52-.9,7.24-1.85,10.78-.45,1.69-1.57,2.71-2.89,3.54-1.35.85-2.51.35-2.63-1.04-.04-.44-.29-1.08.12-1.35.51-.33.94,0,1.36.5.59.7,1.14.37,1.35-.44.59-2.31,1.64-4.52,1.83-7.32Zm-4.07.4c.46-.13,1.16-.27,1.82-.52,1.64-.63,1.85-1.17,1.22-2.94-.67-1.9-1.02-1.97-2.41-.49-.76.82-1.41,1.71-1.73,2.79-.22.74-.05,1.25,1.1,1.16Z"/>
  <path class="cls-1" d="m272.33,131.81c-1.16.31-2.17.8-2.98,1.75-1.72,2.03-3.94,3.12-6.6,3.3-1.51.1-2.59-.57-2.96-2.02-.46-1.82-.37-3.64.12-5.46.23-.83.76-1.48,1.45-1.82,1.55-.77,3.2-1.33,4.99-1.12.74.09,1.49.27,1.68,1.09.19.78-.32,1.39-.9,1.83-1.25.95-2.58,1.75-4.11,2.2-.57.17-1.56.1-1.31,1.28.21.98.42,1.85,1.61,2.06,1.67.3,3.11-.15,4.34-1.28.59-.54,1.12-1.15,1.72-1.67.71-.61,1.49-1.04,2.45-1.25.99-.22,2.18.86,3.04-.72.46-.85,1.91-1.06,2.52-2.03.42-.66,1.08-.69,2.01-1.11-.7,1.74-1.8,2.72-2.72,3.82-.92,1.11-1.79,2.17-2.04,3.69-.2,1.23-1.13,1.63-2.1,1.08-.42-.24-1.01-.55-.53-1.3.42-.65.83-1.37.3-2.32Zm-10.58-.83c1.67-.75,3.29-1.13,4.29-2.7-3.22-.58-3.9-.17-4.29,2.7Z"/>
  <path class="cls-1" d="m106.62,72.68c-1.3.84-2.66,1.41-4.27,1.04-.49-.11-.9-.23-1.17-.7-.89-1.53-.26-5.51,1.09-6.67,1.22-1.05,1.98-.97,3.26.15.77.68,1.67,1.22,2.34,2,.46.19,0-.54.3-.81.27-.25.7-.46,1.06-.45.43.01.65.46.61.88-.37,3.64-.14,7.34-1.24,10.9-.33,1.08-1,1.78-1.94,2.3-.77.43-1.59.81-2.44.27-.96-.61-.98-1.51-.68-2.46.54-.2.72.26,1.04.44,1.19.67,1.76.5,2.12-.76.41-1.45.74-2.93.77-4.43-.89-.16-1.53,1.1-2.44.33-.03-1.13,2.08-.61,1.57-2.07.07.19.18.22.31.08.04-.04.02-.13.03-.2-.1.06-.21.12-.31.18Zm-3.88-2.86c-.03,1.68.14,2,1.2,2.01.78,0,1.72.11,2.14-.73.38-.76-.31-1.32-.69-1.91-.17-.27-.36-.53-.54-.79-.26-.39-.48-.9-1.06-.82-.67.09-.84.66-.94,1.22-.07.39-.09.79-.11,1.02Z"/>
  <path class="cls-1" d="m368.86,21.08c.29-.18.59-.19.91-.11,2.38.63,2.75.56,3.86-1.41.48-.85.76-1.86.92-2.83.2-1.24-.57-1.82-1.96-1.63-1.68.22-3.09-.85-3.34-2.54-.15-1.03-.2-2.06-.04-3.09.33-2.11,2.14-2.86,3.86-1.59,1.23.91,1.99,2.29,3.41,3.11,1.02.59.97,2.13.85,3.32-.33,3.29-.94,6.46-4.28,8.17-1.78.91-3.09.47-4.2-1.4Zm2.86-12c-1.08,1.26-.63,2.52-.12,3.77.2.49.65.45.98.19.57-.46,1.08-1.06.72-1.85-.35-.77-.64-1.63-1.57-2.11Z"/>
  <path class="cls-1" d="m373.15,70.86c-.79.46-1.61.71-2.08,1.26-.91,1.08-2.05,1.04-3.21,1-1.54-.05-2.12-.99-1.66-2.47.53-1.73,1.32-3.31,2.59-4.62,1.58-1.63,3.43-2.03,5.58-1.32.46.15.56.42.67.83.18.69.35,1.37.36,2.1.04,2.57-.27,5.09-.83,7.59-.75,3.31-3.76,5.4-7.16,5.06-.56-.06-.85-.35-1.13-.73-.19-.26-.29-.59-.13-.9.16-.33.49-.37.81-.3.47.09.93.25,1.41.28,1.65.09,3.3-.82,3.64-2.36.2-.88.88-1.49.91-2.4.03-.95.15-1.9.24-3.01Zm-5.09-.6c-.16,1.3,0,1.47.94,1.37,1.59-.17,3.63-2.04,4.02-3.62.27-1.07-.43-1.66-1.11-2.15-.72-.52-1.16.23-1.52.66-1.04,1.21-2.47,2.23-2.34,3.74Z"/>
  <path class="cls-1" d="m86.75,64.33c-.41-.74-.7-1.59-1.96-1.61-.34,1.6-.29,3.24-.13,4.87.08.83.62,1.27,1.52,1.03,2.06-.56,4.3-.31,6.26-1.39.75-.42,1.4-.17,1.73.64.88,2.14.69,4.37.49,6.59-.04.47-.4.66-.84.65-.61-.01-.81-.43-.83-.94-.03-1.19.06-2.4-.06-3.58-.18-1.87-.45-2.02-2.21-1.54-1.82.5-3.58,1.21-5.65,1.34,0,1.15.01,2.25,0,3.36-.02,1.21-.29,2.37-.96,3.38-.29.44-.87.78-1.31.34-.29-.29-.96-.72-.37-1.38.77-.87.56-1.95.6-2.97.09-2.49.1-2.54-2.3-3.27-.56-.17-1.01-.26-1.29-.81-.26-.51-.56-1.03-.15-1.54.36-.44.89-.19,1.34-.07.37.11.71.37,1.08.46.71.16,1.24.1,1.15-.91-.14-1.43.08-2.86.3-4.28.18-1.19.92-1.86,1.95-2.14.98-.27,1.27.75,1.82,1.28.9.89.62,1.69-.17,2.51Z"/>
  <path class="cls-1" d="m400.94,39.11c.93-1.42,2.11-2.28,3.76-1.91,1.72.39,1.86,2.15,2.61,3.37,1.01-.01.82-1.05,1.35-1.49.94-.78,2.8-1.39,3.7-.93,1.09.56,1.43,1.58,1.58,2.76.21,1.69-.09,3.34-.22,5-.07.92-.92,1.19-2.06.83-.96-.3-.68-.83-.33-1.45.68-1.23.75-2.58.63-3.94-.05-.5.1-1.23-.69-1.31-.66-.07-1.33-.35-1.94.41-.56.7-1.01,1.38-1.24,2.24-.19.68-.41,1.36-.73,1.98-.27.52-.79.84-1.41.62-.59-.21-.52-.78-.38-1.21.51-1.6-.47-2.87-.86-4.27-.18-.64-.74-1.1-1.36-1.18-.64-.09-.8.62-1.13,1.05-.95,1.23-.68,2.75-1.11,4.1-.14.45-.18.93-.3,1.39-.14.54-.54.75-1.08.71-.6-.05-.85-.45-.81-.97.17-2.15.16-4.29-.24-6.43-.15-.77.58-.79,1.17-.71.74.1.36,1,1.1,1.33Z"/>
  <path class="cls-1" d="m108.36,38.86c-1.49,1-1.94,2.31-2.63,3.41-1.64,2.62-4.12,3.91-6.76,3.56-.91-.12-1.56-.55-1.79-1.34-.72-2.47-1.01-4.93.58-7.25.7-1.02,1.62-1.49,2.82-1.52.88-.02,1.61.24,1.82,1.18.19.89.2,1.78-.77,2.29-.49.26-.99.52-1.5.72-1.74.69-1.94,1.16-1.17,2.96.52,1.23,1.67,1.71,2.94,1.05.67-.35,1.42-.65,1.96-1.27.87-1,1.91-1.8,2.46-3.14.41-1,1.16-2.07,2.69-1.9,1.28.14,2.01-.79,2.48-1.83.35-.77.93-1.28,1.56-1.76.28-.21.6-.06.86.17.31.26.25.49.04.79-.39.59-.71,1.23-1.12,1.81-1.18,1.63-2.18,3.32-2.22,5.42-.01.89-.45,1.32-1.35,1.26-.94-.06-.87-.77-.89-1.4-.02-.94,0-1.87,0-3.22Zm-9.19-.14c.77-.04,1.3-.11,1.34-.83,0-.09-.18-.28-.28-.28-.64-.01-.96.35-1.06,1.11Z"/>
  <path class="cls-1" d="m219.77,127.49c-.23-1.25-.41-2.26-.61-3.26-.11-.55-.23-1.1.04-1.64.2-.4.54-.57.96-.61.47-.05.74.19.88.62.09.3.24.6.28.91.5,3.84,1.44,7.65,1.09,11.57-.05.55.07,1.18-.65,1.36-.63.16-.95-.18-1.32-.71-.43-.63-1.03-.83-1.79-.17-.92.8-2.06,1.11-3.33.98-1.3-.13-2.17-.98-2.41-1.98-.36-1.51-.36-3.18.13-4.69.65-1.98,2.33-2.62,4.28-2.64.7,0,1.41.13,2.47.23Zm-5.33,4.38c-.02,1.9.86,3.17,2.17,3.19,1.65.02,3.55-1.94,3.42-3.53-.13-1.55-1.66-2.85-3.42-2.9-1.32-.04-1.87.64-2.09,2.59-.03.24-.05.47-.07.66Z"/>
  <path class="cls-1" d="m262.13,11.97c-.84.78-1.65,1.15-2.52.61-1.13-.7-2.09-.37-3.07.25-1.19.76-2.51.87-3.89.82-.76-.03-1.21-.39-1.58-.9-1.21-1.64-.4-4.96,1.46-5.74,1.72-.72,3.5-1.23,5.04.46.1.11.25.17.39.23.06.03.16-.01.27-.02.37-2.1-.03-4.24.31-6.36.18-1.13.62-1.34,1.65-1.31.22,2.72.67,5.38.55,8.09-.09,2.05.14,2.49,1.39,3.88Zm-7.22.24c1.08,0,2.2-.24,2.64-1.23.35-.78-.58-1.37-1.1-1.95-.21-.24-.4-.49-.62-.72-.65-.66-1.41-.65-2.18-.26-1.06.54-1.5,1.46-1.24,2.54.28,1.2.96,1.64,2.51,1.63Z"/>
  <path class="cls-1" d="m308.45,94.81c1.36-.88,2.23-1.97,3.76-2.05,1.11-.06,1.9.24,2.37,1.16,1.27,2.48,1.29,5.2,1.32,7.9,0,.81-.74.99-1.38.99-.71,0-.84-.58-.88-1.16-.06-1.11-.11-2.23-.17-3.34-.03-.56,0-1.13-.12-1.66-.5-2.13-1.45-2.38-3.05-.96-1.14,1.01-1.91,2.15-2.12,3.7-.1.76-.45,1.51-.81,2.19-.36.68-1.04.73-1.65.36-.63-.38-1.14-.84-.67-1.74,1.31-2.55,1.45-5.29,1.16-8.08-.05-.47-.22-.94-.24-1.41-.02-.54-.06-1.15.76-1.22.66-.05,1.09.25,1.27.84.44,1.38.19,2.83.43,4.48Z"/>
  <path class="cls-1" d="m352.86,41.84c-1,1.25-1.66,2.64-3.57,2.46-.9-.09-1.47-.39-2.01-1.01-1.73-1.98-1.59-5.49.45-6.79,1.1-.71,2.3.01,3.34.57.47.25.65.93,1.44.95.55-.72.28-1.61.29-2.44.03-1.36-.04-2.71-.01-4.07,0-.43-.04-.99.66-1.03.67-.04,1.2-.04,1.41.85.24,1.01.48,1.99.52,3.04.11,2.61-.45,5.25.33,7.85.2.66-.39.87-.87.7-.65-.23-1.23-.65-1.99-1.07Zm-4.88-2.41c-.03,1.18.46,2.4,1.24,2.97.31.23.67.51,1.08.23.73-.51,1.39-1.09,1.6-2,.21-.91-.54-1.23-1.11-1.64-.32-.23-.62-.52-.97-.7-1.15-.59-1.81-.17-1.84,1.14Z"/>
  <path class="cls-1" d="m116.84,67.77c.84-.17,1.09-.97,1.75-1.29,1.87-.89,2.94-.6,3.74,1.31.33.79.55,1.69.53,2.54-.04,1.82-.38,3.61-.82,5.38-.11.44-.28.74-.76.72-.48-.02-.73-.34-.74-.77,0-1.11.02-2.23.07-3.34.06-1.26-.07-2.46-.49-3.69-.41-1.2-.91-.87-1.54-.37-.7.56-1.2,1.26-1.34,2.18-.16,1.1-.34,2.2-.45,3.31-.06.65-.26,1.24-.57,1.8-.35.64-.94.56-1.46.42-.5-.13-.38-.62-.35-1,.02-.24.1-.47.13-.7.36-3.38.74-6.76-.9-9.96-.14-.28-.34-.52-.32-.86.04-.61.29-1.13.89-1.24.46-.08.88.13,1.14.65.37.71.71,1.42.88,2.19.2.91.4,1.82.6,2.73Z"/>
  <path class="cls-1" d="m389.99,43.29c-.83.29-1.13.89-1.58,1.31-.83.78-1.82,1.27-2.96,1.4-1.92.21-2.66-.33-2.86-2.25-.29-2.71.34-5.16,2.3-7.18,1.47-1.52,3.76-1.49,4.89.14.13.19.24.57.37.58,2.01.08,1.72,1.73,1.99,2.93.33,1.46.25,3,1.44,4.2.41.42.05.87-.54.99-1.28.26-1.96-.2-3.04-2.11Zm-5.53-1.22c.05.79-.13,1.73.7,2.14.94.45,1.81.04,2.58-.65,2.25-2.01,2.03-3.97.5-5.54-1.02-1.05-1.77-1.17-2.57.02-.81,1.2-1.15,2.59-1.21,4.03Z"/>
  <path class="cls-1" d="m26.46,5.95c.17-1.56-.1-2.87-.32-4.21-.08-.49-.26-1.18.55-1.35.81-.17,1.08.29,1.28,1.02.71,2.56.37,5.23.9,7.81.27,1.32.37,2.68.45,4.03.03.59.02,1.4-.88,1.42-.8.02-1.03-.57-1.05-1.3-.02-.52.18-1.09-.28-1.72-1.87,1.77-4.02,3.3-6.43,1.39-1.95-1.55-2.05-5.01-.64-6.95,1.17-1.62,3.04-1.69,6.44-.15Zm-5.8,3.59c0,.06-.03.38.04.69.32,1.43,2.1,2.78,3.07,2.25,1.42-.78,2.55-1.87,2.93-3.55.11-.49.1-.95-.21-1.36-.55-.73-3.07-1.7-3.86-1.49-1.16.31-1.94,1.56-1.98,3.45Z"/>
  <path class="cls-1" d="m358.4,94.23c.2,0,.4.06.49,0,2.7-2.03,4.32-1.64,5.6,1.47.73,1.78,1.02,3.66.89,5.6-.01.16,0,.32-.04.47-.22.8-.72,1.56-1.55,1.45-.66-.09-.76-.92-.65-1.6.34-2.11-.27-4.03-1.11-5.93-.43-.97-1.04-.91-1.69-.43-1.12.83-1.67,2.1-2.12,3.35-.24.67-.51,1.32-.85,1.93-.34.62-.91.5-1.47.39-.55-.11-.5-.52-.53-.9-.03-.47-.23-1.04-.04-1.41,1.26-2.53,1.59-5.03.01-7.56-.15-.24-.12-.67.26-.8.66-.22,1.44-.6,1.93.18.37.59.6,1.28.65,2.03.04.6-.16,1.25.19,1.79Z"/>
  <path class="cls-1" d="m162.31,46.23c-3.03-.08-3.02-.16-3.61-3.05-.25-1.22.1-2.37-.07-3.56-.28-1.97-.1-3.98-.59-5.94-.14-.55-.66-1.52.47-1.78,1.21-.27.85.82,1.06,1.4.14.37.23.76.3,1.15q.38,2.08,2.62,2.23c2.68.18,5.56,3.38,5.34,6.02-.13,1.53-.9,2.64-2.44,3.15-1.07.36-2.15.53-3.08.39Zm.51-1.35c2.89.03,3.89-1.55,2.55-4.08-.26-.49-.59-.93-.89-1.4-.53-.84-1.17-1.59-2.28-1.28-1,.28-1.1,1.25-1.28,2.09-.23,1.06.17,2.24-.64,3.19-.38.44-.06.73.26.94.69.44,1.48.51,2.28.54Z"/>
  <path class="cls-1" d="m315.68,15.71c.1-2.39.23-4.78.3-7.16.06-2.05,1.72-3.13,3.7-2.36,1.82.71,3.77,4.19,3.34,6.08-.35,1.55-1.61,2.27-2.99,2.32-1.63.06-1.8.89-1.72,2.15.04.63.03,1.28-.03,1.91-.07.72-.49,1.16-1.24,1.19-.72.03-.97-.48-1.08-1.05-.19-1.02-.32-2.04-.48-3.07.06,0,.13,0,.19,0Zm2.94-8.13c-.39,1.61-.51,3.36-.32,4.43.2,1.07.68,1.35,1.86,1.14.92-.16,1.2-.75,1-1.54-.41-1.59-1.02-3.07-2.54-4.03Z"/>
  <path class="cls-1" d="m107.18,102.8c-1.37,1.2-2.57,2.4-4.01,1.47-1.38-.9-.99-2.56-.92-3.97.13-2.39.83-3.25,2.69-3.84,1.07-.34,1.84-.06,2.52.76.62.74,1.07,1.53,1.21,2.51.4,2.69.53,5.38.45,8.1-.04,1.25-.53,2.3-1.1,3.34-.62,1.12-1.69,1.37-2.86,1.26-.73-.06-1.28-1.01-1.08-1.76.11-.41.31-.37.68-.23,1.31.49,1.86-.24,2.13-1.4.44-1.94.13-3.89.28-6.24Zm-3.47-1.35s.02.43.12.9c.1.48.48.63.9.46.97-.38,2.11-3.15,1.75-4.16-.34-.95-1.12-1.11-1.83-.35-.68.74-.94,1.64-.94,3.15Z"/>
  <path class="cls-1" d="m198.24,6.23c-.32-.08-.41-.14-.47-.12-1.17.49-2.68.02-3.62.93-.98.95-.44,2.43-.71,3.65-.13.62-.28,1.24-.4,1.86-.14.75-.7.8-1.27.76-.62-.04-.76-.51-.71-1.03.13-1.27.24-2.55.48-3.8.23-1.24-.35-1.67-1.44-1.96-.77-.21-2.39.52-2.09-1.04.17-.87,1.62-.52,2.53-.44.3.03.6.04.91.06.47-.89-.12-1.83.38-2.61.26-.41.59-.78,1.13-.75.53.03.51.5.59.88.08.39.24.76.31,1.14.36,1.88.36,1.93,2.1,1.74,1-.1,1.99-.04,2.94-.74.84-.62,1.48-.16,1.47.98-.02,2.24.04,4.47.38,6.69.08.53.17,1.18-.64,1.28-.73.09-1.19-.22-1.39-.98-.33-1.25-.46-2.51-.48-3.79-.01-.93,0-1.87,0-2.73Z"/>
  <path class="cls-1" d="m74.24,8.08c1.75-1.41,3.27-2.59,5.23-3.26,1.03-.36,1.61-.02,2.02.49.68.83,1.17,1.79,1.34,2.98.29,2.08-.28,4.14.14,6.2.15.75-.47,1.19-1.12,1.29-.67.1-1-.46-1.06-1.05-.09-.79-.09-1.59-.1-2.39-.02-1.2.03-2.4-.02-3.59-.03-.61.11-1.43-.62-1.67-.82-.27-1.65-.24-2.45.38-1.65,1.27-2.68,2.89-3.06,4.91-.1.55-.26,1.07-.44,1.6-.17.49-.33.94-.93.85-.59-.09-1.06-.41-1.09-1.08-.02-.47.02-.96.09-1.43.26-1.79.83-3.56-.4-5.29-.31-.44-.26-1.32.6-1.54.6-.15.99.07,1.27.73.26.59.4,1.19.61,1.89Z"/>
  <path class="cls-1" d="m71.06,98.82c-.08-1.64-.28-3.13-.19-4.6.07-1.28.25-2.51-.17-3.78-.13-.4.39-.86.92-.89.46-.03.74.37.82.73.22.93.43,1.87.48,2.82.19,3.19.66,6.36.57,9.56,0,.24.01.49-.04.72-.17.74-.12,1.85-1.15,1.77-1.33-.1-.52-1.25-.55-1.9-.05-.99.13-1.99.12-3.02-.73,1.77-1.5,3.49-3,4.76-1.65,1.38-3.46.76-3.89-1.36-.27-1.35-.16-2.72.03-4.04.27-1.81,3.22-2.74,5.07-1.66.31.18.55.49.98.89Zm-5.06,2.97c0,1.09.54,2.32,1.17,2.46,1.19.27,1.69-.64,2.24-1.43.27-.39.58-.78.74-1.22.21-.62.8-1.24-.02-1.93-.69-.58-1.3-1.14-2.31-.88-1.24.32-1.83,1.24-1.82,2.98Z"/>
  <path class="cls-1" d="m420.07,12.28c1.16-.33,1.6-.93,2.3-1.15,2.03-.64,3.65-.24,4.88,1.38,1.1,1.45,1.22,3.73.25,5.16-.29.43-.69.66-1.22.51-.5-.14-.43-.6-.46-.98-.13-1.37.33-2.8-.82-4.05-.93-1-1.25-1.26-2.25-.43-.96.79-1.92,1.55-2.32,2.91-.54,1.83-1.4,2.51-2.32,2.14-1.5-.6-.59-1.84-.45-2.7.46-2.7.53-5.39.36-8.11-.04-.58-.22-1.36.77-1.45.96-.08,1.27.49,1.27,1.32.01,1.74,0,3.48,0,5.45Z"/>
  <path class="cls-1" d="m384.18,65.38c1.73.31,2.45-1.2,3.7-1.5.68-.16,1.57-1.14,1.99-.17.34.8-.68,1.61-1.47,1.72-1.47.21-2.59,1.15-3.94,1.61-1.37.46-1.3,1.19-.5,2.45,1.17,1.85,3.17,1.72,4.86,2.24,1.51.46,3.13.27,4.75.04-.01,1.1-.94,1.18-1.49,1.32-3.68.93-7.09.27-10.25-1.9-.74-.51-.83-.98-.77-1.76.08-1.05.56-1.93.94-2.85.7-1.71.63-3.5.75-5.27.04-.49.03-.97.74-.94.57.02.91.39.97.87.17,1.33.2,2.67-.28,4.14Z"/>
  <path class="cls-1" d="m98.17,125.57c.64,1.22.5,2.1.35,2.91-.28,1.56-.6,3.12-1.07,4.63-.21.68-.35,1.74-1.36,1.73-.74,0-1.15-.64-1.43-1.39-.44-1.16-1.35-2.1-1.55-3.39-.05-.35-.42-.67-1.06-.82-.89,1.74-1.42,3.71-2.51,5.4-.24.37-.17.97-.85.95-.83-.01-.81-.66-.88-1.18-.36-2.76-.69-5.52-1-8.28-.05-.47.07-.95.12-1.43.05-.48.33-.67.81-.62.49.05.76.4.68.8-.47,2.26.71,4.39.47,6.63-.03.27-.12.62.4.93.71-1.51,1.41-3.01,2.12-4.5.14-.28.28-.57.46-.83.69-1.04,1.19-1,1.78.16.82,1.58,1.38,3.31,2.74,4.95.3-2.32.96-4.26,1.77-6.65Z"/>
  <path class="cls-1" d="m117.65,99.63c1.23-1.2,2-2.24,3.51-2.04.64.09,1.08.34,1.32.86,1.35,2.86,1.29,5.84.61,8.84-.04.2-.23.46-.4.51-.31.08-.62-.07-.83-.35-.41-.56-.37-1.22-.35-1.85.07-1.92-.16-3.82-.53-5.69-.17-.84-.76-1.06-1.28-.4-.88,1.09-1.89,2.11-2.09,3.64-.14,1.09-.61,2.14-.84,3.23-.22,1.03-.87,1.05-1.61.74-.77-.31-1.05-.83-.65-1.71,1.39-3.09,1.24-6.34.93-9.6-.08-.8-.81-2.06.21-2.31,1.12-.28,1.26,1.18,1.52,2.02.37,1.22.6,2.48.49,4.11Z"/>
  <path class="cls-1" d="m120.12,131.4c0,1.13,0,1.85,0,2.56,0,.62-.2,1.06-.94,1.11-.73.04-.92-.28-.94-.98-.05-1.4-.88-1.06-1.61-.56-.92.63-1.79,1.29-3.01,1.15-.97-.11-1.54-.47-1.77-1.54-.39-1.81-.49-3.63-.36-5.44.18-2.57,2.69-3.88,4.93-2.63,2.62,1.46,4.31,3.49,3.71,6.33Zm-2.44-2.26c-.02-1.19-1.74-2.95-2.96-3.02-.63-.03-1.13.28-1.27.87-.4,1.73-.44,3.48.18,5.17.22.61.66,1.07,1.49.74,1.27-.51,2.59-2.4,2.56-3.76Z"/>
  <path class="cls-1" d="m330.09,9.8c1.16-.39,1.67-1.28,2.57-1.62,1.9-.73,2.78-.21,3.46,1.73.61,1.73.2,3.49.53,5.21.1.49.07,1.02-.61,1.02-.53,0-1.17.04-1.32-.72-.05-.23-.1-.47-.12-.71-.12-1.65-.23-3.3-1.22-4.81-1.94.4-3.39,1.43-3.52,3.75-.03.52-.21.94-.59,1.26-.33.27-.74.3-1.13.17-.45-.16-.55-.54-.49-.96.25-1.59.34-3.18.29-4.78-.04-1.35.07-2.72-.42-4.03-.2-.54-.19-1.07.17-1.6.31-.46.69-.62,1.2-.6.56.02.54.48.63.84.49,1.86.28,3.78.56,5.88Z"/>
  <path class="cls-1" d="m204.04,67.58c-.16,1.29-.99,2.46-2.41,3.17-.69.34-1.45.55-2.2.75-1.81.48-3.42-.52-3.45-2.41-.02-1.61-.21-3.26.37-4.88.45-1.26,1.38-2.04,2.29-2.86.38-.34.88-.28,1.35-.12,1.71.6,4.1,4.16,4.05,6.35Zm-4.97-4.73c-.81,1.7-1.06,3.18-1.13,4.69-.04.78.26,1.42,1.04,1.71.89.32,1.72.16,2.5-.37.77-.53.55-1.19.35-1.91-.44-1.58-1.36-2.8-2.75-4.12Z"/>
  <path class="cls-1" d="m56.71,43.04c-.73,1.11-1.69,1.91-2.84,2.49-1.42.73-2.33.49-3.28-.81-.6-.81-.74-1.77-.92-2.7-.34-1.78-.77-3.47-1.93-4.98-.88-1.14-.46-1.91,1.11-2.17.68-.12.9-.55,1.28-.92,1.56-1.49,3.16-1.25,4.25.6,1.47,2.5.49,4.87-2.44,5.47-.91.19-1.04.52-.95,1.22.07.55.15,1.12.35,1.63.59,1.48,1.36,1.76,2.77.98.66-.37,1.24-.92,2.04-.96.15,0,.3.08.54.16Zm-5.79-6.18c-.02.64-.17,1.33.82,1.36,1.06.03,1.91-.54,1.91-1.32,0-.86-.99-2.24-1.58-2.1-1.11.25-1,1.26-1.14,2.07Z"/>
  <path class="cls-1" d="m66.4,41.27c-1.05.48-1.08,1.46-1.51,2.17-.52.84-1.11,1.54-2.26,1.4-.75-.09-1.26-.24-1.56-1.12-.68-2.01-.64-4.05-.35-6.06.15-1.05.85-1.98,2.02-2.39,1.15-.4,1.65.52,2.46.94,3.62,1.9,3.06,5.46,3.65,8.58.08.44-.04.78-.54.86-.57.1-.86-.15-.99-.73-.27-1.21-.61-2.41-.93-3.65Zm-4.3-1.5c-.03.96,0,1.92.37,2.82.3.73.92.72,1.29.18.82-1.19,1.39-2.52,1.16-4.02-.15-.94-.86-1.76-1.7-1.78-.92-.02-.99,1.06-1.11,1.84-.05.31,0,.64,0,.95Z"/>
  <path class="cls-1" d="m284.96,35.02c-2.05,1.33-2.46,3.3-3.11,5.12-.19.52-.29,1.09-.32,1.64-.07,1.18-.77,1.66-1.84,1.82-.29-.58-.15-1.19-.08-1.8.13-1.16.54-2.36-.45-3.4-.17-.18-.11-.6-.12-.92-.05-1.12.51-1.64,1.34-1.03.87.64,1.22.75,1.65-.32.39-.99,1.21-1.68,2-2.35,1.06-.9,2.15-.54,2.68.72,1.25,3.01.95,6.06.35,9.13-.08.43-.31.81-.73.84-.73.05-.61-.6-.64-1.02-.2-2.7-.06-5.42-.72-8.43Z"/>
  <path class="cls-1" d="m184.61,12.65c-1.27.42-2.17,1.09-3.39.98-1.24-.11-1.95-.63-2.05-1.83-.09-1.11-.15-2.25,0-3.34.22-1.65,2.1-3.11,3.75-2.93,1.08.12,2.11.58,3.25.38.48-.08.68.35.68.77.02,1.04.02,2.07-.01,3.11-.05,1.27-.25,2.54-.05,3.82.06.37.2.82-.32.99-.48.15-1.03.12-1.3-.32-.27-.45-.36-1.02-.55-1.63Zm-.21-2.24c-.09-1.25-.59-2.17-1.23-2.99-.62-.81-1.42-.64-1.83.33-.42.99-.4,2.05-.21,3.07.16.89.78,1.46,1.72,1.21.85-.23,1.7-.62,1.55-1.62Z"/>
  <path class="cls-1" d="m221.26,40.3c-1.01,2.7-3.08,4.13-5.77,4.8-1.84.46-3.69-.77-3.65-2.61.04-1.79.13-3.57.85-5.32.52-1.27,1.33-1.71,2.43-1.83,1.14-.13,2.23.77,2.71,1.95.46,1.15-.06,1.99-.84,2.74-.69.65-1.33,1.46-2.16,1.83-.75.33-.77.74-.6,1.25.19.58.81.47,1.24.38,1.39-.29,2.58-.94,3.66-1.89.59-.52.79-1.38,1.59-1.68.18.13.37.26.55.39Zm-6.86.19c.89-.51,1.67-1,1.9-2,.13-.57-.06-1.15-.66-1.35-.57-.18-.84.28-1.01.74-.28.78-.69,1.57-.23,2.61Z"/>
  <path class="cls-1" d="m377.78,44.53c-2.29,1.84-4.05,1.57-5.11-.69-1.07-2.27-.78-4.7-.36-7.01.31-1.69,1.89-2.41,3.58-2.6,1.48-.17,2.32,1,3.16,1.81.96.93.26,2.97-.97,3.66-.94.53-1.99.62-3.02.63-1.08,0-1.22.57-.97,1.37.47,1.52,1.19,2.79,3.1,2.64.14-.01.3.09.59.2Zm-3.64-5.13c.55-.13,1-.26,1.46-.34.61-.11,1.38-.06,1.63-.72.32-.83-.26-1.51-.75-2.11-.6-.73-1.16-.65-1.68.14-.58.88-.99,1.78-.66,3.03Z"/>
  <path class="cls-1" d="m395.21,69.21c-.48-2.72,2.41-4.34,4.36-4.49,2.6-.2,4.35,2.1,3.78,4.8-.22,1.04-1.12,1.8-1.01,3.04.06.72-1.01.59-1.57.78-2.35.82-3.89.21-5.15-1.91q-.46-.77-.41-2.21Zm6.15-.64c.13-.97-.11-1.93-1.33-2.3-1.18-.36-2.09.28-2.61,1.17-.57.97-.36,1.95.75,2.58.25.14.38.49.59.73,1.05,1.21,1.36,1.14,2.15-.23.34-.59.47-1.15.45-1.95Z"/>
  <path class="cls-1" d="m149.91,45.02c-3.04-.03-3.72-1.03-4.43-3.34-.51-1.65-.03-3.06.15-4.51.33-2.61,2.69-3.62,5.07-2.45,2.13,1.05,3.66,2.6,4.65,4.78.56,1.22.38,2.15-.5,3.01-1.57,1.52-3.35,2.63-4.95,2.51Zm-2.45-5.33c-.06.83.2,1.84.51,2.83.26.85.95,1.41,1.82,1.25,1.56-.29,3.24-.65,4.04-2.22.72-1.43-.36-2.57-1.02-3.72-.08-.14-.2-.25-.31-.36-1.02-.98-2.18-2.57-3.5-2.01-1.34.56-1.54,2.45-1.52,4.24Z"/>
  <path class="cls-1" d="m220.63,11.27c-.84,1.14-1.91,1.47-2.97,1.74-1.88.47-3.57-.75-3.97-2.63-.42-2.02.13-3.83.95-5.63.69-1.51,2.03-2.13,3.47-2.46,1.5-.34,3.04,1.23,3.04,2.91,0,1.74-1.45,3.5-3.25,3.86-.54.11-1.1.08-1.65.12.2,2.53.43,2.65,4.37,2.09Zm-3.59-3.05c1.8-.05,2.84-1.99,1.95-3.64-.53-.98-1.12-1.08-1.79-.23-.66.82-.96,1.81-1.09,2.84-.08.67.2,1.07.93,1.02Z"/>
  <path class="cls-1" d="m170.69,9.75c.48,2.79,1.6,3.54,4.93,3.51-1.19,1.74-3.04,1.58-4.42,1.1-1.33-.46-2.76-1.51-2.62-3.45.06-.87-.15-1.77-.02-2.62.1-.64-.33-1.46.5-1.94.8-.47,1.1-1.52,2.08-1.8,1.83-.53,3.27.14,4.45,1.47,1.26,1.43.82,3.01-.93,3.86-1.27.61-2.48.34-3.96-.12Zm2.79-.94s.51.14.81-.32c.32-.49-.01-.89-.34-1.24-.38-.4-.76-.8-1.16-1.17-.63-.58-1.28-.68-1.76.14-.4.68-.85,1.42.24,1.96.56.28,1.05.72,2.22.63Z"/>
  <path class="cls-1" d="m234.69,132.36c0-.48-.02-.96,0-1.43.12-2.57.23-2.34,2.75-3.53,3.21-1.51,4.04.08,5,2.25.67,1.52,1.02,3.14,1.07,4.82.03.83-.36,1.14-1.03,1.29-.72.17-.66-.46-.8-.85-.57-1.65-1.12-3.31-1.67-4.97-.25-.73-.62-1.23-1.53-1.13-.9.09-1.14.62-1.31,1.4-.26,1.18-.39,2.35-.36,3.55.01.56,0,1.11-.49,1.53-.32.28-.66.41-1.08.34-.51-.09-.6-.49-.61-.88-.03-.79-.01-1.59-.01-2.39.03,0,.05,0,.08,0Z"/>
  <path class="cls-1" d="m241.06,9.2c-.1-2.14.45-3.65,2.33-4.46,1.84-.79,3.44-.45,4.7,1.07,2.15,2.61,1.22,6.86-1.83,8.33-1.77.85-3.74.4-4.87-1.12-.13-.18-.31-.47-.25-.61.57-1.19-.5-2.31-.09-3.22Zm6.34.72c.14-1.18-.32-2.19-.91-3.15-.38-.6-.83-1.23-1.68-1.12-.86.11-1.47.68-1.76,1.45-.66,1.74-.54,3.45.59,4.97,1.07,1.44,2.83,1.17,3.46-.51.19-.51.2-1.09.3-1.64Z"/>
  <path class="cls-1" d="m251.92,67.62c-2.04,1.84-4.16,3.11-6.72,3.53-1.84.3-2.74-.41-2.59-2.3.18-2.38.31-4.79.93-7.11.21-.79.65-1.42,1.58-1.53.96-.12,1.34.42,1.79,1.19,1.45,2.53,1.14,4.06-1.44,5.36-.79.4-1.12.84-.94,1.65.21.93.96.9,1.71.9,1.23,0,2.17-.85,3.32-1.11.73-.16,1.35-.78,2.37-.58Zm-6.86-1.93c1.59-1.35.86-2.4.51-3.72-.9,1.19-.7,2.23-.51,3.72Z"/>
  <path class="cls-1" d="m201.75,3.81c2.01-.82,1.9-.75,2.87.83.98,1.6.75,3.53,1.68,5.23,1.58-.54,1.35-2.41,2.34-3.24,1.06-.89.9-2.77,2.67-3.18.33,1.11-.03,1.93-.41,2.81-.83,1.96-1.95,3.75-3.03,5.57-.94,1.59-2.53,1.51-3.44-.12-1.08-1.95-1.34-4.2-2.14-6.26-.18-.47-.62-.9-.54-1.63Z"/>
  <path class="cls-1" d="m326.6,102.07c-.25.64-.95.54-1.39.65-1.51.4-3.42,1.13-4.48-.31-1.14-1.55-2.2-3.52-1.16-5.64.37-.76.17-1.59.81-2.38,1.02-1.25,2.2-1.63,3.65-1.7.89-.04,1.48.32,1.93,1.1.47.81.28,1.56-.13,2.23-.74,1.22-2.02,1.75-3.26,2.29-.8.35-1.04.7-.58,1.62,1.04,2.08,1.06,2.17,3.43,2.01.39-.03.79-.15,1.16.11Zm-4.76-4.96c1.05-.33,1.72-.81,2.23-1.47.29-.38.41-.92-.1-1.24-.36-.23-.83-.14-1.06.22-.45.69-.96,1.38-1.07,2.5Z"/>
  <path class="cls-1" d="m88.94,101.62c-.58,1.36-1.43,2.12-2.58,2.52-.74.26-1.55.46-2.13-.39-.75-1.09-1.36-.73-2.31-.07-1.48,1.03-3.13,1.5-3.77-1.39-.16-.73-.99-1.3-.56-2.14.7-1.36,1.07-2.93,2.5-3.81.92-.56,1.96-1.08,2.91-.49.93.57,2.28-.31,2.81.76.42.84-.2,1.86-.25,2.81-.03.8-.13,1.6-.06,2.39.09,1.13.88,1.46,1.78.73.41-.33.61-.91,1.65-.91Zm-8.7,1.22c1.15.06,3.17-1.95,3.56-3.42.28-1.07-.22-1.67-1.05-2.11-.88-.47-1.62-.32-2.3.49-.79.94-.9,2.16-1.49,3.19-.38.66.55,1.8,1.28,1.84Z"/>
  <path class="cls-1" d="m330.63,66.72c1.06-1.04,2.31-1.34,3.58-1.55,1.47-.25,2.5.48,2.7,1.97.25,1.84-.02,3.67-.33,5.49-.1.6-.54.72-1.06.68-.68-.06-.64-.56-.61-1.05.07-1.52.18-3.03.2-4.55.02-1.37-.48-1.68-1.76-1.12-1.42.63-2.57,1.59-2.96,3.16-.14.57-.24,1.07-.8,1.37-.57.31-1.21-.03-1.1-.67.52-2.95.12-5.9,0-8.84-.01-.32-.08-.66,0-.96.15-.55-.09-1.49.86-1.41.7.06.94.76,1,1.43.17,1.97.48,3.93.28,6.04Z"/>
  <path class="cls-1" d="m86,39.73c.81-1.35,1.75-2.22,2.78-3.04.98-.78,1.65-.44,2.12.45.43.82.82,1.69.97,2.64.19,1.18.47,2.34.68,3.51.14.79-.65,2.02-1.26,1.9-.74-.14-.87-.76-.9-1.45-.06-1.35-.17-2.7-.3-4.05-.04-.44-.06-.99-.71-1.06-.51-.06-.94.05-1.25.5-.99,1.44-1.93,2.9-2.11,4.7-.07.7-.25,1.27-1.12,1.2-.92-.08-.84-.76-.86-1.41-.07-1.54.42-3.17-.85-4.51-.25-.26.41-.63.2-1.06-.27-.56.03-.95.51-1.13.52-.2.86.21,1.19.57.52.56.4,1.35.91,2.25Z"/>
  <path class="cls-1" d="m356.83,66.9c.45-1.36,1.2-2.17,2.05-2.87,1.63-1.34,3.44-.79,4.09,1.22.63,1.93.77,3.9.29,5.88-.13.55-.27,1.07-.24,1.64.02.44-.25.75-.72.78-.62.04-.88-.37-.88-.88-.01-.88.07-1.75.12-2.63.09-1.44.18-2.88-.28-4.27-.13-.4-.09-1.04-.71-1.11-.6-.07-1.11.21-1.4.72-.54.95-1.33,1.76-1.47,2.94-.09.78-.26,1.56-.51,2.31-.26.79-.42,1.75-1.82,1.72-.15-2.54-.32-5.11-.46-7.68-.04-.63.19-1.1.92-1.1.73,0,.6.58.66,1.03.08.62-.12,1.27.37,2.32Z"/>
  <path class="cls-1" d="m249.26,129.88c.61-.65,1.22-1.35,1.88-2,1.81-1.76,3.76-1.05,4.35.88.64,2.1.57,4.25.77,6.37.13,1.38-1.18,1.15-2.43,1.35,0-2.03.09-3.95-.04-5.84-.05-.78.08-1.96-1.01-2.19-.88-.19-1.33.74-1.87,1.3-.73.76-1.22,1.63-1.27,2.73-.02.46-.26.91-.36,1.37-.12.58-.47.77-1.03.7-.44-.05-.74-.23-.8-.7-.2-1.66-.41-3.31-.58-4.97-.05-.51.1-.94.75-.97.54-.02.9.14,1.04.72.1.41-.1.98.6,1.26Z"/>
  <path class="cls-1" d="m224.64,69.86c-2.09,1.69-3.95,2.27-6.19,1.9-.94-.15-1.56-.69-1.71-1.39-.45-2.09-.34-4.22.3-6.27.16-.51.51-.98.86-1.39,1.05-1.27,2.47-1.8,3.26-1.28.72.47,1.34,2.69.98,3.73-.51,1.45-1.21,2.77-2.85,3.24-.22.06-.42.2-.76.36,1.39,2.93,3.8.93,6.12,1.09Zm-4.58-7.13c-1.02,1.1-1.24,2.11-1.49,3.08-.11.42-.25.99.36,1.21.5.18.98-.08,1.27-.45.89-1.17.55-2.34-.13-3.85Z"/>
  <path class="cls-1" d="m204.21,42.56c1.04-1.96,2-3.78,2.97-5.59.18-.35.34-.72.59-1.01.12-.13.46-.13.67-.08.23.05.35.27.28.55-.69,2.76-1.46,5.5-3.3,7.75-1.38,1.68-2.23,1.45-3.3-.53-.42-.77-.84-1.64-.81-2.38.05-1.13-.63-1.72-1.13-2.47-.17-.26-.55-.43-.64-.7-.24-.77-.33-1.69.31-2.21.71-.57,1.4.1,1.81.64,1.03,1.34,1.52,2.94,1.93,4.56.11.45.13.93.62,1.47Z"/>
  <path class="cls-1" d="m295.59,96.16c.09,1.4.61,2.41,1.63,3.1.18.12.45.21.66.18.4-.06.41-.44.4-.75,0-1.36-.86-2.37-1.51-3.46-1.11-1.87-.97-2.61.72-3.81,1.2-.86,3.36-.72,4.16.26.27.33.35.72.2,1.12-.19.49-.6.42-1,.34-.23-.05-.46-.11-.69-.16-.68-.14-1.51-.49-1.96.13-.45.63.12,1.4.45,1.99.54.97.97,1.99,1.26,3.05.58,2.11-.52,3.37-2.76,3.27-1.32-.06-3.26-1.67-3.26-2.89,0-.99.7-1.67,1.69-2.37Z"/>
  <path class="cls-1" d="m96.84,96.38c.73.15,1.06.36,1.2.92.37,1.48.53,2.96.5,4.48-.05,1.89,0,1.89,1.83,1.71,0,.14.06.35,0,.4-.79.61-1.49,1.83-2.57,1.35-1.29-.58-1.02-1.99-.92-3.18.03-.37.05-.74.1-1.45-1.23,1.47-2.17,2.7-3.22,3.83-1.2,1.29-2.71,1.09-3.28-.52-.61-1.73-1.18-3.51-1.08-5.41.02-.45-.17-1.1.45-1.19.68-.09.85.53.99,1.09.27,1.07.57,2.13.86,3.19.43,1.56,1.35,1.91,2.29.68,1.13-1.46,2.54-2.85,2.62-4.91.01-.31.14-.62.24-1.01Z"/>
  <path class="cls-1" d="m319.6,133.47c-.94,1.37-2.39,2.34-3.81,1.88-1.56-.5-1.61-2.38-1.81-3.88-.17-1.29.1-2.54.5-3.76.61-1.84,1.65-2.73,3.18-2.77,1.39-.03,3.03,1.16,3.52,2.72.23.74.52,1.48.44,2.31-.14,1.43-.17,2.86-.26,4.29-.03.38-.05.85-.58.9-.67.06-.74-.44-.78-.93-.02-.22.09-.47-.4-.77Zm-1.79-6.92c-1.25.03-2.08.68-2.3,1.94-.22,1.24-.38,2.5-.16,3.78.32,1.87,1,2.16,2.49.99.82-.65,1.47-1.41,1.51-2.56.02-.7.24-1.39.34-2.1.18-1.38-.47-2.08-1.87-2.04Z"/>
  <path class="cls-1" d="m340.75,11.95c-.12-3.13.79-4.26,3.35-4.69,2.3-.38,4.64.95,5.29,2.98.25.77-.02,1.41-.36,2.02-1.08,1.96-4.39,3.78-6.63,3.25-.9-.21-1.42-.38-1.39-1.45.03-.86-.21-1.73-.27-2.11Zm1.9-.93c0,1.95.54,2.99,1.56,3.06,1.32.08,3.34-1.49,3.29-2.56-.06-1.25-1.76-2.89-3.04-2.93-1.34-.04-1.82.61-1.81,2.44Z"/>
  <path class="cls-1" d="m414.96,71.32c-.05-1.04-.05-2.08-.16-3.11-.14-1.3-.64-1.58-1.68-.92-1.03.65-1.84,1.51-2.15,2.73-.06.23-.03.5-.13.7-.36.74-.46,1.95-1.66,1.62-1.3-.36-.58-1.37-.41-2.16.05-.23.19-.47.17-.69-.11-1.51.02-2.75,2.07-2.47.36.05.65-.33.93-.64.58-.64,1.4-.91,2.27-1,1.52-.15,1.98.13,2.48,1.55.82,2.35.43,4.7.09,7.06-.1.67-.48.74-.97.7-.47-.04-.97-.12-.95-.79.02-.86,0-1.73,0-2.59.03,0,.06,0,.09,0Z"/>
  <path class="cls-1" d="m344.2,72.85c-2.65.15-3.77-1.21-3.03-3.49.74-2.27,1.97-4.17,4.44-4.98.95-.31,1.52.03,1.97.73,1,1.57,1.25,3.4.34,4.91-.84,1.4-1.91,2.99-3.72,2.84Zm.54-2.07c1.04.07,1.79-.17,1.83-1.43.04-1.32-.07-2.59-.74-3.81-1.72.87-1.66,2.18-1.46,3.57.08.59.82,1.01.41,1.71-.22-.02-.46,0-.66-.07-.27-.11-.49-.44-.83-.26-.1.05-.18.27-.15.39.1.43.42.64.86.67.56.05.43-.57.74-.76Z"/>
  <path class="cls-1" d="m178.32,39.63c.18-.78-.49-1.64.15-2.49.92-1.2,2.09-1.52,3.66-.98.81.28,1.58.7,1.67,1.49.09.76-.75,1.1-1.39,1.44-2.34,1.27-2.41,1.91-.47,3.71,1.4,1.3,2.66,1.31,4.7.02.27-.17.49-.43.8-.13.31.3.09.55-.12.8-1.74,1.99-5.25,2.15-7.13.31-1.15-1.13-2.52-2.17-1.89-4.17Zm1.98-1.26c.87.22,1.32-.18,1.68-.9-.95-.43-1.39-.03-1.68.9Z"/>
  <path class="cls-1" d="m209.5,69.67c1.87-3.03,3.47-6.03,5.59-8.69.82.63.29.99.12,1.38-1.23,2.73-2.63,5.37-4.25,7.89-.3.47-.6.96-1,1.32-.53.48-1.16.83-1.95.53-.7-.26-.46-.92-.62-1.41-.52-1.66-.23-3.51-1.27-5.05-.14-.2-.01-.61.04-.92.09-.54.08-1.14.85-1.24.79-.1.92.48,1.06,1,.36,1.37.67,2.76,1.02,4.14.08.3.22.58.4,1.05Z"/>
  <path class="cls-1" d="m324.2,131.1c1.43,2.37,3.6,3.07,5.51,2.03.65-.35.82-.91.13-1.24-.9-.44-1.5-1.16-2.21-1.78-.72-.64-.96-1.4-.96-2.38-.01-1.76.32-2.35,1.88-2.6,1.23-.2,1.77.28,2.26,2.01-.19.27-.41.16-.59.02-.64-.5-1.32-.71-1.88,0-.59.76.24,1.12.62,1.54.7.77,1.42,1.52,2.18,2.21.84.76.61,1.51.12,2.32-1.1,1.81-4.72,2.66-6.38,1.44-1.15-.84-1.08-2.01-.69-3.58Z"/>
  <path class="cls-1" d="m175.09,37.75c-.45-.32-.3-.68-.37-.97-.08-.37-.3-.52-.66-.51-.56.01-.57.43-.6.82-.12,1.64.41,3.11,1.11,4.56.67,1.4.45,2.07-.66,2.87-.72.52-3.93.67-4.6.14-.77-.61-.76-1.42-.38-2.62.78.92,1.36,1.71,2.37,1.79.58.05,1.12,0,1.51-.51.42-.55-.14-.84-.34-1.23-.64-1.22-.73-2.64-1.43-3.86-.26-.45.97-3.55,1.46-3.75.93-.38,1.84-.37,2.65.41.94.91.96,1.37-.04,2.84Z"/>
  <path class="cls-1" d="m104.01,128.45c.26.07.44-.07.6-.25,1.25-1.32,1.97-1.32,2.97.02,1.15,1.54,1.18,3.92-.04,5.91-.74-1.1-.62-2.32-.91-3.41-.17-.6-.06-1.29-.96-1.4-1.05-.13-1.12.79-1.35,1.36-.35.87-.43,1.84-.71,2.75-.11.36-.45.66-.93.56-.42-.09-.41-.46-.41-.76-.02-3.19-.03-6.39-.02-9.58,0-.3.13-.59.28-1.27,1.99,1.9,1.01,4.18,1.48,6.08Z"/>
  <path class="cls-1" d="m220.71,39.91c.04-.24.06-.48.11-.71.14-.58-.18-1.37.67-1.63,1.07-.32,1.08.6,1.38,1.22.21.44.61.83,1.1.75.51-.09.55-.67.77-1.09,1-1.93,2.61-3.32,4.42-4.46.5-.32,1.19-.43,1.81-.09.09.87-.36,1.34-.96,1.82-2.31,1.85-4.38,3.9-4.97,6.98-.03.15-.18.27-.22.42-.16.59-.44,1.02-1.15.95-.7-.06-.94-.49-.98-1.12-.06-.96-.23-1.91-.74-2.75-.25-.42-.5-.18-.7.09-.18-.13-.37-.26-.55-.39Z"/>
  <path class="cls-1" d="m137.6,130.61c1.7,1.68,2.83,3.83,5.53,2.87-.24-1.31-1.33-2.12-1.49-3.43-.16-1.36.52-3.15,1.79-3.53.25-.08.64.09.88.26.18.13.1.47-.09.62-1.73,1.42-.98,2.68.16,4.03,1.28,1.53.92,3.07-.95,3.81-1.6.63-3.3.65-4.81-.38-1.39-.95-1.31-2.38-1.03-4.25Z"/>
  <path class="cls-1" d="m365.49,36.95c.83-.84,1.08-1.83,1.84-2.54.68-.64,1.39-.67,2.16-.4.36.13.68.47.62.92-.05.42-.41.36-.73.36-.98.01-1.27.78-1.64,1.48-.72,1.4-.95,2.95-1.37,4.45-.12.45-.18.9-.36,1.35-.28.7-.88,1.09-1.42,1.05-.56-.04-.61-.82-.62-1.36-.04-2.15-.29-4.27-.62-6.39-.1-.65-.5-1.74.68-1.87,1.26-.14,1.26.93,1.35,1.8.04.38.07.77.1,1.16Z"/>
  <path class="cls-1" d="m383.74,10.17c.84-1.35,1.68-2.37,3.71-2.28-2.27,1.97-2.68,4.29-2.36,6.84.1.79.05,1.52-.41,2.27-.35.58-.69.84-1.3.68-.61-.17-1.19-.34-1.14-1.23.05-1.03-.2-2.09.21-3.07.5-1.2-.44-1.89-.9-2.71-.33-.59-.96-.78-1.59-.2-.31.29-.77.42-.96-.07-.15-.39.19-.71.53-.94,1.54-1.02,2.96-.78,4.21.71Z"/>
  <path class="cls-1" d="m238.6,12.07c-1.21,1.35-2.31,2.36-3.94,2.26-1.28-.08-2.46-.32-2.76-2.3-.26-1.74-.57-3.45-.39-5.23.12-1.12.67-1.94,1.48-2.58,1.65-1.3,4.1-.21,4.33,1.89.02.21-.03.51-.17.65-.29.29-.58.05-.81-.15-.18-.15-.39-.33-.46-.54-.18-.56-.33-1.08-1.09-1-.76.09-1.08.58-1.22,1.27-.38,1.84-.27,3.66.31,5.44.35,1.07,1.29,1.33,2.09.8.85-.55,1.61-.26,2.63-.51Z"/>
  <path class="cls-1" d="m157.41,10.97c-1.57,2.28-3.76,2.94-6.42,2.67-1.22-.12-1.97-.8-2.32-1.75-.97-2.62.07-6.2,2.52-7.48,1.39-.73,3.25-.34,3.95.89.19.33.04.57-.12.86-.25.47-.57.23-.73.05-.94-1.03-1.95-.95-2.92-.13-1.09.92-1.71,2.15-1.39,3.59.63,2.78,2.61,3.54,5.14,2.08.7-.4,1.28-1.23,2.29-.77Z"/>
  <path class="cls-1" d="m7.87,67.18c-.1-2.46,1.06-4.11,2.96-4.31,2.02-.21,4.32,1.45,4.8,3.45.2.82.04,1.6-.37,2.29-.9,1.51-2.41,2.3-3.99,2.72-1.58.42-3.17-.98-3.38-2.73-.06-.47,0-.95,0-1.42Zm1.3.05c0,1.38,1.01,2.63,2.16,2.68,1.3.06,3.15-1.52,3.18-2.72.03-1.15-2.1-2.95-3.37-2.86-.97.07-1.98,1.55-1.98,2.89Z"/>
  <path class="cls-1" d="m124.49,135.31c-.08-1.72-.14-3.32-.22-4.91-.05-1.14-.13-2.26-1.55-2.6-.2-.05-.36-.3-.54-.46-.86-.81-.86-1.34.14-1.79.64-.29,1.28-.54,1.87-.93.32-.21.97-.19,1.04.2.43,2.28,2.19,1.55,3.58,1.66.23.02.47.09.84.16-.53,1.11-1.63,1.2-2.49,1.41-1.27.31-1.54.8-1.02,1.98.39.88.3,1.87.35,2.83.07,1.39-.4,2.32-2,2.45Z"/>
  <path class="cls-1" d="m209.23,100.53c.23-1.62.53-3.1.61-4.59.04-.69.33-1.22.59-1.75.27-.55.97-.58,1.47-.43.57.18.44.8.33,1.23-.51,1.88-1.16,3.7-.62,5.74.23.87-.57,1.48-1.41,1.61-1.36.22-2.71-.13-3.98-.53-.82-.26-1.22-1.12-1.1-2.14.08-.7.59-1.11.81-1.69.13-.36.18-.83.74-.65.38.13.28.49.28.8q.01,1.79,2.27,2.4Z"/>
  <path class="cls-1" d="m357.01,128.65c.13-.96.98-1.19,1.66-1.48,1.48-.64,2.31-.09,2.53,1.58.05.35.07.71.11,1.19,2.02-1.8,3.52-3.89,6.11-4.31.53.61.08.8-.19,1.06-1.15,1.1-2.31,2.18-3.43,3.31-1.01,1-2.08,1.98-1.88,3.64.06.5-.2.95-.78,1-.69.07-.96-.36-1.12-.97-.45-1.71-.22-3.48-.5-5.21-1.02-.32-1.35.71-2.05.97-.15-.26-.3-.52-.45-.78Z"/>
  <path class="cls-1" d="m162.32,7.46c.75-2.27,2.04-3.78,4.38-4.29.02.94-.66,1.2-1.09,1.63-1.74,1.75-2.74,3.86-3.23,6.25-.05.23-.02.49-.09.71-.26.79-.22,2.05-1.36,1.91-1.38-.17-.61-1.39-.56-2.12.19-2.41-.22-4.62-2.04-6.5,3.09-1.99,2.92,1.15,3.98,2.42Z"/>
  <path class="cls-1" d="m193.52,95.08c-.67.2-1.02-.62-1.67-.26-.03.18-.14.42-.08.62.31,1.15.71,2.28.99,3.44.24.98.34,1.89-.04,2.98-.42,1.18-.82,1.82-2.11,1.67-1.3-.15-1.51-1.24-1.75-2.18-.18-.66-.03-1.41-.03-2.09,1.91-.44,1.16,1.67,2.4,2.1.35-1.02.22-2.17-.31-2.84-.92-1.14-.6-2.4-.82-3.59-.12-.69.01-1.45.73-1.86.78-.45,1.36.16,1.97.48.53.28.77.79.74,1.53Z"/>
  <path class="cls-1" d="m191.23,62.54c.28,1.85-.45,3.82-.75,5.85-.1.7-.33,1.36-.14,2.1.27,1.07-.41,1.42-1.31,1.45-.97.03-.95-.72-.85-1.33.24-1.45,0-2.91.58-4.37.64-1.62.38-3.45.43-5.19.02-.56-.06-1.13.04-1.66.1-.54-.2-1.42.81-1.4.91.01,1.18.67,1.2,1.46.02.95,0,1.91,0,3.11Z"/>
  <path class="cls-1" d="m30.88,69.44c1.85,2.16,2.52,2.25,4.71.62.56-.42,1.24-1.12,1.8-.42.52.65-.22,1.35-.77,1.78-1.04.81-2.14,1.53-3.58,1.44-1.21-.08-2.78-1.01-3.08-2.17-.48-1.88-.45-3.75.39-5.58.42-.92.94-1.11,1.86-.78.81.28,1.8.27,2.09,1.28.31,1.06-.66,1.49-1.18,2.15-.6.76-1.63.96-2.25,1.69Zm.15-1.64c.46-.33.89-.56,1.21-.89.27-.28.98-.49.5-1.05-.4-.47-.91-.14-1.24.17-.4.38-.71.85-.47,1.77Z"/>
  <path class="cls-1" d="m345.87,90.77c-.35,2.17-.98,3.71-1.62,5.23-.6,1.45-1.28,2.87-2.01,4.26-.24.46-.46,1-1.03,1.25-.54.24-1.06.43-1.53-.06-.37-.39-.26-.83-.08-1.31.48-1.32,1.47-2.32,2.05-3.61.63-1.39,1.45-2.67,1.74-4.22.11-.58.64-1.08.87-1.66.23-.58.67-.7,1.13-.56.6.18.48.71.49.67Z"/>
  <path class="cls-1" d="m236.42,67.02c.36,1.36-.19,2.89.53,4.34.36.72-.35,1.72-1.05,1.75-.79.04-1.06-.43-1.2-1.17-.38-2.14,0-4.27-.04-6.41-.03-1.49.14-2.98-.51-4.44-.34-.77.05-1.7.82-2.14.76-.44,1.19.06,1.24.84.12,1.9.23,3.8.31,5.71.02.47-.06.95-.1,1.52Z"/>
  <path class="cls-1" d="m196.74,35.4c.11.69-.4.72-.67.98-1.55,1.46-3.23,2.83-3.2,5.27,0,.45-.2.93-.42,1.34-.27.5-.81.37-1.28.38-.42,0-.54-.28-.55-.6-.03-1.75-.6-3.35-1.29-4.93-.18-.42-.22-1.05.21-1.33.54-.35,1.17.09,1.39.48.74,1.3,1.39.64,2.01-.01,1.05-1.12,2.18-1.92,3.79-1.57Z"/>
  <path class="cls-1" d="m73.32,36.61c1.13.91.79,2.31,1.64,3.32.89-.8.86-2.18,1.84-2.88.89-.64,1.28-2.1,2.84-1.72-.78,1.29-1.53,2.55-2.3,3.79-.88,1.43-1.53,2.93-1.63,4.64-.04.67-.04,1.52-1.2,1.26-.9-.21-.81-.5-.72-1.42.14-1.44-.43-2.95-.76-4.42-.19-.85-.31-1.65.3-2.57Z"/>
  <path class="cls-1" d="m20.99,69.81c1.24-1.71,2.41-2.73,2.71-4.34.05-.27.33-.55.57-.7.33-.21.75-.27,1.08.03.26.23.24.58.14.88-.81,2.28-2.59,3.92-3.99,5.79-.34.45-1,.52-1.25-.31-.14-.45-.41-.86-.48-1.31-.18-1.29-.63-2.41-1.6-3.32-.45-.42-.65-1.06-.07-1.4.48-.28,1.2-.41,1.64.34.68,1.16,1.04,2.43,1.25,4.33Z"/>
  <path class="cls-1" d="m41.57,46.14c-.95-.67-.82-1.62-.81-2.45.08-3.65.34-7.29-.4-10.91-.03-.15-.04-.32-.03-.47.03-.52-.19-1.29.61-1.28.65,0,.74.71.81,1.27.51,3.94.76,7.9.66,11.88-.02.74-.15,1.43-.86,1.97Z"/>
  <path class="cls-1" d="m42.74,68.02c2.99-2.98,4.74-4.27,5.93-4.35-.06,1.01-.93,1.39-1.48,2-1.4,1.56-3.35,2.67-3.75,5.02-.12.71-1.14.72-1.39-.02-.55-1.65-1.21-3.19-2.45-4.45-.27-.28-.32-.79.08-1.05.23-.15.62-.16.89-.09.47.14.77.54,1.02.95.39.65.76,1.3,1.16,1.98Z"/>
  <path class="cls-1" d="m203.06,98.65c-.1.99-.24,2.26-.37,3.53-.05.48-.17.94-.53,1.3-.54.55-1.3.4-1.41-.34-.14-.94-.23-1.91-.19-2.86.06-1.15.69-2.34-.54-3.3-.31-.24.04-.5.32-.7.67-.48,1.41-.89,2.18-.56.84.35.47,1.25.55,1.93.03.24,0,.48,0,1Z"/>
  <path class="cls-1" d="m272.65,45.46c-.15-1.52-.24-2.64-.39-3.76-.14-1.07.08-2.23-.75-3.15-.29-.32-.24-.73-.11-1.12.19-.58-.4-1.54.8-1.63,1.14-.09.88.8,1.07,1.44.54,1.81,1.18,3.58.98,5.52-.12,1.13-.1,1.13-1.59,2.7Z"/>
  <path class="cls-1" d="m53.85,9.51c-.16,1.09-.33,2.19-.49,3.28-.08.51-.3.9-.88.93-.79.04-.84-.57-.92-1.12-.04-.31-.08-.65-.01-.94.37-1.57.35-3.12-.08-4.69-.14-.52-.26-1.18.53-1.32.64-.12,1.17.31,1.24.85.14,1.01.67,1.95.61,3.01Z"/>
  <path class="cls-1" d="m229.51,132.31c.03,1.36-.23,2.06-1.21,2.22-.39.07-.88.05-.94-.45-.22-1.84-.95-3.6-.84-5.48.02-.42.14-.81.6-.9.18-.03.52.12.6.29.75,1.54,1.54,3.08,1.79,4.32Z"/>
  <path class="cls-1" d="m284.79,124.81c-.38-1.89.17-3.37.56-4.84.12-.48.65-.93,1.2-1.07.39-.1.92.05.81.57-.4,1.88-.85,3.75-2.56,5.35Z"/>
  <path class="cls-1" d="m.51,71.16c-.64-1.36-.39-2.31-.41-3.21-.04-1.84-.09-3.68-.1-5.51,0-.47.06-.95.16-1.41.05-.23.28-.37.55-.32.27.04.37.24.42.47.15.68-.26,8.61-.62,9.99Z"/>
  <path class="cls-1" d="m204.37,91c-1.74.15-3.11,1.33-4.83,1.64.93-3.06,1.99-3.44,4.83-1.64Z"/>
  <path class="cls-1" d="m67.65,126.43c.58.61.48,1.21.58,1.74.1.56.15,1.11.91,1.17.89.07.56.54.24.9-1.02,1.12-1.57,1-2.22-.46q-.86-1.93.49-3.36Z"/>
  <path class="cls-1" d="m289.71,122.86c-.29-1.41,1.25-2.53.4-3.93-.16-.27.17-.56.55-.58.48-.03,1.05-.12,1.16.5.15.85.31,1.75-.36,2.5-.47.53-.91,1.1-1.75,1.51Z"/>
  <path class="cls-1" d="m137.21,126.37c-.04-.74.18-1.42.42-2.1.14-.38.38-.75.87-.55.39.15.63.46.56.92-.14.86-.27,1.72-.47,2.57-.09.35-.25.8-.75.76-.53-.04-.52-.51-.59-.89-.04-.23-.03-.48-.04-.72Z"/>
  <path class="cls-1" d="m95.51,63.53c-1.82.29-2.04,1.44-2.19,2.87-1.14-1.07-1.31-2.09-.82-2.8.46-.68,1.47-.82,3.02-.07Z"/>
  <path class="cls-1" d="m72.86,127.55c-1.45.53-1.92-.68-2.57-1.42-.34-.39.18-.65.46-.89.33-.27.69-.44.98,0,.45.7.98,1.36,1.13,2.3Z"/>
  <path class="cls-1" d="m198.16,3.57c-.47-.64-.34-1.2-.31-1.73.05-.93,1.45-1.63,2.24-1.13.34.22.23.74.02.77-1.17.18-.95,1.57-1.95,2.09Z"/>
  <path class="cls-1" d="m51.6,2.89c0-.48-.1-.9.02-1.23.22-.59.83-.64,1.37-.66.1,0,.26.19.3.32.16.67-.44.72-.81.95-.26.17-.51.36-.88.62Z"/>
  <path class="cls-1" d="m272.77,31.92c.56-.01.89.23.87.81-.02.69-.54.61-1,.6-.5,0-.94-.1-.89-.76.05-.66.55-.63,1.01-.66Z"/>
  <path class="cls-1" d="m228.98,124.17c-.1.48-.56.3-.89.3-.37,0-.84-.04-.73-.59.09-.42.49-.6.89-.52.35.08.74.22.73.8Z"/>
  <path class="cls-1" d="m344.51,128.67c-.85.25-1.32.23-1.49-.5.56-.19.84.3,1.49.5Z"/>
  <path class="cls-1" d="m357.47,129.43c-.31.4-.68,1.12-1.18.54-.55-.64.29-.97.72-1.32.15.26.3.52.45.78Z"/>
</svg>