<?xml version="1.0" encoding="UTF-8"?>
<svg id="Layer_1" data-name="Layer 1" xmlns="http://www.w3.org/2000/svg" viewBox="0 0 156.51 20.96">
  <defs>
    <style>
      .cls-1 {
        fill: #121212;
        stroke-width: 0px;
      }
    </style>
  </defs>
  <path class="cls-1" d="m83.21,10.19c-.06,2.62-.72,6.06,1.07,8.51.65,1.95-3.01.78-3.19-.91-.17-.43-.18-.97-.77-1.03-5.56,7.67-11.95,2.15-7.79-5.68,1.02-3.01,5.74-8.34,8.42-3.9.33.68.57,1.23,1.49.75,1.2-.34.66,1.38.77,2.26Zm-9.67,5.08c.06,7.71,7.23.26,6.77-3.7-2.12-8.98-6.63-1.37-6.77,3.7Z"/>
  <path class="cls-1" d="m14.32,14.74c0-2.66.35-5.41,2.62-7.37,1.97-1.7,4.19-2.73,6.02-1.38,1.58,1.18,2.29,1.88,1.97,4.14-.37,2.66-.31,5.4.63,8.01.19.53.37,1.18-.19,1.51-.46.27-1.02.17-1.52-.29-.46-.42-.8-.84-1.01-1.42-.41-1.16-.62-1.17-1.58-.3-.86.78-1.77,1.4-2.99,1.59-1.9.31-3.24-.47-3.75-2.33-.18-.67-.17-1.34-.21-2.17Zm2.23-1.28c0,.6-.01,1.2,0,1.79.03,1.14.48,2.02,1.63,2.38.97.31,2.13-.3,2.79-1.34,1.38-2.18,1.18-4.65,1.37-7.06.08-.99-.49-1.59-1.25-1.97-.79-.39-1.6-.26-2.36.26-2.15,1.46-2.3,3.66-2.19,5.94Z"/>
  <path class="cls-1" d="m123.77,9.11c-.27-.07-.53-.16-.8-.2-1.49-.23-2.8.32-4.15.83-1.45.55-1.53.43-1.52-1.09.03-2.06.25-4.12-.04-6.19-.08-.57-.23-1.16-.88-.94-.71.23-1.53.53-1.51,1.59.03,1.48-.08,2.96-.12,4.44-.08,2.97-.2,5.97-.69,8.92-.12.72.16,1.02.77,1.22,3.17,1.07,6.21.7,9.08-.93,2.48-1.41,3.58-6.18-.14-7.65Zm-2.04,7.01c-1.21.29-2.43.36-3.68.34-.8-.01-1.09-.33-.95-1.1.31-1.36.17-2.91,1.53-3.84.96-.65,2.02-1.09,3.22-.9,1.12.18,1.84,1.38,1.86,2.97.02,1.09-.88,2.25-1.98,2.53Z"/>
  <path class="cls-1" d="m15.61,1.04c.1.57-.26,1.16-1.02,1.25-1.54.19-3.08.49-4.63.56-.92.05-1.16.38-1.11,1.21.16,2.63.38,5.26.2,7.9-.14,2.03-.51,4.02-1.16,5.96-.4,1.2-1.21,2.07-2.25,2.69-.96.58-1.92.41-2.77-.31-1.5-1.28-1.85-4.09-.72-5.7.14-.2.31-.28.49-.22.36.12.42.46.41.79-.03.98.08,1.91.75,2.69.19.21.35.43.54.64.71.77,1.15.72,1.55-.24.89-2.11,1.27-4.34,1.27-6.63,0-4.8.56-9.22-1.7-8.96-.44.05-4.27-.97-5.02-1.6C.24.91-.09.74.03.41.14.12.47.09.74.04,1.27-.04,1.78,0,2.28.19c3.98,1.5,8.04,1.43,12.14.67.4-.07,1.06-.51,1.19.18Z"/>
  <path class="cls-1" d="m156.5,5.47c.12.85-.57,1.14-1.11,1.35-.6.23-1.17-.14-1.48-.7-.29-.53-.38-1.13-.42-1.73-.02-.33-.09-.68-.44-.78-.35-.1-.46.26-.59.48-1.29,2.06-2.54,4.14-3.85,6.18-1.64,2.54-3.39,5-5.54,7.15-.69.69-1.43.25-2.07-.13-.37-.21.07-.35.18-.51,1.08-1.72,2.71-3,3.76-4.76,1.03-1.75,2.24-3.39,3.25-5.15.66-1.15,1.47-2.16,2.31-3.16.21-.25.47-.55.28-.85-.22-.36-.59-.1-.87,0-.6.2-1.18.48-1.78.68-.53.17-1.07.29-1.64.1-.43-.14-.9-.24-.96-.76-.07-.6.52-.51.84-.65,2.42-1.1,5.07-1.34,7.59-2.06.39-.11.81-.2,1.02.31.67,1.62,1.29,3.25,1.53,5.01Z"/>
  <path class="cls-1" d="m109.03,18.93c-.06.07-1.81,1.91-1.89-.88-.05-1.7-.3-3.4-.12-5.1-.14-.86-.12-1.94-1-2.27s-3.33,2.28-3.53,2.49c-1.41,1.48-1.62,3.28-1.45,5.2.09,1.08-.61,1.35-1.52,1.36-.97,0-1.27-.66-1.19-1.43.23-2.28-.48-4.41-.94-6.57-.08-.35-.18-.7-.32-1.02-.41-.98-.97-1.07-1.84-.4-1.41,1.09-1.97,2.66-2.44,4.27-.37,1.26-.56,2.51-.25,3.87.31,1.4-.52,2.18-1.67,1.96-.61-.12-.75-.48-.84-.99-.38-2.13-.31-5.13-.32-6.47-.01-.95-.07-1.91-.04-2.86.03-1.1,1.17-1.83,2.12-1.37.38.19.31.57.21.95-.14.52-.44,1.26.07,1.52.59.31.93-.46,1.22-.87.76-1.06,1.86-1.58,3.01-2.03,1.26-.49,2.23-.07,2.88,1.2.47.92.92,1.84.88,2.92-.04.81.36.72.86.38.3-.44,1.33-1.4,1.33-1.4,1.27-1.35,2.92-1.99,4.66-2.44.84-.22,1.98.34,2.23,1.41.66,2.82,1.06,5.73-.11,8.57Z"/>
  <path class="cls-1" d="m29.75,14.2c0-1.67,0-3.22-.25-4.77-.22-1.39.24-2.06,1.55-2.51.57-.19.66.12.74.59.13.75-.38,1.84.39,2.17.69.29,1.36-.67,2.06-1.02,1.69-.84,2.78-.74,4.09.6,1.24,1.27,2.84,2.31,3.25,4.18.47,2.14.17,4.19-1.35,5.92-.25.29-.51.5-.93.34-.45-.18-.35-.55-.36-.91-.02-1.12.53-2.15.45-3.31-.11-1.53-.66-2.77-1.86-3.72-.28-.22-.57-.45-.79-.73-1.74-2.18-2.91-1.17-3.94,1.01-.69,1.46-.58,3.13-.9,4.69-.09.44-.26.84-.46,1.22-.33.62-.94.55-1.47.48-.55-.07-.27-.58-.3-.88-.1-1.15-.04-2.31.07-3.35Z"/>
  <path class="cls-1" d="m68.77,18.52c-1.17,0-5.46.55-8.21.35-1.62-.11-2.19-.84-2-2.96.26-2.91.85-10.91.76-12.07-.05-.62.94-1.91,1.53-1.94.73-.04.69.56.73,1,.18,1.56.08,3.11-.04,4.66-.2,2.59-.44,5.17-.65,7.75-.11,1.46.17,1.73,1.67,1.7,1.63-.03,3.27-.08,4.9-.08,2.02,0,3.81,1.59,1.31,1.59Z"/>
</svg>