<?xml version="1.0" encoding="UTF-8"?>
<svg id="Layer_1" data-name="Layer 1" xmlns="http://www.w3.org/2000/svg" viewBox="0 0 523.38 36.72">
  <defs>
    <style>
      .cls-1 {
        fill: #121212;
        stroke-width: 0px;
      }
    </style>
  </defs>
  <path class="cls-1" d="m523.1,21.33c.75,1.28-.23,2.2-.26,3.22-.02.55-.29,1.09-.95,1.05-.59-.04-.9-.57-1.16-1.03-.28-.49-.37-1.17.28-1.35,1.01-.28,1.28-1.36,2.09-1.9Z"/>
  <path class="cls-1" d="m197.08,16.41c-.32,1.43.01,2.91-.42,4.36-.55,1.82-1.72,2.83-3.58,3-2.01.19-4.01,0-5.46-1.57-.55-.59-.95-.48-1.5-.34-.28.07-.56.16-.84.26-2.22.85-3.91.07-5.39-1.64-.98-1.13-1.33-1.11-2.11.12-.55.87-1.12,1.68-1.79,2.47-.81.95-1.95.9-2.95,1.28-.35.13-.74-.07-.99-.35-1.14-1.27-2.55-2.41-2.51-4.34.05-2.49.06-4.98,1.65-7.13,1.13-1.52,2.63-2.32,4.49-2.3,1.12.01,2.15.39,2.74,1.54.25.49.5,1.03,1.17,1.22,1.93.53,2.29.87,2.29,2.83,0,1.3.33,2.44.88,3.57.77,1.57,1.42,1.74,2.84.65,1.34-1.03,2.34-2.39,3.25-3.79,1.08-1.65,2.08-3.35,3.43-4.81.25-.27.47-.57.77-.76,1.72-1.12,3.49-.13,3.85,2.22.18,1.15.13,2.34.19,3.53Zm-24.86,1.56c.01.89-.15,1.92.31,2.89.57,1.2,1.28,1.37,2.13.33,1.8-2.19,2.5-4.72,1.93-7.53-.22-1.06-.92-1.46-1.94-1.14-.76.24-1.36.66-1.73,1.5-.55,1.24-.65,2.52-.7,3.94Zm21.57-4.95c-.7-.13-.9.35-1.11.68-.94,1.47-1.88,2.95-2.75,4.46-1.28,2.22-1.25,2.24,1.19,3.08,1.6.55,2.64.05,2.76-1.58.17-2.22.29-4.45-.1-6.64Z"/>
  <path class="cls-1" d="m13.16,14.87c.58-.26.71-1.2.85-1.8.34-2.13,1.14-4.26,1.01-6.46-.01-1.37-.35-2.92.2-4.2,1.09-1.88,2.72-.95,2.46,1.03-.02,2.8.01,5.63-.73,8.37-.43,1.93-.14,3.98-.38,5.91-.1,1.38-1.11,3.27-2.6,2.12-2.67-2.28-4.86-5.19-6.54-8.26-.65-1.08-1.28-2.26-2.09-3.23-.21-.22-.4-.32-.56-.29-.31.06-.48.6-.57.95-.63,3.04-1.15,6.17-1.53,9.37-.19,1.06-.3,2.36-1.08,3.13-.81.7-1.4-.17-1.54-1.08-.34-2.26.74-4.47.9-6.7.34-3.59,1.29-6.98,1-10.66-.08-1.02.53-3.99,1.86-2.79.45.59.5,1.81.97,2.72,2.28,3.66,4.51,7.43,7,10.94.31.4.8,1.01,1.26.96l.1-.02Z"/>
  <path class="cls-1" d="m227,18.66c-.88,1.93-2.16,2.99-3.65,3.77-2.29,1.21-4.86.07-5.52-2.43-.31-1.18-.73-2.36-.44-3.65.78-3.4,4.23-4.64,6.68-4.35,1.06.13,1.37,1,2.11,1.64.81-1.44.71-2.98.81-4.46.06-.95.11-1.88.41-2.8.21-.64.53-.99,1.17-1.13,1.68-.37,1.78-.5,2.06,1.35.77,5.19.23,10.36-.06,15.54-.02.43-.11.88-.24,1.29-.17.55-.3,1.12-1.11,1.11-.84,0-1.45-.29-1.61-1.14-.13-.71-.13-1.45-.17-2.18-.04-.7.19-1.44-.45-2.56Zm-2.8-1.14c.1-.98.03-1.85-.35-2.66-.46-.98-1.06-1.14-1.9-.55-1.49,1.05-2.07,4.47-1.03,5.98.41.59.93.68,1.51.32,1.18-.73,2.07-1.64,1.77-3.09Z"/>
  <path class="cls-1" d="m56.75,9.39c-.05,3.09-.7,6.05-1.77,8.95-.49,1.33-1.55,2.09-2.45,3.03-.73.76-1.51.32-2.18-.15-1.85-1.3-2.9-3.18-3.62-5.26-.12-.34-.09-.73-.19-1.08-.22-.77-.73-.9-1.25-.28-.7.84-1.3,1.76-1.99,2.6-.7.85-1.41,1.68-2.2,2.44-.84.81-1.39.68-2.17-.21-1.01-1.14-1.07-2.63-1.12-3.94-.09-2.06-.45-4.07-.76-6.08-.15-.98.02-1.55,1.05-1.77,1.08-.24,1.25.63,1.46,1.25.67,1.96.38,4.07.87,6.07.07.28.03.59.07.88.03.29.09.58.46.64.36.06.5-.2.68-.43.54-.69,1.08-1.38,1.64-2.05.52-.61,1.03-1.23,1.61-1.78,1.42-1.35,1.98-1.24,2.99.4.81,1.31,1.35,2.73,1.98,4.12.33.72.55,1.98,1.59,1.87.96-.1,1.11-1.33,1.23-2.09.34-2.31,1.22-4.51,1.27-6.87.03-1.53.64-2.83,1.66-3.95.19-.21.37-.49.72-.33.3.14.4.42.41.72.02,1.1,0,2.2,0,3.3Z"/>
  <path class="cls-1" d="m156.29.97c.43-.01.69.46.49.84-.88,1.71-.59,3.55-1.09,5.22-.55,1.84-.17,3.89-.72,5.96,1.33-.16,2.21-.85,3.19-1.24.84-.33,1.65-.51,2.55-.52,1.41-.02,2.26.59,2.88,1.9.99,2.11.95,4.16-.23,6.08-1.72,2.8-3.98,4.83-7.63,4.47-1.46-.14-3.99-1.35-4.18-2.79-.21-.65-.45-3.32-.29-4.23.8-4.52,1.73-9.02,2.12-13.61.13-1.45.87-2.03,2.92-2.08Zm5.31,15.16c.02-2.2-.41-2.59-2.6-2.32-1.81.23-3.07,1.34-4.09,2.72-.73.99-.35,3.1.6,4.11.6.64,2.22.91,3.1.29,1.64-1.15,3.1-2.51,2.98-4.79Z"/>
  <path class="cls-1" d="m86.5,1.02c.54,2.14-.45,3.88-1.19,5.56-1.92,4.34-3.55,8.79-5.33,13.18-.13.31-.46.64,0,.94.35.24,1.21.25.54.96-.6.64-1.37,1.26-2.32.94-.64-.22-1.36-.6-1.31-1.54.09-1.64.63-3.14,1.33-4.6.16-.33.36-.64.53-.96,1.39-2.67,1.42-2.83-.97-4.6-2.43-1.8-4.25-4.14-6.09-6.48-.48-.61-.55-1.2.03-1.76.59-.57,1.58-.56,2.14.17.83,1.1,1.7,2.17,2.65,3.17.96,1,1.89,2.03,2.88,3,1.02,1,1.36.91,2.08-.28,1-1.64,1.54-3.48,2.13-5.26.49-1.47,1.3-2.15,2.89-2.43Z"/>
  <path class="cls-1" d="m119.98,4.54c.71,0,.85,5.24,1.27,8.01,1.47-.54,2.38-1.56,3.37-2.44.6-.54,1.13-1.14,1.97-1.32.49-.11,1.07-.44,1.41.09.29.46,0,1.02-.32,1.42-.97,1.2-2.2,2.12-3.43,3.03-.75.55-1.58,1.01-2.12,1.93,1.81,1.97,3.98,3.25,7.11,3.53-1.78,1.53-3.42,1.5-5.11,1.03-.7-.19-1.36-.53-2.04-.79-1.01-.39-1.23-.24-1.26.8-.01.65.38,1.27.1,1.94-.24.58-.54,1.02-1.27.99-.66-.03-.98-.28-1.25-.94-1.11-2.71-.3-5.43-.21-8.15.08-2.38.63-4.79-.44-7.11-.31-.67-.18-1.29.72-1.49.48-.11.8-.52,1.52-.52Z"/>
  <path class="cls-1" d="m99.07,13.03c.03,2.85-1.06,5.05-3.74,6.33-.66.31-1.28.7-1.92,1.05-2.73,1.48-4.49.42-5.89-1.74-1.16-1.79-.39-3.52.1-5.22.28-.97.82-1.87,1.32-2.76,1.33-2.37,3.77-3.57,6.42-3.24,1.48.19,2.56.74,3.04,2.37.31,1.06.73,2.06.67,3.2Zm-2.78.72c-.09-.57-.17-1.67-.43-2.72-.37-1.52-1.94-2.14-3.16-1.13-2.1,1.73-3.27,4.02-3.29,6.8,0,.94.51,1.71,1.13,2.28.67.61,1.13-.15,1.61-.56.14-.12.42-.08.63-.12,2.76-.5,3.48-1.33,3.51-4.55Z"/>
  <path class="cls-1" d="m210.43,20.95c-1.21,1.33-2.27,1.86-3.53,2.13-1.37.29-2.24-.85-3.45-1.09-.67-.14-1.13-1.28-1.32-2.15-.53-2.41-.47-4.77.56-7.08,1.37-3.07,4.87-3.37,6.89-2.82,1.43.39,2.91,2.43,2.89,3.8-.02,1.32-1.48,2.56-3.33,2.92-1.16.23-2.31.41-3.49.34-.74-.04-1.05.31-.95,1.08.17,1.37,1.12,2.45,2.49,2.7.5.09,1.02.13,1.53.16.43.03.86,0,1.7,0Zm-3.56-5.41c1.23.01,1.98-.74,2.67-1.62.55-.72-.06-1.26-.34-1.76-.51-.89-1.64-1.09-2.71-.62-.76.34-1.8,2.18-1.57,2.91.3.94,1.14,1,1.95,1.09Z"/>
  <path class="cls-1" d="m22.57,13.09c.12.85.16,1.29.25,1.71.99,4.29,2.86,5.13,7.01,4.15.83-.2,1.6-.61,2.47-.58.09.38-.06.61-.26.84-1.6,1.85-5.32,2.81-7.61,1.99-2.42-.86-3.38-2.84-3.88-5.12-.31-1.44-.16-2.93,0-4.38.25-2.34,3.44-5.27,5.64-4.97,1.36.19,2.21,1,2.67,2.98.26,1.1-.08,1.78-1.36,2.39-1.49.71-2.91,1.74-4.94.99Zm.46-1.3c.91-.28,1.81-.49,2.65-.84.73-.31,1.2-.95.8-1.76-.43-.86-1.29-.72-1.89-.31-.94.65-1.79,1.47-1.56,2.91Z"/>
  <path class="cls-1" d="m107.69,11.89c1.85-2.81,4.35-4.33,8.22-3.71-1.68.97-3.12,1.66-4.21,2.9-2.01,2.28-3.62,4.74-4.08,7.81-.06.43-.04.92-.25,1.28-.29.49-.16,1.4-1.19,1.29-.91-.1-1.59-.49-1.73-1.39-.14-.85-.16-1.7.2-2.57.72-1.73.8-3.55.34-5.38-.17-.67-.62-1.45.46-1.79,1.07-.34,1.66.1,1.82,1.19.02.11.2.19.41.37Z"/>
  <path class="cls-1" d="m244.57,22.9c0,1.96-.52,3.47-1.92,4.67-.52.45-1.04.61-1.6.4-.68-.26-.36-.92-.26-1.34.48-1.96.2-3.94.23-5.91,0-.59-.24-1.51.79-1.46.72.03,1.75-.55,1.98.99.14.93,1.02,1.75.76,2.66Z"/>
  <path class="cls-1" d="m275.8,11.93c.46-2.32.74-4.55,1.45-6.68.86-2.58,2.35-3.74,4.52-4,1.84-.22,3.25,1.54,3.37,2.88.08.87-.08,1.99-.83,2.28-.99.37-.98-.92-1.42-1.48-.31-.4-.39-.97-1.06-1.28-.69.09-.94.8-1.17,1.37-.41,1.04-.73,2.12-.97,3.22-.82,3.76-.65,3.95,3.16,3.53,1.87-.2,3.76-.11,5.58-.89,1.34-.57,2.47.14,3.3,1.35.97,1.42,1.06,1.44,2.13.14,1.17-1.41,2.47-2.64,4.11-3.49.61-.32,1.24-.62,1.89-.82.55-.17,1.28-.39,1.57.34.24.59-.35.86-.79,1.14-2.63,1.67-4.3,4.2-5.9,6.76-.77,1.24-1.46,2.54-2.21,3.8-.32.54-.74,1.01-1.45.78-.61-.2-1.03-.66-1.12-1.31-.07-.51-.02-1.03-.02-1.55,0-.86.1-1.74-.02-2.58-.35-2.34-.97-2.72-3.3-2.1-2.01.53-4.05.86-6.11,1-1.24.09-1.85.6-1.83,1.92.02,2.16-.09,4.31-.15,6.47-.02.6.06,1.24-.1,1.8-.27.92-1.02,1.43-1.95,1.33-.81-.08-1.01-.81-1.07-1.56-.2-2.59-.18-5.19.08-7.76.14-1.39-.13-2.16-1.64-2.2-.97-.03-1.85-.39-2.67-.9-.5-.31-.65-.77-.57-1.33.09-.68.66-.7,1.15-.83,1.34-.33,2.49.57,4.03.63Z"/>
  <path class="cls-1" d="m320.66,16.93c1.13-.51,1.54-1.3,2.13-1.91.8-.83,1.76-1.29,2.89-1.59,1.41-.38,2.34.14,3.09,1.21.29.41.28,1,.82,1.34.99-.39,2.04-.67,3.05-1.2,2.06-1.07,4.3.15,4.55,2.47.24,2.18-.43,4.27-1.05,6.33-.15.51-.58.84-1.04,1.1-.81.45-1.32.19-1.52-.67-.2-.85-.14-1.72.12-2.56.37-1.17.42-2.37.43-3.58,0-.41.03-.89-.44-1.13-.5-.26-.76.16-1.09.41-1.75,1.33-2.87,3.13-3.79,5.07-.34.71-.73,1.36-1.22,1.96-.34.43-.72.74-1.32.57-.64-.19-1.02-.62-1.13-1.27-.11-.7.04-1.35.33-2.01.52-1.19.79-2.47.84-3.77.02-.65.47-1.55-.26-1.89-.93-.43-1.31.64-1.75,1.17-1.16,1.39-2.05,2.96-2.89,4.57-.28.54-.53,1.09-.84,1.6-.45.73-1.13,1.11-1.97.88-.89-.25-1.13-.99-1.07-1.84.06-.86.16-1.72.23-2.58.15-1.88.48-3.78-.78-5.49-.35-.48-.4-1.22,0-1.72.47-.59,1.1-.16,1.66-.01.94.25,1.43.92,1.6,1.84.15.83.27,1.66.43,2.7Z"/>
  <path class="cls-1" d="m306.99,9.12c3.84-.04,7.08,2.84,6.71,6.12-.23,2.09-1,4.17-2.55,5.71-1.55,1.55-3.41,2.5-5.71,2.66-1.33.09-2.13-.39-2.84-1.34-.52-.7-.96-1.47-1.11-2.32-.48-2.7-.19-5.38.97-7.84.88-1.87,2.36-3.2,4.53-3Zm-2.65,7.51c-.03,1.47-.15,2.77.23,4.03.62,2.02,1.63,2.28,3.13.73.83-.86,1.55-1.81,2.14-2.89.73-1.36,1.05-2.73.83-4.22-.2-1.38-1-2.32-2.3-2.86-1.34-.56-2.05.42-2.9,1.1-1.45,1.16-.76,2.86-1.13,4.12Z"/>
  <path class="cls-1" d="m368.75,16.64c-2.72.92-5.45,1.74-8.35.95-.68-.18-1.04.26-1.15.91-.26,1.5-1,2.87-1.14,4.42-.06.65-.33,1.28-.51,1.92-.11.39-.32.69-.78.68-.56-.01-.9-.36-.99-.85-.1-.55-.19-1.15-.08-1.69,1.16-5.49,1.82-11.06,2.57-16.61.12-.9-.15-2.58,1.32-2.41,1.4.16.72,1.7.7,2.61-.04,2.09-.2,4.19-.46,6.27-.17,1.31.36,1.85,1.52,2.26,2.33.83,4.51.38,6.65-.53,1-.43,1.59-1.3,1.72-2.43.11-.95.23-1.89.36-2.84.09-.67.19-1.37.72-1.82.34-.29.86-.58,1.26-.53.51.06.63.64.58,1.15-.16,1.71-.3,3.42-.48,5.12-.34,3.11-1.38,6.15-.9,9.35.09.59-.11,1.15-.83,1.28-.85.16-1.53-.05-1.84-.92-.33-.93-.15-1.88-.05-2.83.12-1.11.61-2.21.16-3.47Z"/>
  <path class="cls-1" d="m409.87,30.8c2.98,1.36,3.27,1.3,5.65-1.12,2.32-2.35,3.14-4.18,3.11-7.03-1.11-.38-1.4.72-2.01,1.17-1.52,1.12-3.09,2.05-4.97,1.04-2.02-1.08-2.08-3-1.83-4.98.44-3.41,3.5-6.5,6.93-6.96,2.35-.32,3.84.62,4.56,2.86,1.72,5.3-.67,13.45-5.02,16.95-.81.65-1.74,1.16-2.66,1.64-1.08.55-2.19.63-3.19-.25-1.09-.95-1.06-2.07-.58-3.32Zm2.17-10.22c0,1.94,1.08,2.65,2.74,1.66,1.85-1.1,3.19-2.7,3.73-4.83.38-1.51-.2-2.1-1.79-2.02-2.55.13-4.69,2.5-4.68,5.18Z"/>
  <path class="cls-1" d="m397.79,14.46c1.21-.65,2.33-1.39,3.55-1.89,2.02-.82,3.56-.01,4.18,2.09.44,1.48.4,3.03.17,4.53-.37,2.44-.87,4.85-1.32,7.28-.13.7-.36,1.32-1.22,1.29-.96-.04-.94-.76-.91-1.44.05-1.32,0-2.64.38-3.95.49-1.73.88-3.51.87-5.33,0-.83-.06-1.81-1-2.2-.92-.38-1.6.2-2.26.8-1.1,1-1.66,2.28-2.07,3.66-.38,1.27-.8,2.53-1.24,3.78-.23.65-.61,1.27-1.41,1.16-1.1-.16-.78-1.11-.88-1.81-.02-.18-.02-.39.04-.57.88-2.68.97-5.39.46-8.15-.1-.54-.12-1.22.57-1.44.85-.28,1.19.3,1.39,1,.05.18.11.37.2.53.14.23.32.44.49.65Z"/>
  <path class="cls-1" d="m388.97,16.59c.24,3.51-1.12,6.04-4.41,7.56-2.33,1.08-4.42.54-5.3-1.91-.9-2.52-1.33-5.11-.22-7.79,1.06-2.55,3.08-4.01,5.7-3.71,2.35.27,4.03,2.25,4.22,5,.02.28,0,.57,0,.86Zm-2.49.71c0-.41.01-.7,0-.98-.12-2.09-.59-2.8-1.93-2.96-1.83-.22-2.68.33-3.39,2.24-.66,1.78-.74,3.37.8,4.93,1.46,1.48,3.05,1.51,3.93-.32.46-.95.53-2,.59-2.91Z"/>
  <path class="cls-1" d="m503.71,23.23c-.92-.15-1.57.16-2.19.42-.54.23-1.07.34-1.64.39-3.05.23-4.17-1.47-3.36-4.19.85-2.84,2.17-5.36,4.2-7.51,1.5-1.58,3.4-1.95,5.44-1.72,1.08.12,1.98,1.41,2.01,2.9.02,1.21.16,2.39.3,3.59.21,1.88-.6,3.64-1.14,5.34-1.15,3.6-2.24,7.26-4.03,10.63-.57,1.06-1.22,2.1-2.25,2.78-2.38,1.57-5.21.98-7.1-1.54,1.2-.47,2.4-.22,3.56-.2,1.28.02,2.12-.42,2.74-1.57,1.59-2.91,2.75-5.96,3.45-9.32Zm.38-10.44c-.75,0-1.27.29-1.73.97-1.31,1.93-2.36,3.98-3.01,6.22-.13.45-.43.95.06,1.36.42.35.91.33,1.4.15.26-.1.55-.14.79-.27,2.42-1.25,3.2-3.66,4.02-5.94.42-1.19-.59-2.49-1.53-2.48Z"/>
  <path class="cls-1" d="m445.98,15.95c2.03,1.39,3.65,2.47,5.6,2.92,1.16.27,2.34.51,3.51.71.66.11,1.24.28,1.59.93-.4.96-1.27.92-2.1,1.02-3.2.38-6.16-.31-8.96-1.87-1.51-.84-1.71-.71-1.94,1.02-.18,1.41-.45,2.78-.86,4.14-.21.71-.28,1.46-1.16,1.56-.56.06-1.53-1.4-1.38-2.13.44-2.09.19-4.27.83-6.32.99-3.22,1.03-6.56,1.4-9.86.19-1.67,1.12-2.48,2.68-2.21.6.1.94.38.72,1-.7,1.94-.24,4.1-1.21,5.99-.2.39-.26.87.05,1.2.41.44.74-.01,1.08-.22,1.86-1.14,3.69-2.33,5.58-3.41.96-.55,1.63-1.33,2.22-2.23.08-.12.1-.27.17-.39.58-.97,1.95-1.92,2.26-1.56.73.84.36,1.75-.16,2.54-1.25,1.9-2.84,3.54-4.79,4.65-1.51.86-2.91,1.96-5.13,2.53Z"/>
  <path class="cls-1" d="m473.74,16.08c0,2.04-.45,3.53-1.91,4.62-1.65,1.23-3.45,2.16-5.41,2.67-1.29.34-2.26-.16-3.37-1.27-2.23-2.21-1.62-4.66-1.42-7.14.06-.75.43-1.49.7-2.22,1.42-3.9,6.63-5.31,9.9-1.94,1.43,1.48,1.35,3.67,1.51,5.29Zm-2.93.29c.17-1.22-.12-2.57-.97-3.78-.85-1.2-3.19-1.61-3.91-.61-1.59,2.22-2.05,4.75-1.72,7.43.11.9.63,1.4,1.63,1.14.82-.21,1.65-.36,2.46-.59,2.28-.65,2.55-1.04,2.51-3.6Z"/>
  <path class="cls-1" d="m493.18,16.87c-.99,2.22-.4,4.79-1.63,6.96-.14.25-.15.65-.35.76-.63.36-.93,1.54-1.87,1.02-.76-.41-.32-1.22-.25-1.91.24-2.28.88-4.48,1.36-6.7.15-.7-.11-1.21-.56-1.73-.47-.54-.96-.6-1.48-.22-1.71,1.26-3.22,2.7-4.06,4.71-.41.99-.9,1.91-1.58,2.74-.79.96-1.81,1.45-2.29,1.05-.47-.38-.67-1.97-.39-2.68.39-.99,1.17-1.77,1.44-2.83.33-1.26,0-2.08-1.22-2.58-.19-.08-.43-.07-.61-.17-.9-.49-.91-1.11-.05-1.68,1.52-1,2.4-.85,3.54.6.86,1.1.97,1.11,2.22.32,1.56-.99,3.1-1.99,5.09-1.82,1,.09,1.78.32,1.99,1.48.16.89.83,1.67.71,2.68Z"/>
</svg>