<?xml version="1.0" encoding="utf-8"?>
<!-- Generator: Adobe Illustrator 28.0.0, SVG Export Plug-In . SVG Version: 6.00 Build 0)  -->
<svg version="1.1" id="Layer_1" xmlns="http://www.w3.org/2000/svg" xmlns:xlink="http://www.w3.org/1999/xlink" x="0px" y="0px"
	 viewBox="0 0 181.4 43.3" style="enable-background:new 0 0 181.4 43.3;" xml:space="preserve">
<style type="text/css">
	.st0{fill:#121212;}
</style>
<path class="st0" d="M52.2,27c1.1-0.3,1.9,0.4,2.8,0.6c1.9,0.3,3.8,0.7,5.7,0.9c8,0.8,15.9,1.1,23.9,1.4c8.8,0.3,17.7,0.6,26.5,1.4
	c5.8,0.5,11.6,0.8,17.4,1.4c4.3,0.5,8.5,1.2,12.8,1.9c0.3,0,0.6,0.2,0.9,0.4c0.3,0.2,0.5,0.4,0.3,0.8c-0.1,0.3-0.3,0.3-0.6,0.3
	c-0.8,0-1.6,0.1-2.4-0.1c-7-2.1-14.2-2.1-21.4-2.7c-6.6-0.6-13.2-1.1-19.8-1.3c-6.8-0.2-13.6-0.5-20.3-0.9
	c-6.8-0.3-13.7-0.6-20.5-1.7c-1.7-0.3-3.2-0.8-4.8-1.4C52.4,27.8,52.2,27.6,52.2,27L52.2,27z"/>
<path class="st0" d="M128.2,20.4c-0.1,0.8-0.8,1.1-1.4,1.5c-3,2.1-4.5,1.5-4.9-2c-0.5-0.4-0.9,0-1.2,0.3c-1.2,0.9-2.3,1.8-3.5,2.5
	c-2.3,1.6-3.3,1.2-4-1.5c-0.7-0.3-1.2,0.4-1.8,0.5c-1.4,0.4-2.3-0.5-2.2-1.9c0.3-2.7,3.8-6.2,6.4-6.4c0.6-0.1,1.2,0.1,1.6,0.5
	c0.5,0.6-0.4,0.8-0.4,1.1c-0.1,1.6-1,2.8-1.5,4.3c-0.3,0.8-0.7,1.6,0,2.7c2.4-1.4,4.7-2.9,7-4.6c0.6-0.4,1.1-0.9,1.7-1.3
	c0.4-0.3,0.9-0.4,1.3-0.1c0.5,0.4,0.2,0.8,0,1.3c-0.7,1.1-1.8,2.1-1.2,3.8C125.5,21.3,126.8,20.9,128.2,20.4L128.2,20.4z M114.1,16
	c-0.9,1.3-2.9,1.8-3.1,4.3C112.6,18.9,114,18,114.1,16z"/>
<path class="st0" d="M42.1,17.3c-1.6,1.5-3.3,2.4-5.6,2c-1.2-0.2-1.7-0.7-1.7-1.8c0-0.6,0.2-1.3,0.5-1.8c1.3-1.9,2.8-3.7,4.9-4.8
	c1.4-0.8,2.8-0.7,4.1,0.1c1.3,0.7,1.7,1.5,1.2,3c-1.2,3.9-1.9,7.9-3.7,11.6c-0.2,0.4-0.3,0.8-0.7,0.9c-0.3,0.1-0.7,0.1-0.9,0
	c-0.3-0.1-0.4-0.5-0.3-0.8c0.1-0.5,0.2-1,0.5-1.4c1.2-1.9,1.5-4.2,2.2-6.3c0.1-0.3,0.2-0.6,0-0.8C42.5,17,42.3,17.2,42.1,17.3
	L42.1,17.3z M43.8,12.8c0-1-0.9-1.6-1.9-1.1c-0.8,0.4-1.6,1-2.4,1.5c-1.2,0.8-1.9,2.1-2.8,3.2c-0.4,0.4-0.5,1.1-0.2,1.6
	c0.4,0.6,1.1,0.2,1.7,0.1c0.1,0,0.1-0.1,0.2-0.1c1.9-1,3.3-2.7,4.9-4C43.8,13.6,43.9,13.2,43.8,12.8z"/>
<path class="st0" d="M108.6,10.1c-1.6-1.2-1.8-1.2-2.7,0.2c-0.5,0.9-1,1.8-1.1,3c1.8,0.4,3.7-0.2,5.7,0.3c-1.6,1.3-3.3,1.4-4.9,1.7
	c-1,0.2-1.4,0.3-1.8,1.4c-0.6,1.9-1,3.9-2,5.6c-0.4,0.7-0.6,1.7-1.7,1.1c-1-0.5-0.7-1.4-0.2-2c1.3-1.8,1.5-4,2.3-5.9
	c-0.8-0.8-1.8-0.3-2.6-0.5c-0.6-0.1-1.3-0.2-1.8-0.4c-0.4-0.1-0.6-0.5-0.4-1c0.1-0.3,0.4-0.5,0.8-0.5c1,0.1,1.9,0.1,2.9,0.2
	c1.3,0.2,2.1-0.3,2.4-1.6c0.3-1.1,0.7-2.1,1.3-3c0.5-0.7,0.9-1.6,2-1.3c1,0.2,1.8,0.7,2,1.8C108.8,9.4,109,9.7,108.6,10.1
	L108.6,10.1z"/>
<path class="st0" d="M58,17.6c0.7,0.4,1.1-0.2,1.6,0c-0.4,0.9-1,1.3-1.8,1.5c-0.8,0.3-1.6,0.2-1.6-1c0-0.5,0.1-1-0.6-1.1
	c-0.6-0.1-0.8,0.4-1.1,0.8c-1.1,1.2-2.4,2.1-4.1,2.1c-1.5,0-1.9-0.4-1.7-1.8c0.3-2,0.7-3.9,1.2-5.8c0.1-0.5,0.2-1.1,0.8-0.9
	c0.6,0.2,1.2,0.6,1,1.4c-0.3,1.2-0.6,2.5-0.9,3.7c-0.1,0.4-0.3,1,0.2,1.3c0.5,0.3,0.9-0.1,1.2-0.5c1.1-1,2.1-2.1,3.2-3.2
	c0.3-0.3,0.6-0.6,0.8-0.9c0.5-0.6,1.1-1,1.8-0.6c0.7,0.4,0.6,1.1,0.4,1.7C58.2,15.3,58.2,16.4,58,17.6L58,17.6z"/>
<path class="st0" d="M82.2,13.7c1.1-0.3,1.9-1,3-0.8c0.4,0.1,0.8,0.2,0.9,0.7c0.1,0.5-0.3,0.6-0.7,0.8c-0.6,0.2-1.2,0.4-1.8,0.7
	c-0.5,0.2-0.9,0.6-0.9,1.3c0,0.8,0.6,1.2,1.2,1.3c1.2,0.2,2.5,0.2,3.8,0.3c0.4,0,0.8-0.1,1.7-0.1c-1.4,1.3-2.7,1.5-4.1,1.5
	c-1.5,0-2.8-0.4-4.1-1.4c-0.3,1.2-0.7,2.3-0.9,3.4c-0.1,0.9-0.3,1.4-1.3,1.2c-0.9-0.2-0.8-1-0.6-1.6c0.9-2.9,1.2-5.9,2.1-8.8
	c0.3-1.1,0-2.4,0.9-3.6C83.8,10,81.8,12,82.2,13.7L82.2,13.7z"/>
<path class="st0" d="M133.5,10.7c1.7,1.3,1.7,3.8,4.1,3.5c-0.2,0.3-0.3,0.6-0.3,0.6c-2.3,0.2-2.3,0.2-3,2.4
	c-0.4,1.4-0.7,2.9-1.4,4.3c-0.2,0.5-0.5,0.8-1.1,0.6c-0.6-0.2-0.3-0.6-0.3-1c0.1-2.1,0.9-4,1.6-6c-1-0.3-1.8-0.4-2.5,0.4
	c-0.4,0.4-0.9,0.1-1.2-0.3c-0.3-0.4-0.2-0.9,0.1-1.3c0.6-0.7,1.4-0.7,2.2-0.7C133.6,13.2,133.6,13.2,133.5,10.7L133.5,10.7z"/>
<path class="st0" d="M78.3,16c-1,2.5-2.8,4.1-5.5,4.2c-2.7,0.2-4-1.2-3.7-3.9c0.2-2.1,2.7-4.4,4.7-4.3c0.5,0,1,0,1.3,0.3
	c0.2,0.1,0.3,0.4,0.3,0.6c0,0.3-0.2,0.4-0.5,0.4c-1.1,0-2,0.2-2.9,0.9c-0.7,0.5-1.2,1.1-1.3,1.9c-0.4,2,0.6,2.9,2.5,2.5
	C75.2,18.2,76.7,17,78.3,16L78.3,16z"/>
<path class="st0" d="M146.6,13.2c-0.2,0.6-0.6,0.8-1.2,1.1c-2,0.7-3.2,2.5-2.6,4.4c0.5,1.5,0.1,2.7-0.9,3.6
	c-0.6,0.6-3.1-0.3-3.9-1.2c-0.8-0.9-0.9-1.8,0.1-2.7c1,0.6,1.3,2.1,2.9,2.1c0.6-0.6,0.1-1.3,0.1-1.9c0.1-2.3,0.4-4.5,2.8-5.6
	C145,12.5,145,12.5,146.6,13.2L146.6,13.2z"/>
<path class="st0" d="M64.7,14.6c-0.1,1.6-0.4,2.8-1,4c-0.2,0.5-0.8,0.8-1.4,0.6c-0.6-0.3-0.4-0.9-0.2-1.2c0.5-1.2,0.8-2.4,0.9-3.7
	c0-0.6,0.1-1.2,0.9-1.1c0.7,0.1,0.7,0.7,0.8,1.3C64.7,14.6,64.7,14.8,64.7,14.6L64.7,14.6z"/>
<path class="st0" d="M67.6,8.4c-0.6,0.6-1,1.2-1.8,0.9c-0.5-0.3-0.3-0.9,0-1.2C66.5,7.3,66.9,8.2,67.6,8.4z"/>
</svg>
