<?xml version="1.0" encoding="UTF-8"?>
<svg id="Layer_1" data-name="Layer 1" xmlns="http://www.w3.org/2000/svg" viewBox="0 0 982.88 39.28">
  <defs>
    <style>
      .cls-1 {
        fill: #121212;
        stroke-width: 0px;
      }
    </style>
  </defs>
  <path class="cls-1" d="m123.02,6.78c2.82-.07,5.58.31,8.06,1.72,2.84,1.62,3.15,3.79.9,6.17-2,2.12-4.61,3.32-7.45,3.27-1.79-.03-1.83.55-1.83,1.93,0,1.88-.1,3.78-.58,5.62-.16.6-.36,1.2-.61,1.78-.19.45-.61.67-1.09.65-.6-.03-1.02-.41-1.14-.97-.11-.52-.16-1.08-.07-1.6.45-2.85.43-5.74.75-8.6.25-2.2.15-4.3-.47-6.4-.15-.51-.18-1.06-.26-1.59-.18-1.25.43-1.87,1.62-1.96.71-.06,1.43-.01,2.14-.01Zm2.32,8.68c1.69-.33,3.55-.91,4.9-2.53.65-.77.61-1.44-.32-1.99-1.97-1.16-4.17-1.61-6.36-2.08-.62-.13-1.1.18-1.01.87.12.92-.4,2.02.71,2.69.34.2.52.46.21.85-.43.53-.63,1.19-.21,1.73.41.53,1.17.34,2.08.46Z"/>
  <path class="cls-1" d="m17.55,11.9c-1.06.98-2.14,1.37-3.26,1.52-1.26.17-1.4.85-1.24,1.89.22,1.43.36,2.86.56,4.29.07.52.38,1.02-.02,1.55-.43.56-.88.99-1.5.28-.73-.83-1.27-1.75-1.21-2.92.03-.63.03-1.27-.03-1.89-.15-1.72-.35-1.87-1.98-1.63-.71.1-1.42.27-2.13.29-2.7.08-2.7.07-3.6,2.73-.29.85-.55,1.71-.89,2.55-.25.62-.73,1.13-1.45.94-.91-.24-.83-1.05-.76-1.78.02-.18.1-.35.16-.52,1.82-4.9,3.16-9.95,4.61-14.97.28-.96.86-1.61,1.85-1.74.98-.13,1.48.65,1.84,1.35,1.02,2.03,1.98,4.09,2.9,6.17.91,2.07.88,2.07,3.04,1.8.96-.12,1.93-.3,3.12.07Zm-7.43.77c-.9-2.14-1.19-4.39-2.78-6.07-.68.38-.81,1.02-1.04,1.58-.55,1.37-1.94,3.01-.92,4.17.99,1.12,2.97.54,4.74.32Z"/>
  <path class="cls-1" d="m84.91,20.29c-2.78,1.8-3.13,1.71-5.04-.84-1.54,1.08-3.1,2.15-5.03,2.45-2.14.34-3.33-.12-4.17-2.04-1.59-3.65-1.14-7.23.8-10.62.78-1.36,2.1-2.22,3.65-2.6,2.3-.57,3.96.24,4.61,2.51.26.89.57,1.65,1.38,1.7,1.46.09,1.4.83,1.37,1.95-.05,1.71-.61,3.36-.38,5.1.19,1.37.53,2.51,2.81,2.38Zm-5.84-5.68c.12-1.33-.63-2.6-1.18-3.91-.34-.8-.53-1.77-1.67-1.87-1.24-.11-2.11.57-2.61,1.55-1.22,2.39-1.55,4.96-.91,7.56.38,1.55,1.59,2.05,3.1,1.52,2.19-.76,3.3-2.35,3.28-4.85Z"/>
  <path class="cls-1" d="m64.54,19.62c-1.83,2.01-3.82,2.66-6.03,2.28-2.23-.39-3.21-2.19-3.62-4.23-.74-3.65.11-7.18,1.18-10.62.58-1.87,2.48-2.45,4.12-1.44,2.34,1.44,3.96,3.41,3.91,6.34-.03,2-.49,2.55-2.41,2.96-.61.13-1.25.11-1.87.15-.82.05-1.83-.7-2.39.45-.46.95.17,2.97,1.05,3.67,1.05.85,2.2,1.15,3.53.75.67-.2,1.34-.55,2.53-.3Zm-4.24-6.56c1.27-.03,1.67-.46,1.37-1.64-.2-.77-.6-1.5-.93-2.23-.42-.92-.92-2.02-2.04-1.83-1.06.18-.84,1.46-.99,2.28-.47,2.61.23,3.48,2.6,3.43Z"/>
  <path class="cls-1" d="m201.76,12.98c.99-.67,1.81-1.78,3.22-2.06,2.11-.42,3.31.26,3.7,2.36.48,2.59.32,5.21.29,7.81,0,.35-.11.71-.21,1.06-.25.8-.77,1.22-1.62,1.01-.75-.19-1.23-.57-1.19-1.51.09-2.34.08-4.69.07-7.03,0-.51.06-1.16-.65-1.29-.58-.11-1.03.2-1.36.68-1.18,1.68-1.62,3.6-1.82,5.59-.1,1.01-.28,1.97-1.03,2.72-.64.64-1.23.61-1.79-.13-.79-1.04-.84-2.24-.44-3.35.78-2.11.87-4.13,0-6.24-.21-.51-.87-1.44.15-1.87.97-.41,1.44.37,1.86,1.11.21.37.13.92.84,1.14Z"/>
  <path class="cls-1" d="m151.47,16.85c-2.11,2.24-4.58,3.86-7.39,4.88-1.93.7-3.35-.04-4.15-1.94-.5-1.18-.64-2.43-.54-3.72.1-1.37,0-2.64-1.12-3.73-.78-.76-.81-1.65.62-1.87.78-.12.83-.86,1.19-1.35,1.05-1.44,2.37-2.48,4.26-2.51.55,0,1.08.08,1.16.82.25,2.24-.08,4.95-1.93,5.79-.99.45-1.34,1.04-1.39,2.05-.06,1.37-.13,2.74.58,3.95.38.64,1.11.46,1.73.28,1.39-.41,2.71-.98,3.98-1.68.92-.51,1.81-1.16,3-.98Zm-8.5-7.42c-.47.35-.7.81-.64,1.36.02.2.31.27.45.11.38-.43.52-.92.19-1.47Z"/>
  <path class="cls-1" d="m40.71,11.25c2.01-4.9,3.11-5.29,7.49-2.67-.47.95-1.2.5-1.83.31-1.3-.4-2.06.1-2.47,1.33-.95,2.89-2.14,5.72-2.08,8.86.02,1.05.14,2.51-1.23,2.6-1.56.1-1.22-1.53-1.37-2.48-.6-3.81-.65-7.71-1.84-11.43-.21-.65-.13-1.29.63-1.55.84-.29,1.29.12,1.65.9.62,1.32.96,2.69,1.05,4.12Z"/>
  <path class="cls-1" d="m94.6,13.18c.15,2.61.3,5.22.47,7.83.03.4-.02.72-.37.92-.45.25-.97.17-1.26-.16-.79-.9-1.21-1.98-1.3-3.2-.21-3.06-.56-6.11-.43-9.19.08-1.8-.07-3.61-.18-5.41-.06-.95.2-1.57,1.22-1.75,1.26-.22,1.3.76,1.43,1.5.17.97.21,1.97.23,2.96.03,2.17,0,4.33,0,6.5.06,0,.13,0,.19,0Z"/>
  <path class="cls-1" d="m540.51,13.58c2.62-.3,4.4-1.62,6.33-2.58.85-.42,1.94-1.27,2.59-.18.59.99-.41,1.78-1.28,2.38-1.31.9-2.96,1.22-4.22,2.46,1.94,2.69,4.84,2.74,7.83,2.75-2.56,2.99-5.9,3.36-8.68,1.11-.38-.31-.66-.75-1.03-1.08-.42-.39-.84-.94-1.53-.63-.53.24-.49.8-.55,1.29-.16,1.37-.2,3.34-1.93,3.07-1.26-.19-.94-2.2-.84-3.44.45-5.18,1.01-10.34,1.47-15.52.1-1.1.58-1.72,1.65-1.69,1.28.04,1.3,1.12,1.24,1.97-.17,2.29-.47,4.57-.71,6.86-.11.98-.21,1.95-.35,3.22Z"/>
  <path class="cls-1" d="m560.44,19.6c-.23-1.77-1.21-2.83-1.83-4.05-.84-1.67-1.13-3.4-.79-5.23.26-1.4,1.24-1.97,2.52-2.19,1.41-.24,2.82-.35,3.93.78.45.45.44,1.16.19,1.71-.36.79-.93.42-1.48.14-.83-.43-1.69-.51-2.65-.03.07,1.65.78,3.06,1.5,4.47.18.35.48.65.66,1,.83,1.68,1.33,3.45.11,5.1-1.27,1.71-3.22,1.55-4.96,1.09-1.82-.48-3.16-1.7-3.46-3.73-.06-.39-.1-.8-.03-1.18.09-.51.38-.95.95-1.02.46-.06.66.24.85.64.8,1.77,2.35,2.28,4.49,2.51Z"/>
  <path class="cls-1" d="m526.36,10.54c2.45-.96,4.51-2.29,7-2.14.61.04,1.28.08,1.43.8.17.87-.09,1.76-1.13,1.69-4.82-.3-6.1,3.15-7.26,6.74-.39,1.22-.35,2.59-1.35,3.58-.42.41-.75.99-1.47.71-.54-.21-.63-.72-.71-1.22-.17-1-.23-2.03.08-2.97.83-2.54.66-5.12.5-7.71-.04-.69-.06-1.4,0-2.09.06-.74.68-.9,1.28-1.01.71-.13,1.19.22,1.33.87.16.76.18,1.55.31,2.74Z"/>
  <path class="cls-1" d="m270.21,10.93c0-1.47-.02-2.85,0-4.23.02-.76,0-1.59,1.15-1.58,1.01,0,1.34.29,1.37,1.61.03,1.59.14,3.2-.29,4.96,2.45.28,4.78.11,7.1.09.78,0,.79-.7.88-1.2.29-1.58.16-3.19.22-4.79.02-.51-.2-1.18.69-1.23.79-.04,1.36.19,1.51,1.07.33,2,.46,4,.14,6.01-.27,1.7-.52,3.41-.8,5.29,1.26.06,1.98-.84,2.91-1.14,1.55-.51,3.18-1.21,4.55-.1,1.4,1.14,1.23,2.94.99,4.64-.17,1.19-.97,2.14-1.04,3.36-.02.36-.34.58-.75.57-.52-.02-.78-.32-.77-.79.01-1.39.1-2.78.1-4.17,0-2.45-.24-2.6-2.44-1.55-1.39.67-2.49,1.71-3.47,2.88-.31.37-.56.8-.91,1.14-.42.41-.99.56-1.55.36-.6-.21-.52-.78-.47-1.25.18-1.86.4-3.71.62-5.57.03-.27.18-.53.21-.8.12-1.08-.16-1.34-1.25-1.15-1.3.22-2.59.7-3.88.68-2.31-.04-3.28.77-3.33,3.2-.03,1.35-.06,2.76-.23,4.13-.16,1.32-.32,1.46-1.54,1.35-.64-.06-1.02-.27-1-1.01.08-2.06-.34-4.14.34-6.19.41-1.24.17-1.47-1.08-2.1-.42-.21-.84-.51-1.15-.86-.59-.67-.23-1.54.67-1.67.41-.06.83.03,1.25.05.34,0,.68,0,1.25,0Z"/>
  <path class="cls-1" d="m318.63,2.42c-.61.27-1.05.74-1.11,1.22-.27,1.98-1.05,3.89-.91,5.94.05.67.25,1,.98,1.01,1.74,0,3.47.08,5.21.12.9.02,1.81-.06,2.78.3.34-1.84.18-3.61.07-5.38-.03-.53-.2-1.1.46-1.46.93-.5,1.85-.16,2.01.91.26,1.72.32,3.47.18,5.2-.22,2.76-.11,5.54-.72,8.26-.07.31.12.67.17,1.01.17,1.13-.21,1.85-.98,1.91-.83.06-1.49-.55-1.5-1.58,0-2.08-.1-4.17.22-6.24.12-.74.29-1.48.09-2.3-2.86,1.1-5.68,2.16-8.9,1.63,0,2.55-.04,5.04.02,7.52.02.91-.03,1.8-.07,2.7-.03.57-.23.92-.87.9-.61-.02-1.22-.18-1.21-.86.03-1.4-.55-2.7-.52-4.11.06-2.21.12-4.44-.19-6.62-.68-.16-1.31-.24-1.87-.46-.64-.26-.95-.82-.83-1.52.14-.74.78-.8,1.31-.68,1.34.31,1.68-.42,1.81-1.52.11-.96.27-1.91.39-2.87.18-1.49.9-2.72,1.69-3.96.73-1.15,1.76-1.5,2.99-1.47,2.25.05,2.63,1.87,1.98,3.57-.28.75-1.8.67-2.2-.1-.15-.29-.06-.69-.5-1.05Z"/>
  <path class="cls-1" d="m236.76,19.3c1.16-1.07,1.7-2.68,2.78-3.87.47-.51.91-1.05,1.45-1.48,1.38-1.08,3.28-.8,4.25.64.42.63.73,1.33,1.11,2,.37.65.75,1.29,1.36,2.32.43-2.2.8-4.04,1.15-5.88.3-1.56.51-3.15,2.03-4.11.23-.15.44-.37.73-.19.28.18.27.45.18.73-.84,2.8-.76,5.73-1.25,8.58-.25,1.43-.52,2.85-.93,4.24-.21.72-.66,1.21-1.45,1.3-.84.09-.99-.59-1.29-1.12-1.04-1.87-2.09-3.73-3.11-5.61-.65-1.19-1.68-1.31-2.27-.06-.75,1.59-1.95,2.84-2.84,4.31-.64,1.06-1.53,2.4-2.74,2.2-1.06-.18-1.33-1.72-1.71-2.83-.39-1.15-.41-2.32-.48-3.49-.12-1.94-.19-3.88-.27-5.83-.02-.55-.06-1.13.04-1.66.14-.74.81-.91,1.44-.95.59-.04.85.45.99.91.11.39.09.83.06,1.24-.13,2.65.3,5.27.3,7.91,0,.26-.02.57.47.72Z"/>
  <path class="cls-1" d="m365.89,13.03c0-.84-.02-1.54,0-2.24.05-1.48.37-2,1.22-2.05.99-.05,1.52.48,1.78,1.9.41,2.22.24,4.38-.47,6.56-.48,1.48-1.33,2.58-2.47,3.5-1.48,1.21-2.29.93-3.1-.83-.32-.71-.43-1.46-.7-2.17-.23-.62-.2-1.56-.97-1.65-.74-.09-1.03.8-1.43,1.32-.34.43-.55.96-.84,1.43-.52.82-1.1,1.6-1.57,2.44-.38.68-.94.73-1.6.66-.8-.08-1.01-.72-1.1-1.32-.49-3.29-.93-6.58-1.03-9.9-.02-.82.25-1.32,1.18-1.35.91-.03.93.51,1,1.2.17,1.86.43,3.71.65,5.57.04.34.04.73.5.76.32.02.44-.25.58-.5.48-.84.99-1.65,1.62-2.39.47-.55,1-.93,1.68-1.12,1.24-.35,1.99.1,2.61,1.29.43.83.47,1.73.68,2.6.12.5.25.97.87.99.63.01.47-.58.6-.92.48-1.27.25-2.62.3-3.78Z"/>
  <path class="cls-1" d="m344.28,17.75c-.9,1.14-1.88,2.09-3.05,2.82-1.58.98-3.21.63-4.77.1-1.1-.38-1.5-1.44-1.46-2.53.12-3.48,1.15-6.69,3.3-9.43,1.27-1.61,4.72-1.66,6.27-.28.86.77,1.53,1.71,2.55,2.36.79.5.62,1.65.61,2.53,0,1.25-.12,2.51-.35,3.73-.14.78-.2,1.53.13,2.23.34.72.52,1.35-.36,1.71-.82.34-1.95-.25-2.19-1.07-.1-.33-.1-.69-.13-1.03-.04-.34.02-.71-.55-1.13Zm-6.77-1.23c-.02.85-.08,1.72.85,2.18.93.46,1.77.13,2.47-.5.51-.45,1.24-.96,1.34-1.53.21-1.2.91-2.15,1.27-3.26.4-1.21-.14-2.67-1.3-3.31-.88-.49-2.1-.1-2.83.97-1.13,1.64-1.57,3.51-1.8,5.45Z"/>
  <path class="cls-1" d="m376.72,16.4c.06,1.2.16,2.15.7,3,.28.45.59.83,1.12.76.6-.08.66-.62.68-1.12.06-1.47-.02-2.9-.84-4.21-.56-.89-.96-1.83-.82-2.94.14-1.19.72-1.89,1.91-2.07.4-.06.84-.09,1.24,0,.69.14,1.63-.26,1.93.8.29,1.04,0,2.07-.83,2.59-.99.62-.95,1.1-.66,2.15.44,1.6,1.04,3.29.24,5.01-.33.7-.67,1.32-1.38,1.74-1.22.73-3.02.83-3.93.12-.86-.67-1.4-2.69-.87-3.85.3-.66.54-1.45,1.52-1.97Z"/>
  <path class="cls-1" d="m258.46,16.56c0-.81-.01-1.62,0-2.43.02-1.34.18-1.46,1.45-1.58.51-.05.73.15.74.57.05,2.18.11,4.37-.41,6.51-.06.24-.21.45-.3.68-.21.55-.7.45-1.12.44-.52,0-.55-.48-.57-.82-.04-1.12-.01-2.24-.01-3.37.07,0,.14,0,.22,0Z"/>
  <path class="cls-1" d="m259.58,10.52c-.65-.54-1.15-.99-1.69-1.4-.45-.34-.33-.76-.24-1.18.09-.39.44-.37.74-.43.48-.08.91.01,1.1.48.3.74.58,1.51.08,2.53Z"/>
  <path class="cls-1" d="m777.84,35.51c1.4,1.41,2.76,1.95,3.74,1.29.8-.54,1.6-1.22,2.08-2.03.96-1.61,1.6-3.39,2.01-5.25.22-1.03-.29-1.4-1.03-1.95-.79-.59-1.51-.9-2.21-.24-1.06,1-2.31.88-3.58,1-3.24.3-6.04-3.01-4.37-6.34.92-1.83,1.89-3.59,3.32-5.07,1.47-1.52,3.35-1.97,5.37-1.86.91.05,2.01.29,2.38,1.12.92,2.04,2.78,3.54,3.26,5.83.09.44.25.87.23,1.32-.13,3.4-.38,6.79-1.49,10.04-1.16,3.4-4.66,5.91-7.31,5.9-1.31,0-2.73-.85-3.28-2.01-.46-.99.26-1.32.87-1.75Zm1.35-9.08c1.6,0,2.5-1.24,3.56-2.12,1.92-1.6,2.15-4.21.67-6.24-.79-1.07-1.83-1.4-2.92-.68-2.18,1.45-3.36,3.64-3.76,6.15-.26,1.64.96,2.89,2.44,2.89Z"/>
  <path class="cls-1" d="m840.9,20.54c1.26-2.83,1.51-5.6,2.02-8.29.2-1.04.31-2.08.59-3.11.24-.87.64-1.22,1.6-1.14,1.67.13,1.67.12,1.71,1.85.07,2.7-.74,5.23-1.43,7.76-1.07,3.94-2.17,7.84-1.6,11.99.06.46.17.95-.42,1.12-.51.14-1.06.17-1.5-.23-.64-.56-1.04-1.27-1.36-2.05-.61-1.52-.65-1.53-1.97-.72-1.66,1-3.43,1.45-5.38,1.24-1.99-.21-3.15-1.48-3.01-3.46.2-3.07,1.24-5.73,4.04-7.35,2.59-1.5,4.42-.98,5.99,1.61.11.19.3.33.72.79Zm-5.71,6.54c1.09.09,2.03-.49,3.06-.71.5-.1.8-.5.72-1.01-.27-1.78-.53-3.59-1.51-5.15-.4-.64-.94-.89-1.87-.35-1.74,1.01-2.07,2.71-2.58,4.32-.59,1.9.22,2.89,2.18,2.89Z"/>
  <path class="cls-1" d="m740.81,23.9c-1.21,1.34-2.25,2.52-3.31,3.68-.83.91-1.85,1.97-3.06,1.4-1.06-.5-1.02-1.95-.89-3.07.27-2.38.16-4.59-1.33-6.67-.72-1.01-.03-1.89,1.23-1.88,1.41.02,2.36.85,2.55,2.38.1.82.04,1.66.05,2.5,0,.82.03,1.64.68,2.37.9-.35,1.46-1.06,1.99-1.75.51-.67,1.11-.9,1.92-.99,2.35-.26,2.54-.15,3.32,2.25.22.69.56,1.35.84,2.02.86-.16,1.21-.8,1.48-1.37,1.01-2.18,2.16-4.32,2.27-6.81.07-1.45.7-2.75,1.16-4.09.13-.37.33-.73.78-.7.52.04.88.47.87.9-.04,1.27.42,2.48.29,3.78-.29,2.73-1.13,5.27-2.36,7.69-.83,1.64-2.32,2.56-3.87,3.35-.87.44-1.82-.42-2.82-.05-.34.13-.47-.66-.55-1.1-.23-1.23-.2-2.54-1.23-3.83Z"/>
  <path class="cls-1" d="m700.29,17.87c1.27-.76,2.4-.54,3.45-.1,1.04.44,1.43-.02,1.55-.9.17-1.27.27-2.55.37-3.83.2-2.56,1.55-4.22,4.06-4.76,1.53-.33,3.08-.63,4.66,0,1.72.69,2.45,3.05,1.33,4.49-.35.45-.75.52-1.1.06-.32-.41-.59-.88-.83-1.35-.68-1.37-1.8-1.62-3.21-1.43-1.46.19-1.72,1.36-2.02,2.39-.37,1.3-.55,2.65-.74,3.99-.17,1.21.18,1.63,1.46,1.76,1.05.1,2.11.09,3.17.12.38.01.78-.06,1.12.05.52.18,1.39.18,1.23,1-.1.55-.72.54-1.31.53-1.65-.04-3.31.1-4.97.13-.65.01-.97.29-.97.94,0,.38-.07.76-.02,1.13.4,3.13-.78,6.11-.89,9.19-.02.64-.35.95-1,.97-.72.02-1.42-.04-1.6-.9-.1-.51-.17-1.1-.02-1.58.9-2.78.16-5.7.81-8.49.21-.9-.11-1.33-1.16-1.36-2.05-.05-2.34-.31-3.37-2.09Z"/>
  <path class="cls-1" d="m807.71,24.6c-.03,4-3.13,7.22-6.2,7-1.01-.07-1.91-.32-2.43-1.32-.35-.69-.9-1.21-1.59-1.57-1.86-.98-2.62-2.64-2.6-4.63.04-3.21,1.11-6.02,3.66-8.12,1.56-1.29,4.2-1.29,5.44.21,2.14,2.6,3.34,5.65,3.7,8.43Zm-2.93.42c0-1.92-1.29-5.78-2.24-6.87-1.13-1.29-1.8-1.25-2.72.2-.36.57-.73,1.15-1.04,1.74-1.58,2.99-1.07,5.66,1.44,7.87.38.34.88.54,1.1,1.1.43,1.06,1.12.85,1.72.15,1.06-1.22,1.86-2.57,1.74-4.19Z"/>
  <path class="cls-1" d="m819.59,29.19c-2.15-.03-3.73-.57-5.11-1.53-1.28-.9-2.12-2.15-1.85-3.86.14-.89.25-1.79.43-2.68.4-1.91.93-2.33,3.08-2.29,1,.02,1.68-.65,2.45-1.03,2.14-1.05,4.2-1.08,5.91.48,1.9,1.73,3.03,3.94,2.37,6.69-.17.7-.57,1.19-1.1,1.65-1.91,1.65-4.19,2.29-6.18,2.58Zm-.01-1.84c3.39.1,4.97-2.36,3.68-5.49-.44-1.06-1.24-1.65-1.95-2.39-.45-.47-1.15-.55-1.68-.14-1.19.91-2.39,1.84-3.46,2.89-.85.83-.94,2.63-.16,3.33.99.9,2.09,1.76,3.56,1.8Z"/>
  <path class="cls-1" d="m728.33,26.48c-2.14,2.31-4.61,2.26-7.17,1.71-1.28-.28-2.08-1.24-2.57-2.34-.91-2.04-1.72-4.04-.23-6.33.85-1.31,1.28-2.76,2.99-3.36,1.19-.42,2.22-.31,3.26.17.95.44,1.55,1.34,1.63,2.29.08.99-.86,1.45-1.7,1.86-.69.34-1.44.41-2.16.61-1.3.36-1.59.84-1.45,2.1.33,2.81,2.03,4,5.29,3.65.64-.07,1.27-.22,2.1-.37Zm-6.17-8.14c-.45-.02-.8.18-.8.6,0,.5.37.83.85.88.31.03.53-.26.61-.56.15-.56-.19-.81-.65-.92Z"/>
  <path class="cls-1" d="m943.27,26.93c-.75,1.93-1.95,3.24-3.26,4.49-1.24,1.18-2.72.9-4.04.52-1.44-.42-2.73-1.23-2.94-3.05-.27-2.42.5-4.66,1.22-6.86.48-1.47,1.22-2.87,2.14-4.2,1.94-2.78,5.29-3.07,7.47-.46.68.82,1.37,1.53,2.51,1.72.83.13,1.31.68,1.22,1.61-.15,1.71.14,3.4-.56,5.13-.69,1.74.02,3.6.88,5.21.65,1.22,1.99,1.53,3.13.75,2.48-1.69,4.74-3.58,6.4-6.2,1.35-2.14,2.69-4.33,4.48-6.17,1.26-1.3,4.05-1.93,5.7-1.26.53.21.87.57.97,1.15.25,1.47.58,2.86.08,4.43-.61,1.92-.85,3.95-1.73,5.83-.53,1.14-1.37,1.98-2.18,2.84-1,1.06-3.18.86-4.61-.19-.69-.51-1.16-1.17-1.54-1.91-.6-1.17-1.01-1.27-1.77-.18-.57.83-1.32,1.43-1.99,2.13-1.31,1.37-3.11,1.85-4.82,2.26-2.48.6-5.67-1.73-6.12-5.03-.09-.67-.13-1.35-.2-2.02,0-.06-.09-.12-.44-.53Zm-7.46-.09c-.06,1.45.1,2.61,1.2,3.03,1.05.41,1.65-.69,2.1-1.37,1.31-1.93,2.12-4.13,3.16-6.21.71-1.42.14-2.5-.53-3.56-.82-1.3-1.77-1.35-2.65-.06-1.74,2.57-2.81,5.44-3.29,8.17Zm22.47,2.14q1.24.1,2.23.64c1.27.69,2.22.5,3.11-.61,1.03-1.28,2.42-6.34,2.22-8.06,0-.07-.02-.15-.02-.22-.07-.75-.53-.78-1.12-.61-.57.17-.83.6-1.02,1.12-.36,1-1.05,1.75-1.71,2.57-1.29,1.6-3.02,2.93-3.69,5.19Z"/>
  <path class="cls-1" d="m904.54,29.07c-1.55-.16-2.94.32-4.34.96-2.68,1.23-5.29.46-6.61-1.9-1.14-2.03-1.04-4.25-.21-6.31.57-1.43,2.09-1.88,3.59-1.98,1.38-.1,2.53.32,3.18,1.67.07.14.15.27.2.41.21.62.65,1.16,1.27,1.11.67-.05.84-.78.99-1.37.68-2.77,1.36-5.54,2.01-8.32.19-.82.32-1.61,1.16-2.07.62-.34,1.2-.64,1.89-.18.66.44.4,1,.29,1.61-.84,4.91-1.63,9.83-1.22,14.85.13,1.64.06,1.68-1.52,1.61-.23,0-.45-.05-.68-.08Zm-7.74-7.37c-.54,0-.99.08-1.03.67-.1,1.87-.2,3.75,1.02,5.36.65.85,1.55.94,2.31.19.66-.65,1.09-1.38.55-2.39-.55-1.04-1.28-1.97-1.63-3.13-.15-.51-.72-.72-1.23-.71Z"/>
  <path class="cls-1" d="m926.84,29.2c-2.02,1.3-4.2,2.02-6.51,2.13-3.56.18-5.77-3.55-5.84-6.29-.07-2.98.76-5.8,2.73-8.1,2.47-2.89,7.94-2.03,9.59,1.38.79,1.63.42,3.09-.56,4.42-1.24,1.69-2.83,2.86-5.08,2.81-.52-.01-1.05.11-1.55.23-1.51.36-1.83,1.12-.94,2.37.55.77,1.29,1.2,2.3,1.21,1.96.02,3.91.12,5.86-.15Zm-9.27-6.51c-.02,1.51.07,1.77.84,1.78,2.19.03,4.16-.56,5.5-2.44,1.1-1.54.7-3.5-.86-4.5-1.23-.79-3.73-.24-4.36,1.13-.58,1.28-1.21,2.6-1.13,4.02Z"/>
  <path class="cls-1" d="m878.24,26.42c-.15-2.56-.16-5.1.22-7.65.14-.93.56-1.14,1.38-.92.36.1.73.18,1.1.29.65.2.92.42.71,1.29-.72,3.03-.68,6.1.08,9.13.2.8-.52,2.06-1.29,2.24-1.19.27-2.19-.33-2.3-1.45-.05-.52-.03-1.06,0-1.59.02-.45.07-.9.11-1.36Z"/>
  <path class="cls-1" d="m884.16,12.79c-1.58.62-3.15.95-4.77,1.14-.47.05-.98.1-.95-.57.02-.45-.3-1.11.54-1.24.21-.03.48-.01.63-.13,1.76-1.4,3.15-.62,4.55.81Z"/>
  <path class="cls-1" d="m982.88,28.36c-1.53,1.46-2.67,1.5-3.55.17-.33-.5-.35-1.06.49-1.05,1.04,0,2.09.01,3.06.89Z"/>
  <path class="cls-1" d="m189.18,22.72c.76.73,1.79.13,2.54.64-3.28,2.13-7.25,1.07-8.76-2.33-.63-1.42-1.01-2.9-1.17-4.43-.42-3.99,2.11-6.52,6.16-6.23,2.81.2,4.7,1.61,5.44,4.05.82,2.69.07,4.79-2.24,6.65-.66.53-1.71.64-1.98,1.65Zm-4.01-7.73c.29,1.85.58,4.25,1.48,5.44.62.82,1.17.95,2,.34,2.76-2.03,3.02-4.84.66-7.39-.77-.83-1.67-1.49-2.84-1.06-1.22.45-1.28,1.61-1.31,2.67Z"/>
  <path class="cls-1" d="m171.97,23.99c-2.03-.4-4.11-.72-5.1-2.94-.18-.4-.33-.91.08-1.24.47-.39.82-.01,1.11.35.97,1.22,2.34,1.62,3.79,1.8.61.08,1.35.24,1.73-.38.37-.59.03-1.18-.37-1.73-.9-1.23-1.74-2.51-2.63-3.75-1.15-1.62-2.55-3.19-1.24-5.36,1.13-1.87,3.82-3,6.13-2.62,1.86.3,2.72,1.78,2.1,3.58-.12.35-.28.68-.65.79-.56.17-.79-.28-1.03-.65-.14-.23-.28-.47-.36-.72-.37-1.17-1.09-1.57-2.26-1.09-1.24.51-1.73,1.52-1.35,2.79.27.88.8,1.6,1.32,2.34.92,1.33,1.95,2.58,2.64,4.07,1.08,2.32.42,3.82-2.03,4.44-.61.15-1.24.22-1.9.33Z"/>
  <path class="cls-1" d="m159.29,11.14c.94-.27,1.16-1.15,1.67-1.74,1.06-1.23,2.42-1.8,3.97-2.02.6-.08,1.12.12,1.14.81.03.71-.25,1.35-1.1,1.02-1.11-.44-1.43.33-1.85,1-1.51,2.44-3.17,4.82-3.18,7.89,0,1.3-.62,2.45-1.56,3.34-.57.54-1.32.58-2.02.31-.78-.3-.69-1-.52-1.61.97-3.43-.02-6.77-.5-10.11-.15-1.04-.2-1.63.98-2.02,1.14-.38,1.73.02,2.12.96.3.71.36,1.52.85,2.17Z"/>
  <path class="cls-1" d="m447.79,22.87c-.77.44-1.38.82-2.02,1.15-2.38,1.24-4.33.57-5.21-1.91-.99-2.81-.48-5.6.86-8.12.93-1.76,2.8-2.06,4.74-1.88,2.17.2,2.23.15,2.3-2.05.06-2.16.03-4.33-.03-6.5-.03-.91-.04-1.6,1.15-1.67,1-.05,1.97-.38,2.31,1.08.33,1.43.39,2.87.32,4.3-.27,5.32-.64,10.63-.97,15.95-.02.27-.02.55-.08.81-.14.6-.19,1.3-1.02,1.39-.72.09-1.21-.31-1.54-.88-.27-.46-.46-.97-.8-1.69Zm-4.76-3.37c0,.09-.02.36,0,.63.05.72.06,1.51.78,1.89.84.45,1.53-.1,2.18-.57,1.76-1.27,1.55-6.03-.32-7.1-.76-.43-1.15.11-1.51.63-.91,1.31-1.04,2.82-1.14,4.52Z"/>
  <path class="cls-1" d="m417.55,19.4c0,.5,0,.77,0,1.04-.02.5.61,1.11,0,1.47-.68.4-1.55.17-1.94-.47-1-1.66-2.13-1.02-3.33-.37-.7.38-1.4.81-2.14,1.11-3.23,1.28-5.86-.62-5.62-4.06.19-2.72.76-5.34,2.09-7.77.45-.82.97-1.51,1.69-2.07,1.11-.86,2.57-1.68,3.72-1.07,1.23.65,2.85.91,3.62,2.42.71,1.39,1.2,2.83,1.41,4.34.26,1.87.35,3.76.49,5.43Zm-4.64-5.73c-.18-1.09.32-2.52-1.03-3.55-.76-.58-1.29-.95-1.91.1-1.52,2.56-2.04,5.38-2.03,8.3,0,1.32.81,1.66,2.06.98,2.23-1.21,3.11-3.16,2.91-5.83Z"/>
  <path class="cls-1" d="m426.52,11.63c1.34-.81,2.77-1.3,4.29-1.62,2.77-.57,4.81.63,5.26,3.49.53,3.36.03,6.65-1.44,9.75-.22.47-.58.94-.99,1.25-.85.64-1.85.17-1.97-.87-.09-.82.15-1.6.35-2.39.65-2.55,1-5.14.82-7.77-.12-1.79-.76-2.15-2.51-1.74-1.73.41-2.81,1.45-3.4,3.11-.6,1.72-.74,3.52-1.08,5.29-.31,1.6-1.06,2.3-2.22,2.09-1.39-.26-1.69-1.28-1.51-2.45.4-2.67,1.05-5.3,1.22-8.01.03-.43.31-.84.47-1.26.17-.46.44-.78.97-.77.57.02,1.08.15,1.14.86.03.34-.07.73.6,1.04Z"/>
  <path class="cls-1" d="m482.99,18.95c-1.67,1.54-2.87,2.73-4.48,3.36-2.31.91-4,.31-4.58-2.07-1.03-4.23-.76-8.44,1.4-12.32,1.06-1.92,4.02-3.05,6.09-2.62,1.21.25,1.74,1.34,2.28,2.16.68,1.04,1.18,1.16,2.35.83,1.97-.56,2.39-.11,2.01,1.76-1.37,6.89-2.02,13.9-3.55,20.77-.12.53-.11,1.09-.3,1.59-.39,1-1.27,1.26-2.22,1.11-.98-.15-.87-1.02-.86-1.72,0-.63.1-1.26.2-1.88.52-3.46,1.05-6.92,1.67-10.96Zm-5.12.95c.5-.4.89-.78,1.33-1.06,2.6-1.67,2.22-4.71,3.18-7.11.52-1.3-1.77-4.13-2.84-4.14-.92-.01-2.35,1.73-2.61,3.47-.35,2.32-.28,4.68-.09,7.02.05.61.3,1.2,1.03,1.83Z"/>
  <path class="cls-1" d="m509.24,20.85c-1.19,1.56-2.47,2.6-4.06,2.09-1.47-.47-1.42-2.13-1.59-3.47-.02-.17-.12-.33-.24-.66-.76.16-1.02.87-1.37,1.38-1.01,1.47-2.44,2.39-4,3.11-2.05.94-4.25-.07-4.98-2.22-.38-1.12-.51-2.28-.44-3.47.13-2.25.26-4.5.39-6.75q.14-2.29,2.66-2.85c.96,2.05.57,4.22.37,6.32-.15,1.54-.13,3.07.03,4.58.08.73,0,1.73,1,2.03.83.25,1.31-.41,1.85-.88,2.81-2.44,4.36-5.66,5.5-9.08.3-.92.44-1.68,1.55-1.89,1.53-.3,1.95-.04,1.97,1.57.04,2.26-.23,4.5-.59,6.73-.1.62-.17,1.25-.21,1.88-.1,1.72-.09,1.72,2.16,1.56Z"/>
  <path class="cls-1" d="m517.72,13.66c-.28,1.82-.51,3.68-.86,5.52-.23,1.19-1.19,1.68-2.45,1.43-1.23-.25-.89-1.26-.79-1.93.28-1.85.73-3.68,1.15-5.51.1-.42.32-.84.59-1.18.42-.54,1.09-.71,1.7-.52.59.18.62.81.66,1.35.02.27,0,.54,0,.85Z"/>
  <path class="cls-1" d="m516.75,3.78c.09.99-1.05,1.18-1.15,2.05-.06.53-.54.93-1.21.64-.59-.25-1.12-.57-1.28-1.26-.15-.62.19-1.03.64-1.36.98-.72,1.98-.51,3-.08Z"/>
  <path class="cls-1" d="m628.74,20.68c.04-3.21,2.72-4.88,5.66-3.52.3.14.58.3.87.46,1.24.67,1.55.58,1.81-.66.39-1.92.73-3.86,1.05-5.8.19-1.13.39-2.27.43-3.41.04-.92.39-1.31,1.29-1.44,1.53-.21,1.99-.02,2,1.6,0,3.44-.21,6.89-.95,10.24-.58,2.6-.76,5.19-.67,7.82.02.5.58,1.05-.33,1.38-.65.24-1.23.46-1.82-.07-.18-.16-.41-.3-.52-.5-.69-1.24-1.25-1.49-2.78-.69-2.52,1.32-5.71-.98-6.02-3.95-.05-.49,0-.99,0-1.48Zm6.61,1.13c.02-.89-1.04-2.07-2.17-2.42-1.4-.42-1.93.12-1.63,1.6.18.9.55,1.72,1.05,2.47.45.67,1.07.75,1.68.22.56-.49,1.04-1.06,1.07-1.87Z"/>
  <path class="cls-1" d="m602.63,16.51c-.69,2.58-.62,5.43-.32,8.29.05.46-.05.83-.53.95-.63.16-1.26.31-1.78-.35-.43-.55-.25-1.7-1.18-1.67-.67.02-1.34.54-1.98.9-1.59.89-3.32.76-5.03.72-1.25-.03-2.07-.9-2.77-1.82-2.03-2.66-1.96-5.55-.83-8.54,1.02-2.69,2.97-4.02,5.78-4.61,2.42-.51,4.27-.15,5.76,1.86.22.3.68.42,1.02.63,1.56.99,1.87,1.57,1.85,3.64Zm-7.96-3.71c-.57-.03-1.23.14-1.87.62-1.9,1.45-2.91,3.25-2.64,5.71.2,1.85,1.3,3.29,2.84,3.54,1.1.18,2.11-.23,3.13-.53.86-.26.72-1.21,1.1-1.8.66-1.01.81-2.12.99-3.26.35-2.13-1.28-4.25-3.55-4.29Z"/>
  <path class="cls-1" d="m606.91,20.66c.04-1.55.31-3.11-.36-4.62-.23-.53-.21-1.13-.08-1.7.19-.81.8-1.24,1.52-1.46.85-.26,1.11.54,1.45,1.05.74,1.09.57,2.36.64,3.58.02.42.08.8.55.98.46.17.78-.03,1.07-.35,1.88-2.07,4.35-2.77,7.01-3.02,2.32-.21,3.11.48,3.29,2.79.19,2.39-.08,4.76-.62,7.07-.2.89-.58,2.2-1.78,2.05-1.15-.15-1.17-1.41-1.27-2.4-.11-1.07-.12-2.12.23-3.17.26-.77.47-1.58.54-2.38.13-1.52-.7-2.16-2.09-1.49-2.45,1.18-4.67,2.7-6.12,5.11-.42.7-.82,1.41-1.28,2.08-.5.73-1.23.68-1.99.46-.77-.21-.69-.85-.71-1.39-.04-1.07-.01-2.13-.01-3.2Z"/>
  <path class="cls-1" d="m664.96,24.6c.86-2.2.48-5.02,1.68-7.49,1.04-2.15,2.86-3.45,5.12-4.08,1.36-.38,2.14.64,2.94,1.48.49.51.53,1.58,1.29,1.63,2.15.16,1.95,1.71,2.06,3.13.2,2.49-.02,5.06,1.44,7.32.25.39.26.93-.15,1.22-.26.18-.73.27-1.02.17-1.01-.37-1.98-.83-2.54-1.87-.5-.94-1.01-1.08-1.8-.15-1.14,1.33-2.71,2.05-4.39,2.5-2.9.76-4.56-.51-4.62-3.85Zm8.72-4.92c0-.54.07-1.09-.01-1.62-.16-1.07-.36-2.19-1.65-2.51-1.4-.35-2.16.45-2.74,1.6-1.16,2.32-1.55,4.79-1.41,7.33.09,1.63.91,1.97,2.39,1.1,2.24-1.31,3.82-3.05,3.43-5.91Z"/>
</svg>