<?xml version="1.0" encoding="UTF-8"?>
<svg id="Layer_1" data-name="Layer 1" xmlns="http://www.w3.org/2000/svg" viewBox="0 0 409.06 190.63">
  <defs>
    <style>
      .cls-1, .cls-2 {
        stroke-width: 0px;
      }

      .cls-2 {
        fill: #121212;
      }
    </style>
  </defs>
  <g>
    <path class="cls-1" d="m318.54,3.67c6.48.44,13.15-.07,19.8.29,5.17.14,10.25,1.23,15.53.84,11.28-.23,22.02,1.97,33.39,1.64,4.03.62,8.41-.12,12.59.66,1.81.42,3.3.28,3.8,1.48.4,3.71-1.4,7.93-1.56,11.74-1.52,11-1.42,22.03-1.67,33.14-.21,7.66-.63,15.32,0,22.95-.33,7.17-1.27,14.37-.71,21.58-.22,5.05-.68,10.1.13,15.23.86,5.3-.38,10.67.99,15.93,1.32,9.97.09,20.21.42,30.19.44,4.03.44,8.2,1.02,12.19.19,1.29.16,2.64-.4,3.8-.65,1.25-1.87,2.49-1.75,3.84-.07.91-.11,2.15.26,3.18.31,1.09,1.54,2.35.54,3.32-3.49,1.25-7.41,1.9-11.19,1.78-1.86-.24-3.65-.59-5.52-.39-8.01,1.56-16.27.56-24.5.68-6.69.01-14.1,1.1-20.72-.39-.81-.12-1.56-.29-2.41-.19-3.41-.52-7.02,1.09-10.66.57-5.18.13-10.02-.41-15.18-.78-4.9-.13-9.75.12-14.63-.25-12.17-.2-24.78-.99-37.01-1.54-10.65.74-21.31-.75-31.93-1.32-7.94-.32-16.29,1.36-24.21-.6-8.67.05-17.38.01-26.05-.57-8.98-.09-17.81-1.48-26.88-1.66-7.78-.34-15.37-.15-23.08-.23-12.63,1.66-25.49.01-38.05,1.71-4.95.46-9.88-.15-14.77-.59-6.42.45-12.74,1.16-19.22.33-6.39-.95-12.65.25-19.18-.34-7.33-1.33-14.78.43-22.19-.49-1.81-.29-3.38-.41-4.96-1.26-2.8-2.27-2.01-9.36-2.37-12.84.16-3.62-.3-7.12-.62-10.69-.55-5.93.03-11.82-.43-17.74-1.24-12.43-1.24-24.89-.73-37.33-.32-8.78-1.13-17.63-1.15-26.39-1.01-8.58-.12-17.02.13-25.59-1.23-7.53.6-15.09-.86-22.58-.7-5.71-.64-11.45-1.63-17.11-.32-1.87-1.4-3.24-.71-3.68,2.09-.62,4.7.41,7.03.37,7.58-.22,15.27-1.06,22.74-2.14,10.11.47,21.4-1.27,31.53-3.33,3.12-.76,6.28-.22,9.42.18,8.4.12,15.18.82,23.89.42,5.73.41,11.42-.41,17.21-.27,5.31-.69,10.84-1.61,16.37-1.37,9.84.98,19.61,1.19,29.44,1.07,7.06-.84,14.49-.95,21.67-.19,9.98.64,20,.33,29.96.42,13.03.76,26.08,1.33,39.16,1.46,15.95-1.09,31.52.13,47.5.67,7.4.17,14.84-.55,22.22.18h.16Zm-167.63,174.3c15.59,1.34,31.34,2.21,46.96,2.33,4.67-.01,9.26.98,13.92,1.01,5.83.06,11.54-.43,17.27-.33,12.61,1.7,25.2,1.22,37.99,1.54,12.18.3,24.33,1.43,36.53,1.3,6.84.07,13.61.87,20.44,1.03,7.79-.51,15.5-.41,23.22.45,11.39-1,22.98.33,34.34-.69,4.67-.38,9.96.56,14.36-1.04.71-.27,1.52-.63,1.37-1.51-.09-.46-.06-.69-.14-1.12-.33-2.41.42-5.04.76-7.47.73-5.04-.1-10.36-.62-15.35,0-7.33.41-14.62.14-22.07.2-4.08-.89-8.24-1.26-12.17-.2-2.86.49-5.89.16-8.83-.76-5.71-.95-11.25-.55-17.02-.49-6.56.21-13.27.72-19.81.3-5.5-.99-10.85.33-15.73.5-1.34.54-1.68.08-3.16-.97-3.38.34-7.25.09-10.61-.41-6.41.15-12.95.19-19.47,1.41-20.6,8.35-18.48-11.18-19.4-9.94.25-19.77-1.94-29.7-1.46-6.44-.27-13.16-.94-19.52-1.3-5.98-.15-12.38.25-18.33-.22-2.86-.66-5.18-.09-7.99-.09-6.19-.37-12.6-.14-18.82-.06-7.85-.45-15.7-1.06-23.57-1.25-15.06.33-30.19,1.22-45.16-.45-15.2-.94-30.55-.41-45.82-1.44-8.28-1.32-16.58.9-24.86.3-8.86.03-17.62-.97-26.49-1.09-6.74-.03-13.28,1.37-20.01,1.27-9.6.31-19.02-.28-28.56-.34-4.05.74-8.04-.77-12.07-.62-2.26.09-4.52.55-6.73,1.03-7.83,1.93-16.05,2.23-24.12,2.42-7.13.4-14.32,1.35-21.5,1.86-2.64.37-5.56-.74-7.92.25-1.39,1.1-.68,3.89-.46,5.57,1.05,9.2,2.26,18.58,1.59,27.81,1.01,10.08.18,20.22.37,30.42.24,11.87,1.32,24.13,1.35,35.97-.12,5.8-.24,12.25.36,18.01.32,2.05-.48,4.66.04,6.3,1.53,7,.46,14.7,1.03,21.75.78,6.11.66,12.27,1.16,18.4.14,2.89.74,5.85,4.26,5.77,6.87.93,14.01-.8,20.89.43,6,.69,12.09-.77,18.1.26,9.63,1.2,19.03-.74,28.69.58,6.96-.2,13.84-1.74,20.79-1.27,2.64.16,5.29.36,7.94.25,13.23-1.12,26.58-1.36,39.77-.92h.16Z"/>
    <path class="cls-1" d="m203.88,14.29c24.96.83,49.97,3.36,75,3.39,23.63.8,47.52,1.94,71.16,2.15,9.37.43,18.76.42,28.2.77,1.72,0,3.81.1,5.02,1.25,3.72,4.57,1.77,13.61,1.82,19.32-1.97,11.76,1.64,23.79-1.26,35.45-.97,6.23-.24,12.56-.49,18.89-1.23,17.9-2.31,35.94-2.79,53.89-.25,3.47,1.64,18.97-1.84,18.79-2.31-2.28-.35-6.81-.8-9.8-.85-12.35.71-24.68,1.05-37.03.87-18.55,1.72-37.24,3.41-55.72-.4-9.08-1.36-18.19.29-27.25,1.14-20-.64-13.39-17.46-15.54-34.7-.06-69.31-2.47-103.95-3.09-29.04-2.27-57.87-2.96-86.98-3.72-43.46-.53-87.09-2.95-130.3,2.97-8.14-.08-18.3.03-26.46.07-1.01,0-1.11,19.2-1.27,23.3,1.74,12.14.27,24.16,1.29,36.32.45,21.3,2.16,42.51,3.06,63.77-1.17,4.77,2.43,24.93-1.15,25.12-.98-.12-1.05-2.95-1.04-4.21-.4-11.71-.07-23.63-.6-35.35-1.76-24.13-2.61-48.37-2.27-72.5-1.33-11.78-.85-25.23-.46-36.91-1.05-1.96-.15-1.92,1.73-1.51,23.73,2.65,47.12-4.02,70.83-3.31,38.7-2,77.47.49,116.14.5h.13Z"/>
    <path class="cls-1" d="m356.09,170.45c-5.33.99-11.54,1.28-17.04,2.13-3.57.17-6.93.33-10.48.69-7.51.86-14.07.92-21.68,2.01-2.94.13-5.23.06-8.19.45-2.54-.13-5.42.26-7.96.17-3.49-.38-6.68-.6-10.29-.43-4.23-.03-7.96.18-11.91.38-3.42-.55-6.22-.49-9.6-.61-2.66-.07-5.52-.45-8.18-.67-3.95.02-8.79.37-12.88.57-4.59-.1-9.32-.43-13.87-.8-1.42-.19-2.69.06-4.31.11-2.11.06-4.26-.44-6.38-.54-7.76-.57-15.5-.42-23.2-1.24-9.44-.44-19.08.47-28.6-.06-4.41-.05-8.6-.08-12.97-.63-4.55-.32-8.94-.12-13.57-.07-6.99.5-13.43-.38-20.44-.69-4.68-.18-9.32.53-14.03.33-2.67-.11-4.68-.39-7.41-.22-4.76.25-9.42-.08-14.16-.29-4.63.07-9.25.47-13.85.56-5.96-.47-11.71,0-17.74-.06-6.79-.42-13.52.51-20.31.39-2.43.04-5.89.07-7.59-1.42-.25-.27-.42-.66-.36-1,.11-.66,1.3-.99,2.63-.79.45.05.88.12,1.34.16,5.93.53,12.2-.05,18.3-.42,6.65.22,12.83-.05,19.48.16,1.94.13,3.87.16,5.81.07,9.91-.69,19.95.14,29.84-.08,5.32.21,10.54-.24,15.86-.32,5,.17,10,.89,15,1.12,7.14-.06,14.32-.71,21.55-.11,2.85.18,5.7.35,8.56.35,11.99.43,24.18-.11,36.18.75,6.01.26,11.63.7,17.67.79,7.16.84,14.19,1.06,21.44,1.14,7.34.37,14.83-.71,22.17.03,7.46.71,15.12.78,22.62.54,7.77.08,15.91.66,23.74-.04,3.22-.03,6.15,0,9.39-.62,7.8-.8,15.74-1.18,23.52-1.97,10.52-1.01,20.68-2.92,31.2-3.13,3.23-.29,6.92-1.32,9.93-.22,1.37,1.07-.72,2.2-1.89,2.26-2.97.26-6.11.69-9,.83-2.68-.16-5.82-.25-8.24.44l-.14.03Z"/>
  </g>
  <path class="cls-2" d="m175.47,57.4c-1.2,1.5-2.6,2.8-3.8,4.3-.8.9-1.9,1.4-2.6,2.4-.3.5-.9.4-1.4.1-1.1-.7-1.8-1.8-2.1-2.9-.4-1.5-1.6-2.6-1.9-4.1-.6.1-.5.4-.5.7-.2,3.3-.8,6.5-1.5,9.7-.2,1.1-1,.5-1.4.8-.6.3-.8-.2-.9-.6-.5-1.1-.1-2.2.1-3.3.5-3.1,1-6.2,1-9.4,0-1.9,1.3-2.6,3.1-1.7,1.4.7,2.1,2,2.8,3.3.6,1.2,1.4,2.4,1.7,3.8.1.6.4.5.8.2,2.6-2.3,5.2-4.5,6.4-8,.4-1.1,1.4-.8,2.1-.9.6-.1.7.7.8,1.3.4,4,.9,8.1,1.3,12.1,0,.3.1.6,0,.8-.2.5.2,1.5-.9,1.5-1,0-1.6-.5-1.9-1.3-.3-.9-.4-1.9-.5-2.9-.5-2-.6-4-.7-5.9h0Z"/>
  <path class="cls-2" d="m195.27,67c-.1-2.4-.6-4.8-1.1-7.2h-.2c0-.1.1-.2.1-.2-.5-1.9-1-3.8-2.1-5.5-.9-1.3-2.1-1.8-3.4-1.3-.9.4-1.7.6-2.6.7-.6.1-.9.3-.9,1-.5,4.9-2.4,9.5-3.4,14.2-.2,1.1.4,2.2,1.5,2.3.3,0,.6.1.8-.4.7-2,1.8-3.8,2.1-5.9.1-1.2.8-1.7,2-1.8,1.1,0,2.1-.1,3.2-.5.5-.2.8-.1.9.6.3,1.5.2,2.9.2,4.4,0,1,.3,1.8,1.1,2.4.6.4,1.2.5,1.5-.4.2-.8.3-1.6.3-2.4h0Zm-4.3-6h-1.6c-2.2,0-2.1,0-1.3-2,.5-1.2.5-2.4.7-3.6,0-.2-.1-.6.3-.7.3,0,.4.2.5.4.8,1.7,1.6,3.4,1.9,5.3.3.5-.1.6-.5.6Z"/>
  <path class="cls-2" d="m271.67,139c0,.3-.2.5-.4.6-.9.3-3.7,1.5-4.4,1.6-1.9.4-3.8.3-5.7.8-.9.2-1.8-.4-2.6-.8-.4-.2-.6-.8-.6-1.2.1-.5.6-.7,1-.7,2.4.4,2.6-1.3,3-3,.5-2.2,1.1-4.4,1.2-6.7,0-.9,0-1.7-1.4-1.2-.9.3-3.2-1.1-3.5-1.9-.2-.5-.1-1,.2-1.5.4-.5.9-.6,1.5-.4,1.1.4,2.3.9,3.4,1.3,1.4,0,2.8.2,4.2-.1.8-.1,1.7-.3,2.5.2,1.6.8,1,1.8-.1,2.4-.8.4-1.6.5-2.6.4-.9-.1-1.3.2-1.3,1.2-.1,2.4-.4,4.7-1.1,7.1-.4,1.6-.1,1.8,1.6,1.5,1.4-.3,2.9-.1,4.4-.1.5,0,.7.2.7.5h0Z"/>
  <path class="cls-2" d="m202.97,103.8c-1.7-.1-3.3-.5-4.7-1.5-.2.1-.2,0-.2-.1h0c-.3-.3-.6-.5-.9-.8h0c-.6-.5-1.1-1-1.7-1.5-.5-.4-.4-.5.2-.7,3-1.1,5.6-2.6,7-5.7.8-1.5,0-4.2-1.3-5-2.1-1.3-4.3-.9-6.5-.4-1.9.4-3.1,2.4-5.2,2.4,0,0-.5,0-.8.2-.4.5-.3.9-.4,1.3-.2,2.5-.1,5.1-.6,7.6-.3,1.4-.4,2.8.2,4.2.4,1,1.1,1.2,2.1,1,.9-.2,1.1-.8,1.1-1.6,0-.6,0-1.3.1-1.9,0-.2.1-.5.4-.6.1,0,.4.2.5.3.8,1.3,2.1,2.1,3.3,3.1,1.6,1.3,3.4,2.1,5.6,1.9,1.6.2,2.8-.6,3.8-1.8-.8,0-1.3-.4-2-.4h0Zm-11.4-7.7c.1-.9.4-1.8.7-2.6.7-1.8,4.1-3.8,6-3.5,1.2.2,2,2,1.4,3-.2.3-.3.5-.4.8-.1.1-.2.3-.2.4-.1.1-.2.2-.3.3-.6.4-1,1-1.4,1.5-1.3.5-2.6.9-3.9,1.5-1.4.6-2,.1-1.9-1.4h0Z"/>
  <path class="cls-2" d="m138.07,133.3c-2.3,1.1-4.4,2.4-6.8,3.3-.6.2-1.1.1-1.7.2,0,.1-.1.2-.3.4-.7.6-.9,1.5-.6,2.3.2.7,1.1.5,1.7.6,1.1.2,2.1-.2,3.2-.2.4,0,1-.4,1.1.2.1.5.3,1.1-.3,1.7-2.1,1.9-6.6,1.8-8.6-.3-.8-.9-1-2.1-.7-3.1.4-1.3.5-2.6.8-3.8.5-1.8,1-3.5,1.2-5.4.2-1.8.9-2.3,2.7-2.3,0,0,4,.2,5.3.2,1.4.1.9,1.2,1,1.9.2,1-.6.6-.9.7-1.4.3-2.9.3-4.3.3-.7,0-.9.3-1,.9-.1,1.2-.2,2.4-.2,3.7.2-.2.6-.3,1-.4,1.9-.5,3.8-1,5.8-1.4.4-.1.9,0,1.4,0,.3,0,.3.3.4.5.2-.1,0-.1-.2,0h0Z"/>
  <path class="cls-2" d="m299.17,57.2c-1.5-2.5-7.2-3.5-9.1-.3-1.1,1.8-1.8,3.7-2.4,5.7-.2.2-.4,2.6-.4,2.9-.3.9,0,1.6.6,2.2.2.2.7.7.7.7,1.8,1.4,3.6,2.9,6.1,3,1.8.1,3.4-.4,4.6-2,.9-1.1,1.2-2.4,1.4-3.8.2-2.8.1-5.7-1.5-8.4h0Zm-1.4,9.7c-.1.4-.4.7-.6,1-.3.3-.6.6-.8,1-.4.8-1,1-1.7.4-.6-.6-1.4-.7-2.1-.9-.3-.2-.6-.4-.9-.5-1.6-.2-1.8-1.3-1.6-2.6.2-.5.2-.9.2-1.4.4-1.6,1.1-3.1,1.8-4.6.5-.9,1.2-1.5,1.9-2,.9-.6,2.5.1,3.1,1.4,1.2,2.6,1.3,5.4.7,8.2h0Z"/>
  <path class="cls-2" d="m236.87,101c.2-2-.5-3.8-1.4-5.4-1.1-2-2.9-3.3-5-4.2-.7-.4-1.4-.5-2.2-.5h-.5c-.8-.2-1.5,0-2.2.2-1,.3-1.6.9-1.4,2.1.1.9,0,1.8-.1,2.6-.1,2.8-.3,5.6-.4,8.4-.1,1.5,1.1,2.4,2.5,2.3.7-.1,1.4,0,2,0,2.4-.2,4.9-.4,6.8-2.2.9-.8,2.3-1.6,1.9-3.3h0Zm-3.2.8c-1.7,1.4-3.7,2.2-5.9,2.1-.6,0-.7-.2-.7-.7s.2-6.7.3-9.2c0-.8.3-1,1.1-.6,2.1,1,3.7,2.5,5,4.5.6.8.6,1.8.8,2.8,0,.5-.2.8-.6,1.1Z"/>
  <path class="cls-2" d="m361.17,142c-1.5-.4-3-1-4.3-2.1-1.1-.9-2.2-1.7-3.2-2.7-.5-.5-1.4-.7-1.3-1.7.5-.5,1.2-.6,1.8-1,1.1-.7,2.6-.8,3-2.3.2-.1.3-.3.4-.5q.1-.1.1-.2c.5-1.2,0-4.1-1-4.8-2.1-1.5-8.6-1.8-10.1-.3-.9.9-1.8,1.2-2.2,2.4-1,2.9-1.2,5.9-1.8,8.9-.2,1.1-.7,2.2-.3,3.4.3.9.7,1.6,1.8,1.6s1.2-.9,1.4-1.6c.3-1.3.5-2.6.6-3.9.1-.8.4-1,1.1-.8.4.1.6.3.9.5,1,.7,1.9,1.5,3,2,1.1,1,2.2,1.9,3.4,2.7,1.8,1.3,3.9,2.4,6.2,2.3.5,0,1.3.2,1.3-.3.1-.5.3-1.3-.8-1.6Zm-11.5-8.5h-1.4c-1,.2-1.3-.3-1.1-1.1.2-1,.2-2.1,1.4-2.6.1,0,.2-.1.2-.1-.1-1.8,4-1.5,4.9-1.2.6.2,1.2.4,1.3,1.1s-.2,1.2-.8,1.6c-.2.1-.4.3-.5.5-.6.3-1.3.6-1.9,1-.8.2-1.4.5-2.1.8h0Z"/>
  <path class="cls-2" d="m109.67,51.1c.1.6-.3,1.1-1,1.3-1,.2-2,.3-3.1.4-2.7.2-2.8.2-2.9,2.9-.2,3.5,0,7.1-.5,10.6-.1.5-.1,1-.4,1.3-.3.2-.5.9-.9.6s-1.2-.2-1.2-1c0-.5-.2-1-.1-1.5.3-2.5.3-5,.5-7.5,0-.8.1-1.6.4-2.4.2-.7,0-1.4-.1-2.1-.2-1-1.1-.5-1.7-.7-1.8-.7-3.8-.6-5.6-1.1-.2,0-.4-.1-.6-.2-.5-.2-1.2-.4-1-1.1,0-.8.7-.5,1.2-.6,1.3.2,2.7.4,4,.6,3.4.7,6.8.8,10.2.1.5-.1,1.1-.1,1.7-.1.3.1,1-.2,1.1.5Z"/>
  <path class="cls-2" d="m172.87,135.1c.4-1.3,1.4-2.2,2.3-3.3-.6.2-1.1-.1-1.7-.1-.7,0-.8-.4-.8-.9-.2-2.3-1.1-4.4-2.2-6.4-.6-1.2-2.6-2-3.8-1.6-.3.1-.5.2-.6.5-.4.8-.8,1.6-1.2,2.3-.1.2-.2.4-.3.6-1.1,3.4-1.6,7-3.2,10.3-.4.9-1,2-.8,3.2,1.7,1.7,3,.6,3.2.1.4-1.2.8-2.4,1.2-3.6.6-1.8,1-2,2.8-1.8.3,0,.6.2.9,0,.7,0,.6.5.5.9-.1,1.3.1,2.6.5,3.8.2.8.6,1.7,1.8,1.4.8-.2.8-1,1-1.6.5-1,.3-2.4.4-3.8h0Zm-3.6-3.1c-.5,0-.9-.1-1.4-.1-.7,0-1-.4-.7-.9.7-1.2.5-2.8,1.4-4,.7.8.4,1.9.7,2.8.1.5.6,2.2,0,2.2Z"/>
  <path class="cls-2" d="m335.27,142c-.4,1-1.3,1.6-2.3,1.9-.4.2-.9.1-1.3.2-2.2.3-4.3-.3-6.2-1.3-1.1-.6-1.7-1.8-2-3-.2-.9-.2-1.9-.7-2.8-.3-.6.1-1,.6-1.3.1-.3.5-6.1.3-8.1-.1-.6-.3-1.4.8-1.5,1.2-.1,2,.5,2.1,1.5,0,.4,0,.7.2,1.1,1.9-.2,3.9-.1,5.8-.1.6,0,1.1.3,1.4.7.3.4.3.8.1,1.2-.1.4-.5.2-.8.3-1.6.3-3.1,1-4.8.7-.4-.1-1.5.3-1.5.7,0,.5-.7,2.6.4,3,.6.2,1.1,0,1.7-.2,1.9-.9,3.9-.7,5.9-.6.6,0,.6.3.3.7-.7.9-1.6,1.4-2.6,1.8-.9.3-1.8.5-2.6.7-.9.3-1.9.6-2.8.8-.4.1-.6.4-.6.8,0,.5,0,1,.7,1.3.9.3,1.9.7,2.8,1h0c.9-.2,1.6.4,2.5.2.7-.6,1.6-.4,2.4-.4.6-.1.2.6.2.7Z"/>
  <path class="cls-2" d="m135.37,84.8c-.6-.5-1.3.1-2,.1-.6,0-.4.8-.4,1.3-.2,3.2.2,6.5-.7,9.7-.4.2-.6-.1-.8-.5-.2-.4-.3-.8-.7-1-.1-.1-.2-.2-.3-.3l-.1-.1c-.1-.1-.3-.3-.4-.4h-.1c-1.1-.9-1.7-2.2-3-3-.1-.1-.1-.2-.2-.2-.8-1.3-2.1-2-3.5-2.3-.7-.2-1.7.1-2.4.9-1,1-.6,2.3-.8,3.4-.3,2.5-.7,5-.7,7.5,0,1.2.8,1.4,1.6,1.5.9.2,1.4-.5,1.5-1.2.3-2.6,1.1-5.1.9-7.8,0-.2-.1-.5.2-.7.3-.2.5.1.7.3.7.7,1.4,1.5,2.2,2.2.1.1.1.2.2.2.5.9,1.5,1.4,2,2.2q0,.1.1.1c.8.9,1.3,2,2.3,2.7.5.5,1.1.9,1.3,1.5.6,1.3,1.3,0,2,.2.5.1.6-.6.7-1,.2-2.7.7-5.4.7-8.1,0-1.9.2-3.7.5-5.6.3-.6-.2-1.1-.8-1.6Zm-4.3,14.9h0Z"/>
  <path class="cls-2" d="m216.07,66.5c0,.7-.2,1.5-.4,2.2-.4,1.2-1.8,1.5-2.7.6-.6-.6-1.4-1.1-1.6-2-.1-.1-.2-.3-.3-.4-1-.9-1.9-2-2.6-3.1-1.1-1.6-2.2-3.1-3-4.8-.2-.2-.3-.5-.4-.8-.6-.2-1-1.4-1.7-1-.5.3-.2,1.3-.2,1.9-.1,2.9,0,5.8-.3,8.7-.1.9-.1,1.8-1.2,1.9-1.1.1-1.2-.9-1.4-1.7-.5-2.4-.4-4.8-.2-7.1.2-1.6.2-3.2.6-4.8.3-1.6,1-2.4,2-2.2.6.1,1.1.4,1.6.7.9.6,1.8,1.3,2.3,2.3,1.5,1.3,2.6,2.9,3.4,4.6.6,1.3,1.8,2.3,2.2,3.8.1.3.3.5.6.2-.1-3.3-.3-6.7-.4-10-.1-2,.4-2.5,2.4-2.3.4,0,.5.2.6.6.3,4.1.7,8.4.7,12.7h0Z"/>
  <path class="cls-2" d="m272.37,96.5c0,.2-.1,4.6-.3,5,0,1.4-.4,2-1.4,1.9-1.2-.4-2-1-1.6-2.4.3-.6.2-5.2.2-5.2-.8,1.1-1.1,2.3-1.6,3.5-.5,1.3-1.3,2.3-2.2,3.3-1.5,1.7-3.1,1.4-4-.6-.7-1.6-1.6-3.2-1.7-5-.3-.8-.6-1.6-.7-2.5,0-.3-.1-.6-.5-.7-.7,1.5-.6,3.2-.9,4.8-.3,1.3-.5,2.7-1.1,3.9-.2.5-.3,1.1-1.1,1s-1.3-.5-1.5-1.3c-.3-1.4-.1-2.8.4-4,.6-1.5.4-3,.7-4.5.3-1.4.2-2.8,1.4-3.9.4-.3.8-.7,1.2-1,.1-.1.1-.2.2-.2.4-.5,1-.1,1.5-.1,1,.2,1,1.1,1.3,1.8.5,1.1,1.5,4.1,1.5,4.5,0,1.5.8,2.8,1.1,4.2,0,.2.1.5.4.5.2,0,.4-.1.5-.3s.2-.3.3-.5c1.3-3,3.4-5.3,5.4-7.8,0,0,.1,0,.1-.1.5-1.1,1.2-1.8,2.5-1.3s1,1.8.9,2.7c-.4,1.3-.7,2.8-1,4.3h0Z"/>
  <path class="cls-2" d="m282.47,69.5c0,1-.6,1.3-1.4.7-1.1-.8-1.6-1.9-1.7-3.3,0-.6-.1-1.2-.1-1.8-.1-.4-.4-.6-.8-.5-.1.2-3.3.5-4.7.9-.6.2-.8.4-.9.9-.2,1.1-.4,2.1-.7,3.1-.1.5-.4.9-1,.8,0,0-1.7-.2-1.7-.5v-1.7c.1-2.3.7-4.5.6-6.8,0-1.1,0-2.2-.2-3.3-.1-.6-.6-1.4.3-1.7,1.1-.4,1.9.1,2.3,1.1.2.2.6,2.3.5,2.8,0,.4,0,.8.1,1.2.1.5,0,1,.3,1.4h1.9c1.1-.2,1.8-.1,3.1-.1.9,0,1.1-.4,1-1.3-.1-1-.2-2-.3-3-.1-.5-.3-1.2.6-1.3.8-.1,1.6-.3,2.1.6.5.8.6,1.8.6,2.8.1,3,.1,6,.1,9h0Z"/>
  <path class="cls-2" d="m122.97,64.4c-.1.8.1,1.8-1.3,1.6-1-.1-1.8-.9-1.4-2,.5-1.7.1-3.4.2-5.1-.7-.4-1.3.4-1.9.1-1.2.2-2.3.7-3.5.4-.6-.1-.8.1-.7.7v3.9c0,.7-.3,1.3-.9,1.7-.8.5-2-.2-1.8-1.2.4-2.2,0-4.3,0-6.4,0-1.7-.2-3.3-.2-5,0-.4-.3-1.2.5-1.2.7-.1,1.4,0,1.8.9.4,1.1.5,2.2.4,3.3-.1,1,.4,1.3,1.2,1.3h4.3c.3-.1.6-.2,1-.3.1-1.3.1-2.6-1.1-3.6-.5-.4-.6-1,0-1.6.5-.4,1-.7,1.6-.9,1.4-.4,1.6-.1,1.8,1.2.4,4.1.3,8.1,0,12.2Z"/>
  <path class="cls-2" d="m217.67,104.2c-2.4.2-4.9.5-6.3-2.2-.2-.9-.1-1.5,1-1.7.9-.2,1.7-.5,2.5-.7,1.4-.4,2.6-1.5,4.2-1.5.6,0,.9-.6.9-1.2,0-.7-.6-.3-.9-.3-.8-.2-1.6,0-2.4,0-1.9.2-3.6,1.1-5.5,1.1,0-1.6-.3-3.2-.3-4.8,0-.8.1-2.1-1.4-2.2h-.7c-1-.1-1.2.5-1.1,1.3.1,1.3,0,2.5,0,3.8.1,2.4-.2,4.8.6,7.1.7,2.1,2,3.6,4.3,4,1.8.7,3.7.3,5.4-.2,1.3-.4,2.7-1,2.8-2.9-1.1.1-2.1.3-3.1.4Zm-7.7-2.9h0s0-.1,0,0q0-.1,0,0Z"/>
  <path class="cls-2" d="m66.97,127c-1.4.1-2.7,0-4.1,0-.1.3-.3.5-.4.8-1,3.7-1.4,7.6-2.5,11.3-.2.7-.2,1.4.2,2s.2,1.1-.5,1.2c-.3.1-.6.2-.9.3-1.5.7-2.8-.3-2.7-2,.1-1.2.4-2.3.8-3.4,1.1-3.2,1.7-6.6,2.2-10-.1-.2-.2-.4-.3-.6-1.8.1-3.5.3-5.2-.1-.8-.2-1.4-.6-2-1.1-.3-.3-.6-.7-.4-1.2.2-.4.5-.7,1-.8.7-.1,1.3-.2,2-.1,1.4.3,2.8.3,4.1.3,2.4-.3,4.8-.1,7.2.1,1-.2,2.1-.7,2.8.6.8,1.5.2,2.6-1.3,2.7Z"/>
  <path class="cls-2" d="m169.67,89.9c-.8-1.2-2.2-1-3.3-1.3-1.5-.3-2.9,0-4.3.4-4.7,1.3-3.8,11.7-3.4,15.2.1.6.4.9,1,1.1.8.8,1.3.7,2.1-.3.1-.5.6-3.2.7-3.9.1-1.1.1-2.2,1.7-2.1.2,0,2.7-.1,2.9-.2,2.3-.4,3.8-1.7,4.4-3.9.5-2-.3-3.7-1.8-5Zm-.8,4.2c-.6,1.2-1.5,2-2.8,2.4-.7.2-1.5.3-2.2.5-1.3.4-1.2-.3-1.2-1.1,0-.2,0-.4.1-.6.3-.6.2-1.3.2-2,0,0,.2-1.5.2-1.9.2-.3.3-.5.7-.5,1.4.1,2.8.1,4,.8.4.8,1.5,1.2,1,2.4h0Z"/>
  <path class="cls-2" d="m280.67,99.4c-.2,0-.4.1-.6.2-.1,2.1.9,3.1,3.2,3.1.5,0,1-.1,1.5-.2.7-.4,1.5-.5,2.6-.7-.7.9-1.2,1.6-1.7,2.3-2.6,1.7-5.4,1.5-7.5-.4-.9-.8-1.4-2-1.4-3.2,0-.8,0-1.5-.6-2.2-.4-.4-.6-1.2.5-1.2.4,0,.6-.3.6-.7.1-.8.1-1.6.2-2.4v-.3c-.2-1.1-.4-2.3-.7-3.4-.1-.7.1-.8.7-1,.9-.2,1.8,0,2.7,0,1,0,2,.1,3,.1,1.2-.1,2.3.1,3.4.3.5.1,1.1.4,1,.8-.1.5-.5,1.1-1.2,1.1h-1.8c-1.1.3-2.2.3-3.3.2-.7-.1-1,.2-1,.9,0,.8.1,2.4,0,2.5-.3,1.5.5,1.3,1.5,1,1.6-.3,3.3-.5,4.9-.7.4,0,.9-.3,1,.2s-.3.8-.7,1c-1.9,1.1-3.8,2.6-6.3,2.7Z"/>
  <path class="cls-2" d="m139.27,59.1c-1.5.9-3.2,1-4.9,1.3-1,.3-2,.4-3,.5-.4,0-.8.1-.9.6-.3,1.2-.2,2.4.2,3.6.3.8,1,1,1.8,1,1.9,0,3.7-.4,5.5-.9.4-.1.8-.4,1.1.1.2.4-.2.7-.5,1-1.4,1.4-3.2,1.8-5.1,2-3.9.3-6.2-1.8-5.8-5.4.3-2.6.2-5.2.5-7.7.1-.5-.2-.6-.4-.9-.5-.7-.2-1.6.6-1.6s1.5-.4,2.3-.2c1.5-.5,2.9-.7,4.5-.4.3-.1.7-.1.7.5s-.1,1-.7,1.1c-.9.2-1.8.3-2.7.4-.4,0-.7.1-1.1.1s-.7.2-.7.6c0,1-.1,1.9-.1,2.9-.1.8.3.9,1,.8.7-.2,1.4-.2,2.1-.1,1.8-.2,3.5-.4,5.3-.3.3,0,.7-.2.8.2.2.4-.2.6-.5.8h0Z"/>
  <path class="cls-2" d="m220.77,92.7c-.1.3-.3.7-.7.7-1,.1-1.9.5-2.9.4-1.4.2-2.7.2-4-.2-.1,0-.2-.1-.3-.1-1-.3-1.7-1.2-1.3-2,.4-.9,1.3-.9,2.1-.7s1.5.4,2.3.5c1.5,0,3,.1,4.4.7.2.2.6.3.4.7h0Z"/>
  <path class="cls-2" d="m116.27,102.7c-.5.7-1.2.2-1.8,0-1.3-.4-2.7-.2-4-.2-1.2.3-2.5.6-3.7.9-1.7.4-3.2-.5-4.6-1.4-.8-.6-.6-1.3.3-1.7.9-.3,1.7-.8,2.7-.3.7.3,1.3.1,1.6-.9,1-3.1,1.7-6.2,1.5-9.5-.1-.7-.2-1-1.2-1-1.2,0-2.4-.3-3.5-1-.5-.2-.9-.5-.8-1,.1-.6.7-.4,1.1-.7,1.3-.8,2.5,0,3.8-.1.6,0,1.2-.1,1.8-.1,1.6-.3,3.2.3,4.9.2.8,0,1.2.6,1.3,1.3,0,.9-.7,1.1-1.4,1.3-.6.2-1.3.1-2,.2-.5,0-.9.1-.8.6.5,2.8-.2,5.4-.9,8.1-.2.7-.2,1.5-.3,2.2,1.4-.1,2.8-.1,4.2.2.6.1,1.1.4,1.5.9.3.6.8,1.3.3,2Z"/>
  <path class="cls-2" d="m249.87,139.7c-1.9.9-3.8,1.2-5.8,1-1.2-.1-2.4-.3-3.4-1.2-.4-.5-.8-.9-1.3-1.4s-.6-1.1-.3-1.7.6-.7,1.1-.1c1.3,1.4,3.1,2.1,4.9,2.1,1.1,0,2.2.1,3.3-.4.9-.5,1.1-.9.3-1.7-.9-.9-2-1.5-3-2.1-1.4-.9-2.3-2.3-2.8-3.7-.9-2.5-.2-4,2.3-5.4.8-.3,4.2-.9,5-.7,1.2.3,1.5,2.5.6,3.4-.2.2-.4.1-.5,0-1.4-1.5-3.9-.6-4.6.6-.5.8-.4,1.3,0,2,1.2,1.6,2.7,2.8,4.2,4.1,1.7,1.2,2.4,4.1,0,5.2Z"/>
  <path class="cls-2" d="m263.07,68.4c-.3,1.2-.9,2.4-1.7,3.4-1.1.6-2.1.3-3.2-1-1.3-1.6-2.1-3.5-2.9-5.4-.6-1.2-1.1-2.4-1.4-3.6-.1-.3,0-.6-.3-.7-.4-.1-.5.3-.7.5-.9,1.5-1.8,2.9-2.7,4.4-.6,1-1.2,2-1.9,3-.3.5-.6,1.1-1.4.9-.7-.1-1.2-.6-1.5-1.3-.3-.8-.3-1.7-.4-2.6-.1-1.5-.1-3-.4-4.5-.3-.7-.3-1.4-.2-2.1-.1-.5-.3-1-.4-1.5-.1,0-.1-.1-.1-.2-.1-.2-.3-.5-.4-.8-.1-.6-.5-1.3.4-1.6,1-.4,1.9-.1,2.2.8.2.5.3,1,.4,1.5.4.9.5,1.8.6,2.8.6,1.3.1,2.7.5,4.3.6-1.1,1.3-2.1,1.9-3,.6-1,1.4-1.9,2.1-2.8.7-1,1.7-1.2,2.7-1.1.8.1,1,1.1,1.2,1.7,1,2.9,2.1,5.8,3.4,8.6.2.1.4.1.7,0,.6-2.7,1.3-5.3,1.7-8,.1-.6.2-1.2.3-1.8,0-1,.3-2,.5-2.9s1-1.5,1.8-1.5c.9,0,.6.9.7,1.5.5.4-.9,10.6-1.5,13h0Z"/>
  <path class="cls-2" d="m147.97,93.8c1.7,1.7,3.2,3.5,3,6.2-.1,1.4-.9,2.1-2.2,2.5-1.8,1.3-5,1.2-6.3-.9-.4-.7-.6-1.3.1-1.9.5-.6,1-1.1,1.8-1.3.3-.1.6-.4.8-.1.2.3,0,.6-.2.8-.8,1.2-.8,1.3.6,1.9.1,0,.2,0,.4.1h1c.3-.1.5-.2.8-.3.5-.5,1.3-.7,1.1-1.6-1.3-2.2-3.2-4.1-4.4-6.3-1.6-3-.6-4.5,1.7-5.3,1.7-.5,3.5-.2,5.2.7.3.1.4.3.4.7.3.9-.5,1.4-.7,2.2.1.3,0,.5-.3.6-.3,0-.4-.3-.5-.6-.4-1.3-1.3-1.7-2.6-1.5-1.1.2-1.5.9-1.1,2,.3.6.9,1.4,1.4,2.1Z"/>
  <path class="cls-2" d="m218.77,131.7c-.2-1.1-.6-2-1.1-3-.9-2.1-2.5-3.7-4.6-4.4-1.8-.6-3.8-.7-5.7-.5-1.4.2-2.4,1.2-2.5,2.6-.1,2.5-.2,4.9-.8,7.4-.3,1.3-.2,2.7-.7,4-.2.5-.4.9-.9.9-.9,0-.9.5-.7,1.1.2,1.4,1.1,2,2.3,2.4.5.6,1.1.6,1.8.3.4-.2.8-.3,1.3-.3,3.3.1,6.2-1.3,8.9-3.1,1.9-1.1,3.2-5.2,2.7-7.4h0Zm-4.9,4.9c-1.6,2.1-4,3-6.6,3.4-.8.1-.9-.1-.7-.8.4-1.3.8-2.5.9-3.8.2-1.6.4-3.3.4-4.5,0-1.3.4-2.6.2-3.9,2.3-.7,4.3,0,6,1.5,3.1,2.9,2,5.2-.2,8.1h0Z"/>
  <path class="cls-2" d="m180.47,105.1c-.1.8-.5,1.4-1.4,1.3-.8,0-1.6-.3-1.7-1.3-.3-2.1-.2-4.2-.2-6.3.1-1.5.1-3.1.1-4.7,0-.6,0-1.6.8-1.9,0,0,1.7-.3,1.9.1.7,1.5.6,3,.5,4.5v3.2c.1.6.1,4,0,5.1Z"/>
  <path class="cls-2" d="m294.27,137.5c-.4,1.2-.4,5-.4,5.4,0,3.7-2.6,1.1-2.7.8-.1-.2,0-.9-.1-1.1-.1-.3-.2-.6-.4-.7-.1.2-2.3,1-3,1.2-1.8.4-3.5.6-5.3.5-3.1-.3-5.1-3.9-4.9-7.1.1-.9-.3-1.8-.1-2.7.2-.7-.1-4.8,3.9-6.8,1.5-.7,2.8-1.9,4.6-2.1.5,0,.9-.2,1.4-.2,2.4-.2,3.5.8,3.5,2.1,0,.5-.9,2.3-1.5,2.2-.7-.1-.6-.9-.7-1.4-.4-.4-2.6.1-2.9.3-.6.4-1.2.8-1.9,1.2-2.1,1.2-2.9,3.2-3.4,5.3-.2,1-.3,1.9-.3,2.9.1,2.9,2.5,4.1,4.8,3.5,1.7-.4,3.4-.7,4.7-2.1.2-.3,1-.8,1.2-1.1s-.4-.3-.6-.5c-1,0-2.1.1-3-.4-.1-.2-.3-.3-.4-.5-.5-.8-.6-1.3.6-1.4.4,0,4-.2,6.1-.2.7,0,.9.6,1,1.2.1.4.1,1-.2,1.7h0Z"/>
  <path class="cls-2" d="m317.77,128.8c-.7,3.9-2.1,16.1-7.5,8.8l-.3-.2c-2-1.5-3.3-3.8-5.1-5.2-1.1,2.7-.6,5.8-1.9,8.5,0,1.4-2.1,1.2-2.6.2-.7-2.8.3-6.1.9-8.8.4-1.2-.2-3.3,1.2-4,2.3-1,3.8,1.4,5.2,2.9.6.2,4.8,6.1,5.3,3.4.9-2.9,1.8-5.8,1.9-8.9.1-1.6,1.4-1.1,2.3-1.2,1.9,0,.8,3.2.6,4.5Z"/>
  <path class="cls-2" d="m198.27,102.2c-.2.1-.2,0-.2-.1h0c.1,0,.1.1.2.1Z"/>
  <path class="cls-2" d="m194.17,59.8h-.2c0-.1.1-.2.1-.2,0,0,0,.1.1.2Z"/>
  <path class="cls-2" d="m259.47,69.1s0,.1-.1.1l.1-.1h0Z"/>
  <path class="cls-2" d="m83.27,126.1c-.2-.3-2-1.3-2.4-1.4-3.1-1.1-5.4-1.2-8.2,1.2-2.9,2.6-3.2,6.1-2.9,9.7.1.9.1,1.9,1,2.6.5,1.2,1.7.9,2.6,1.3.8.4,1.8.7,1.9.8.9,1,2.1,1.2,3.5.5,2.4-1.2,4.5-2.9,5.6-5.4,2.4-5.3-.7-8.6-1.1-9.3Zm-.9,7.3c-1.1,1.8-2.4,3.3-3.9,4.8-.5.5-1.2.8-1.9.4-.4-.2-3.4-1.6-3.4-2.4.1-1.3-.3-2.7,0-4,.2-1.3.6-2.5,1.3-3.6,1.8-2.9,5.7-2.6,7.6,0,1.1,1.7.9,3.2.3,4.8Z"/>
  <path class="cls-2" d="m233.47,138.3c.2.3-.1.6-.3.8-.6.8-1.3,1.4-2.1,1.7-1.1.3-2.1.7-3.2.7-2.8.8-5.9-.9-6.4-3.6-.2-1.2.3-2.4.7-3.6.5-2.8.7-5.7,1.8-8.3.4-1,1.1-1.5,2.2-1.1.5.2.7,1.2.7,1.5.2.7.8.6,1.4.7,1,0,2,.1,3,.1.6,0,1.1.3,1.6.6.4.3.5.6,0,.9-.7.6-1.5,1.2-2.5,1.2-1.2.1-2.4.4-3.6.2-.4,0-.8,0-.9.4-.1.7-.2,1.4.1,2,.2.5.7.2,1.1.1,2-.6,3.9-1.3,6-1.5h.8c-.5,1.4-1.7,1.8-2.7,2.2-1.3.5-2.4,1.4-3.7,1.7-.3.1-.5.2-.8.2-1.6,0-1.9.2-1.9,1.6,0,1.1.6,1.8,1.9,1.8,2,0,4.1.1,6.1-.4.2,0,.5-.1.7.1h0Z"/>
  <path class="cls-2" d="m217.67,93.3s.1.1,0,0c.1.1,0,.1,0,0h0Z"/>
  <path class="cls-2" d="m120.67,132.6c-.6-.3-1.1-.8-1.7-1.2-.7-.4-.6-.7-.2-1.2,1.4-1.7,1.1-4.7-.7-6-2.3-1.7-5.4-1.1-7.1,1.2-1.2,1.1-1.6,2.5-1.7,4.1-.1,1.1-.3,2.2-.7,3.2-.5,1.4-.8,2.9-.8,4.4,0,.5,0,.9-.3,1.4-.3.7,0,1.7.8,1.9,2,.6,4.1.8,6.2.2,2.6-.4,4.6-1.9,6.4-3.6,1.1-.9,1-3.7-.2-4.4h0Zm-1.8,2.8c-.5,1-1.5,1.6-2.4,1.9-.7.2-1.5.4-2.2.8-.8.4-1.6.4-2.5.2-.3-.7.5-6.7.5-7.6.1-1.5.4-2.9,1.2-4.2,2.1-.5,3-.2,2.9,1.3,0,.8-.1,1.9-1.2,2.3-.3.1-1.3,1-1.7,1.2-.6.2-.7.6-.6,1.2.1,1,.5,1.3,1.5,1.2.7-.1,1.4,0,2-.2.9-.1,1.7,0,2.3.8.3.4.4.8.2,1.1h0Z"/>
</svg>