<?xml version="1.0" encoding="UTF-8"?>
<svg id="Layer_1" data-name="Layer 1" xmlns="http://www.w3.org/2000/svg" viewBox="0 0 444.32 102.43">
  <defs>
    <style>
      .cls-1 {
        fill: #121212;
        stroke-width: 0px;
      }
    </style>
  </defs>
  <path class="cls-1" d="m358.81,28.18c4-7.12-.32-17.28-9.21-16.46-3.23.43-5.53,2.19-7.75,4.07-1.17,1.06-2.82,1.72-3.66,3.03-1.29,2.22-1.25,4.9-2.28,7.29-.86,2.73-2.16,5.34-3.05,8.03-1.44,2.98-2.55,5.94-3.9,9.05-.34.86-.69,1.96-.29,2.78.75,1.67,3.63,1.4,4.57.1,1.82-2.67,2.77-5.98,4.03-8.95.3-.78.85-1.34,1.7-.82,6.69,5.13,16.4-1.74,19.77-7.94l.08-.17Zm-4.72-1.37c-1.31,2.94-3.93,5.52-6.92,6.86-2.46,1.14-6.11,1.38-7.04-1.63-.45-1.54.22-3.13.64-4.61.58-1.8,1.21-3.87,1.76-5.51,1.27-2.8,2.87-5.48,5.99-6.47,1.11-.5,2.19-.67,3.17,0,3.31,2.04,3.35,8.02,2.45,11.23l-.05.13Z"/>
  <path class="cls-1" d="m413.49,22.11c-1.12-2.39-4.01-3.73-6.5-4.13-3.3-.86-6.51.37-8.9,2.74-2.77,2.26-7.05,8.82-3.96,12.01,2.7,2.36,6.35.92,9.49.37.74-.24,1.51-.54,2.17-.9.71-.44,1.37-.96,1.54-.77.13.24-1.38,6.45-1.57,7.31-.76,1.85-1.61,3.33-2.45,5.25-1.12,1.83-1.61,3.52-3.08,4.89-1.37.89-3.22,1.29-4.79,1-1.27-.32-2.97-.41-3.76-1.36-.64-.74-1.6-2.51-2.52-1.01-1.45,2.08,1.16,4.29,2.75,5.1,3.58,1.73,8.52,1.59,11.94-.57,1.56-1.15,2.6-2.9,3.35-4.66.9-1.46,1.68-3.01,2.28-4.69.86-1.87,1.55-3.9,1.79-5.86.08-.65.37-1.26.71-1.83.93-1.54,1.11-3.43,1.7-4.65.56-1.24.54-2.56.84-3.98.33-1.45-.42-2.86-.95-4.09l-.08-.16Zm-7.91,5.75c-1.17,1.11-2.65,2.17-4.17,2.68-.92.04-1.92.13-2.8-.05-.42-.27-.47-.78-.4-1.3,1.03-2.91,3.08-5.52,5.42-7.48.82-.66,1.95-.18,2.86.12.77.25,1.26,1.07,1.48,1.92.25.65.55,1.31.25,1.98-.39,1.16-1.96,1.04-2.54,2l-.11.12Z"/>
  <path class="cls-1" d="m340.85,83.38c-.65-2.99-4.38-3.16-6.75-2.29-1.64.55-3.3,1.72-4.95,2.53-1.32.64-.9-1.18-1.04-1.86-.19-1.21-1.43-2.11-2.63-1.7-1.46.56-1.34,2.24-1.76,3.58-.59,1.63-1.06,3.34-1.53,4.99-.67,1.84-1.25,3.48-2.13,5.02-.49.85-1.1,2.17-.32,2.95.83.88,2.62.94,3.46-.01.6-.69,1.13-1.63,1.77-2.36,2.86-3.19,4.97-7.17,9.13-9.11,4.98-.9-1.78,10.65-2.39,12.49-.72,1.52-.04,3.47,1.91,2.98,1.59-.4,2.94-1.64,3.84-2.98,1.56-1.58,2.43-3.86,2.75-6.17.71-2.46,1.49-5.4.68-7.91l-.05-.15Z"/>
  <path class="cls-1" d="m202.98,20.49c1.37,1.2,3,1.93,4.83,2.24.84.38,3.61.12,3.29,1.54-1.14,3.04-2.23,6.13-3.02,9.3-.27,1.4-.58,3.18.4,4.36,1.32,1.58,3.84.43,4.56-1.17.33-3.11,1.65-6.35,2.77-9.25.54-1.43.77-3.28,1.68-4.52.35-.36.9-.42,1.43-.49,2.36-.3,4.71-1.1,7.13-1.36,1.28.05,2.09-.89,3.16-1.42.51-.26,1.58-.14,1.89-.53-.13-.4-.98-.32-1.38-.36-3.26-.27-6.59.18-9.85.02-1.17-.2-.63-1.59-.36-2.35.84-2.37,1.48-4.84,2.03-7.31.08-.41.13-.88-.04-1.26-.41-.8-1.56-.94-2.4-1.03-2.72-.11-3.39,3.01-3.71,5.11-.5,2.42-1.45,4.84-2.42,7.09-1.62,1.81-4.18.07-6-.55-.93-.28-1.98-.64-2.96-.47-1.14.22-1.83,1.44-1.14,2.28l.11.12Z"/>
  <path class="cls-1" d="m70.06,46.34c5.36-2.68,7.68-9.14,10.64-14.01,3.11-5.33,5.72-11.08,7.81-16.96.58-1.6-1.25-3.15-2.57-2.73-1.22.79-1.66,2.64-2.33,3.93-1.43,3.73-3.56,6.99-5.16,10.67-.52,1.31-1.77,3.2-2.58.9-.94-2.61-1.35-5.6-3.05-7.86-1.24-1.26-2.92-2.04-4.32-2.83-.83-.52-1.7-.19-1.97.86-.42,1.24.28,2.25,1.22,2.96,2.86,2.46,3.19,6.54,5.17,9.57.62,1.04,1.77,2.02,1.27,3.34-1.3,3.42-4.32,5.97-5.63,9.33-.66,1.38-.86,3.51,1.35,2.88l.15-.05Z"/>
  <path class="cls-1" d="m261.82,33.17c.49-1.19,1.38-2.3,1.66-3.76.48-2.74,1.75-7.75-2.28-8.16-2.39-.24-2.97,2.12-2.97,4.03-.08,4.06-1.77,7.81-2.98,11.63-.82,2.3.6,3.79,2.95,2.68,1.91-1.3,2.71-4.27,3.55-6.26l.07-.17Z"/>
  <path class="cls-1" d="m148.2,77.71c-1.71-2.3-4.68-1.11-6.92-.22-1.54.74-3.01,2.58-4.72,2.87-.73-.13-.67-2.08-1.45-2.82-1.16-1.09-2.56.71-2.94,1.75-.96,2.78-.74,6.31-2,9.07-.93,1.33-1.52,2.94-2.42,4.35-.79,1.15-1.41,3.03-.13,4.03,3.14,1.4,6.33-4.83,6.99-7.33.88-2.21,2.45-5.2,4.17-6.53,1.25-1,2.74-1.44,4.15-2.1.4-.2.9-.36,1.33-.28,2.72,1.17.9,6.95.66,9.29-.19,1.88-3.22,6.91-1.65,8.13,5.84,1.17,8.98-16.82,5.04-20.08l-.12-.14Z"/>
  <path class="cls-1" d="m124.07,75.47c-.71-.61-1.52-1.02-2.1-1.76-1.25-1.8-3.82-3.08-5.99-2.05-5.52,2.07-9.52,6.82-12.4,11.84-2.27,3.4-3.44,7.49-2.86,11.6.22,1.53,1.47,2.65,2.98,2.89,1.73.18,3.38-.78,4.98-1.45,2.3-1.57,4.29-3.56,6.32-5.43.79-.43,1.47-1.61,2.35-1.74.22.08.26.49.26.76-.1,1.66-.9,3.09-.83,4.86-.17,1.81,1.45,4.06,2.9,2.06,1.68-3.49,2.3-7.3,3.81-10.95.84-2.2,1.17-4.44,1.31-6.75.1-1.34.43-2.75-.6-3.73l-.13-.12Zm-8.54,10.37c-1.46,2.14-7.34,8.3-10.07,7.11-.38-.22-.43-.82-.43-1.27-.03-3.04,1.16-5.73,2.52-8.38,2.1-2.67,3.64-5.76,6.94-7.15,1.26-.69,3.25-.93,4.34.05.87.93,1.86,2.22,1.23,3.57-.52,1.01-1.08,2.1-1.79,2.96-.95.89-2.04,1.79-2.64,2.96l-.09.15Z"/>
  <path class="cls-1" d="m92.82,78.52c-2.69-4.64-8.45-.31-11.65,1.49-2.52,1.65-.87-2.2-.8-3.37.24-2.52,1.15-4.45,1.68-6.81.57-2.63,1.84-5.13,1.17-7.75-.55-1.41-1.7-1.12-2.57.05-2.2,2.82-2.41,6.54-3.71,9.77-1.11,3.72-.93,7.77-2.38,11.38-1.93,3.34-2.64,7.02-4.05,10.6-.58,1.35-2.16,2.95-.95,4.36.52.58,1.29.74,2,.4,1.97-.89,2.8-3.2,3.51-5.11,2.51-5.22,6.04-10.75,12.09-12.17,6.08-.44,1.07,10.94.39,13.82-.2.74-.16,1.73.58,2.1,4.64.85,5.54-6.73,5.79-10.11.78-2.87.54-5.95-1-8.49l-.1-.16Z"/>
  <path class="cls-1" d="m312.86,96.64c-4.22,1.55-11.38,2.51-12.41-3.49-.25-1.22-.52-3.23.46-3.8.83-.45,1.9-.11,2.81-.15,1.5.05,2.68-.93,4.25-1.58,1.66-.67,3.22-1.48,4.14-3.01,1.66-1.95,3.05-4.27,3.34-6.94.14-1.54.1-3.34-1.2-4.12-1.32-.75-3.02-.92-4.52-.77-4.35.66-8.49,3.48-10.69,7.31-1.03,2.04-2.56,3.9-3.1,6.14-.75,4.39-2.02,9.89,1.12,13.67,2.33,2.41,5.94,2.7,9.11,2.46,3.02-.5,5.5-1.97,7.87-3.68,1.48-1.2,3.15-2.43,3.75-4.3.18-.53.17-.78-.06-.64-1.2,1.13-2.9,2.6-4.69,2.86l-.18.05Zm-6.3-19.12c5.42-3.43,4.85,2.87,1.89,5.59-1.38,1.44-3.45,1.85-4.9,3.01-.42.33-1.06.64-1.57.42-.49-.3.08-2.45.25-2.93.63-2.46,2-4.62,4.18-5.99l.15-.1Z"/>
  <path class="cls-1" d="m54.31,15.02c-2.63-1.28-5.86.69-7.76,2.5-.4.42-1.04.78-.91-.13.87-2.65,1.14-5.47,1.6-8.08.8-2.32,1.27-4.79,1.65-7.19.24-1.75-2.46-3.1-3.24-1.2-1.01,2.37-1.61,4.83-1.83,7.41-1.17,3.41-1.44,7.06-2.81,10.4-1.06,3.21-2.33,6.14-4.38,8.78-.93,1.52-3.01,8.03.59,7.03,2.45-1.05,3.55-3.64,4.45-5.96.77-1.44,1.66-2.93,2.52-4.33.84-1.13,1.65-2.26,2.67-3.25.83-.7,1.91-1.15,2.72-1.89.62-.56,1.26-1.23,1.55-.9.21.22.2.82.17,1.19-.23,2.23-.49,4.45-.68,6.7-.32,3.34-1.41,6.5-2.18,9.64.03.46.24.79.56.88,1.87.07,3.14-2.22,3.81-3.78,1.28-3.76,2.03-7.81,2.17-11.81.26-1.9,1.29-4.52-.5-5.91l-.14-.09Z"/>
  <path class="cls-1" d="m290.2,16.76c-.03.29-.29.5-.61.63-.83.33-1.68.8-2.43,1.3-1.29,1.05-2.07,2.61-3.05,3.91-.21.28-.31.56-.36.91-.12,1.92-1.08,3.79-.85,5.79.12,2.01.99,4.4-1.49,5.26-1.19.71-2.8,1.04-4.11.55-1.44-.71-2.94-1.14-4.24-2.12-.49-.31-.99-.61-1.33-1.05-.64-.76-.87-2.49.66-2.18,1.37.25,2.49.92,3.88,1.06.76.27,1.49.35,1.58-.65-.05-2.58.34-5.28,1.7-7.57.88-2.04,1.87-4.2,3.69-5.47.79-.83,2.02-1.65,3.28-1.75.94-.13,1.79.42,2.61.54.53.07,1.03.25,1.07.7v.14Z"/>
  <path class="cls-1" d="m155.09,24.71c-.08-1.45-1.53-6.92,1.14-6.68,1.1.36,2.17.79,3.32.24,1.27-.38,1.3-1.69.26-2.36-2.61-1.62-7.06-3.39-8.7.39-2.12,4.79.7,9.86.2,14.76-.12,1.19-1.32,1.05-2.27,1.05-3.92.29-5.27-3.41-3.01-6.3,3.18-5.08-3.44-.81-4.36,1.03-1.22,2.51-1.15,5.93,1.53,7.47,2.16,1.22,4.59,1.16,6.88,1.73,1.76.34,3.17-.37,4.08-1.59,2.16-2.56,1.32-6.55.95-9.55l-.03-.18Z"/>
  <path class="cls-1" d="m359.28,94.08c-1.44.73-3.68,2.05-3.49,3.96.19,1.41,1.79,2.64,3.17,2.33,1.03-.52,2.5-.8,2.5-2.24.15-1.01.28-2.19-.48-2.99-.48-.59-.96-1.26-1.55-1.11l-.15.04Z"/>
  <path class="cls-1" d="m129.7,35.88c1.04-2.82,2.16-5.72,3.26-8.54.48-1.62.6-3.43,1.09-5.02.42-1.62,1.28-3.75.58-5.47-.45-.73-1.81-1.67-2.66-1.41-.37.14-.66.62-.88,1.15-.64,1.53-.8,3.22-1.15,4.83-.81,4.15-2.41,8.04-3.91,11.91-.47,1.29-1.29,3.41-.02,4.4,1.34.73,2.94-.55,3.59-1.7l.09-.16Z"/>
  <path class="cls-1" d="m240.79,80.96c-1.74-.11-3.44.27-4.9,1.27-.91.45-1.92.88-2.64,1.6-.72.57-.83-1.27-1.57-1.13-.84.15-1.4,1.06-2.1,1.51-.74.6-1.39,1.36-1.53,2.36-.09,2.71-.96,5.32-1.37,7.99-.19.97-.84,2-.58,3.06.16.94.69,1.68,1.33,2.07.82.25,2.12-.28,2.87-1.03.89-.92,3.5-8.26,3.75-9.05.16-.64.38-1.19.79-1.72.76-1.4,1.95-2.39,3.3-3.21.81-.75,5.04-2.69,2.79-3.71l-.15-.03Z"/>
  <path class="cls-1" d="m297.46,78.9c-.32-.58-1.19-.65-1.81-.77-2.59-.39-5.3-.1-7.89.04-1.79-.52.37-3.18.34-4.38.07-1.87.48-4.12-.83-5.66-.52-.6-1.39-.55-2.07-.18-1.6.81-2.89,2.4-2.38,4.23.44,1.76-.07,3.55-.48,5.27-.23,1.03-1.15,1.34-2.09,1.31-1.54.1-3.08.29-4.62.27-.67.08-1.33-.16-1.21-1.07.12-2.38,2.04-4.53,1.74-6.94-.3-1.64-.09-3.37-2.23-1.92-3.02,1.48-3.22,4.89-4.28,7.7-.34,1.34-1.9,1.45-2.92.77-.9-.58-1.76-1.25-2.83-.48-1.09.76-2.71,1.16-3.17,2.48-.18.81.88,1.46,1.4,1.85.71.45,2.76,1.61,3.65,1.91,1.6.43.9,1.7.34,2.84-.37.96-.93,1.66-1.41,2.57-1.13,2.75-2.41,5.71-2.5,8.8.03.96.77,1.66,1.5,2.26,1.45.58,2.25-2.32,2.74-3.32,1.15-3.3,2.8-6.67,4.52-9.76.68-1.06,1.12-2.62,2.69-2.5.87.1,1.75-.1,2.56-.26.42-.04.85.08,1.3.14.58.09,1.32-.3,1.65-.14.18.07.26.31.2.61-.74,2.17-2.08,4.09-2.94,6.39-.88,1.8-1.61,3.59-2.08,5.52-.42,1.37-1.65,4.1.61,4.37.77,0,1.25-.61,1.91-1.04,1.17-.8,1.52-2.2,2.23-3.39,1.37-2.78,2.77-5.58,4.46-8.09,1.21-3.16.7-5.41,4.87-5.67,2.23-.54,4.46-1,6.69-1.67.88-.38,2.36-.93,2.38-1.99l-.04-.12Zm-15.52,10s-.02.05-.04.07c.01-.02.03-.05.04-.07,0,0,0,0,0,0Z"/>
  <path class="cls-1" d="m264.99,12.75c.91-.13,1.29-.24,2.32-.14,1.5.13,2.88-.85,4.37-.68.16-.25-.54-.54-.73-.73-1.8-1.03-4.58-1.62-6.48-.59-.49.55-.59,1.96.39,2.11l.13.03Z"/>
  <path class="cls-1" d="m220.41,77.67c-1.22.73-1.99,2.03-2.42,3.39-.9,1.99-1.57,4.02-2.74,5.86-.98,1.83-1.72,3.72-2.99,5.38-.19.25-.69.96-.89.44-.07-.29.06-.71.12-1.01.5-1.96.04-4.03-.35-5.97-.33-1.32-1.33-2.42-2.35-3.27-2.28-.54-4.25,1.83-5.84,3.33-1.59,1.51-3.16,3.06-4.3,4.92-.25.33-.9,1.57-1.17.69.06-2.34.6-4.72.61-7.25.36-2.1.61-4.24-.13-6.28-.17-.48-.49-1-1-1.1-1.53-.32-1.74,1.03-2.42,1.6s-1.04,5.34-1.38,7.01c-.06,2.26-.59,4.15-.75,6.39-.08,2.86-1.91,9.08,2.91,8.57,1.85-.51,3-2.38,4.03-3.86,2.61-2.56,3.52-6.05,6.27-8.59,1.82-1.87,1.64,2.96,1.75,3.99.09,1.99.09,3.99-.3,5.96-.19,1.24-.23,2.94,1.01,3.64,2.9,1.18,4.74-2.4,6.29-4.25,1.71-2.33,3.41-5.21,4.76-7.87,1.37-3.11,2.66-6.24,3.43-9.56.35-1.19-.75-2.99-1.99-2.24l-.14.08Z"/>
  <path class="cls-1" d="m137.18,9.4c1.45-.36,3.22-.34,4.76-.35.33,0,.58-.05.61-.18-.86-1.62-3.85-2.2-5.52-2.2-.74-.04-1.6-.51-2.16.1-1.98,1.98.06,3.34,2.15,2.67l.16-.04Z"/>
  <path class="cls-1" d="m256.8,64.57c-.94-.03-2.13.45-2.73,1.29-.36.4-.84.8-1.15,1.22-.58.7-.03,1.8.38,2.35.82.66,2.59.07,2.65-.93.03-.21.09-.46.14-.67.14-.65,2.25-3.14.86-3.26h-.15Z"/>
  <path class="cls-1" d="m33.88,6.36c-.49-.14-.96.5-1.32.89-1.48,1.85-3.37,3.85-4.83,5.84-1.3,2.02-2.79,3.89-4.2,5.9-.5.67-1.41,1.81-1.97.55-.3-.64-.53-1.55-1.11-2-1.01-.82-2.63-1.21-3.73-.51-.42.29-.86.79-1.11,1-.68.65-1.51,1.14-2.19,1.78-1.12,1.17-1.78,2.45-3.07,3.54-1.54,1.61-3.36,2.93-4.99,4.36-2.19,1.82-1.67-1.99-1.42-3.19.35-2.01.41-4.04.66-6.04.23-2.31.23-4.63.19-6.93-.07-1.42-1.42-3.39-2.9-3.05-.52.2-.54,1.11-.55,1.69-.13,4.81-.48,9.7-1.06,14.45-.27,2.14-1.16,9.83,2.64,8.61,1.92-.79,3.79-1.84,5.27-3.29,2.89-2.71,5.78-5.49,8.41-8.38.31-.32.83-.54,1.17-.18.31.3.44,1.13.48,1.68.1,1.7.46,3.36.66,4.99.1.83.44,1.86,1.4,1.96,1.94.08,3.14-2.21,3.84-3.8,1.11-2.66,2.51-5.12,4.23-7.28,1.47-1.86,2.58-3.94,3.65-6.06.87-1.68,1.78-3.47,2.08-5.38.07-.55.02-.96-.17-1.11l-.07-.04Zm-1.66,2.66s0,0,0,0c-.04,0-.08,0-.12-.01h.12Z"/>
  <path class="cls-1" d="m253.77,79.76c-.91.17-1.86,1.23-2.54,1.88-.66.59-1.06,1.3-1.23,2.19-.93,3.9-3.43,7.29-4.6,11.12-.53,1.73-1.78,3.02-1.96,4.88-.3,1.7,1.52,2.51,2.78,1.77,1.31-.98,2.18-2.39,2.83-3.9,2.18-3.75,3.93-7.82,5.45-11.84.45-.92.61-1.98.79-2.99.46-1.15.03-3.14-1.37-3.12l-.15.02Z"/>
  <path class="cls-1" d="m246.43,40.2c1.69-1.57,2.56-4.04,3.41-6.23,1.03-2.53,2.3-4.84,2.53-7.49.46-1.62,1.25-3.67,1.08-5.45-.21-1.49-.41-3.21-1.83-3.87-4.8-1.91-9.63,2.03-13.09,4.9-.38.28-1,.42-.89-.29.83-2.97,1.43-5.97,2.13-8.95.1-2.86.44-5.54.48-8.4-.04-.57-.21-1.12-.6-1.57-2.43-2.54-5.07-.21-4.92,2.83-.07,3.59-.41,7.17-.99,10.68-1.57,5.72-3.34,11.66-6.69,16.61-.65,1.01-1.79,2.77-.91,3.81,4.58,3.35,6.26-4.52,8.91-6.66,1.52-1.61,3.03-3.39,4.9-4.76,2.14-1.78,4.08-3.96,6.68-5.16,4.96-2.85-2.52,14.15-3.04,15.51-.56,1.68-2.52,3.4-1.8,5.15,1.11,1.46,3.43.65,4.55-.55l.11-.1Z"/>
  <path class="cls-1" d="m388.53,20.17c-.91-1.14-2.81-1.11-4.15-.86-1.14-.04-1.95-.95-3.17-1.33-1.25-.38-2.54-.8-3.84-.97-1.44-.2-2.85.37-4.17.89-2.03.67-4.04,1.95-5.15,3.76-.69,1.14-1.89,1.69-2.74,2.69-1.67,2.14-1.94,4.89-2.7,7.45-.39,1.3-.72,2.68-.62,4.03.26,2.24,2.8,3.46,4.76,3.82,3.73.24,7.07-1.48,10.26-3.4,2.19-1.19,1.95,3.53,4.43,2.33,2.34-1.54,2.32-4.82,3.28-7.16.87-2.72,2.12-5.72,3.41-8.38.36-.79.84-2.02.46-2.76l-.07-.11Zm-11.19,10.25c-.24,1.26-1.63,2.07-2.59,2.86-1.51,1.29-3.32,1.56-5.08,2.23-.6.22-1.22.28-1.65-.05-.95-.81-.42-2.25-.26-3.33.3-3.78,2.36-7.44,5-10.05,1.41-1.76,4.03-2.23,5.96-1.03,1.61,1.19.43,3.24.27,4.83-.36,1.55-1.43,2.93-1.62,4.38l-.04.16Z"/>
  <path class="cls-1" d="m185.89,68.87c-.19-5.66-3.77-2.22-5.67.32-2.8,4.92-3.8,10.36-5.92,15.56-.67,2.53-1.32,4.28-2.93.9-1-2.06-3.22-3.8-5.63-3.85-4.24,1.45-7.56,5.07-9.87,8.84-.85,1.45-.91,3.13-1.03,4.79-.09,1.06-.27,2.13.02,3.1,2.19,5.63,9.01,2.83,13.07,1.05.82-.36,1.65-.96,2.41-1.2.71-.23,1.11.1,1.42.79.38,1.05,1.38,2.03,2.55,1.67,2.01-1.04,1.8-4.08,2.9-5.92,1.88-3.61,4.19-6.97,5.59-10.84,1.44-4.93,3.24-9.82,3.09-15.04v-.17Zm-24.4,19.51c.98-.81,1.74-2.08,3.27-2.25,1.25-.14,2.48.5,3.2,1.55.89,1.76,5.44,4.79,2.89,6.59-2.5,1.34-5.19,2.13-7.94,2.82-1.19.4-2.22-.36-3.22-.96-2.18-1.21-.35-3.88.42-5.5.42-.73.71-1.66,1.28-2.17l.1-.09Z"/>
  <path class="cls-1" d="m369.18,72.27c-.26-1.21.65-7.05-3.4-7.05-2.85,0-5.24,1.63-7.43,3.37-.38.28-.66.68-.68,1.17-.05,1.48,1.41,2.13,2.62,1.27.84-.53,1.48-1.1,2.36-.97,1.3.04,1.92,1.32,1.62,2.48-1.06,2.24-1.53,4.78-2.75,6.91-.61.73-1.06,1.65-1.21,2.57-.16,1.7,2.37.74,3.23.23,1.37-.6,2.43-1.72,3.27-2.89,1.7-1.88,2.54-4.44,2.38-6.96l-.02-.14Z"/>
  <path class="cls-1" d="m369.33,39.52s.05.01.06,0c.08-.07.06-.15-.01-.21-.09.05-.11.12-.05.21Z"/>
  <path class="cls-1" d="m443.96,31.45c-1.64-.41-3.41.52-5,.62-.99.1-1.93.44-2.91.56-2.03.16-4.74-.63-5.31-2.84-.28-.93.49-1.29,1.23-1.46.99-.31,1.79-1.07,2.8-1.38.94-.32,1.68-.93,2.3-1.77,1.59-1.89,2.88-5.84-.4-6.65-1.11-.27-1.98-.77-3.25-.36-2.84.71-4.39,2.08-6.64,4.23-4.15,4.24-2.78,10.64,2.44,13.28,2.87,1.77,6.31,1.37,9.38.4,1.7-.87,3.06-1.31,4.46-2.71.56-.4,1.79-1.2,1.02-1.86l-.11-.06Zm-14.18-5.95c.01-.22.48-.53.58-.79.38-.7,1.16-2.06,2.1-1.37.33.29,0,.49-.19.68-.18.5-.4,1.15-1.02,1.3-.43.17-1.01.03-1.39.2l-.07-.02Z"/>
</svg>