<?xml version="1.0" encoding="utf-8"?>
<!-- Generator: Adobe Illustrator 28.0.0, SVG Export Plug-In . SVG Version: 6.00 Build 0)  -->
<svg version="1.1" id="Layer_1" xmlns="http://www.w3.org/2000/svg" xmlns:xlink="http://www.w3.org/1999/xlink" x="0px" y="0px"
	 viewBox="0 0 298.8 100.7" style="enable-background:new 0 0 298.8 100.7;" xml:space="preserve">
<style type="text/css">
	.st0{fill:#121212;stroke:#121212;stroke-width:0.5;stroke-miterlimit:10;}
</style>
<path class="st0" d="M61.9,88.1c3.9-0.4,7.8,0.5,11.6,1.2c2.9,0.5,5.8,0.3,8.8,0c5.3-0.6,10.7-1.2,16.1-0.3c2.8,0.5,5.7,0.5,8.6,0.6
	c2.3,0.1,4.7,0,7.1,0.3c4,0.6,8,1,12,1.2c2.3,0.2,4.6,0.1,6.8,0.4c2.6,0.3,5.3,0.7,7.9,0.8c5.2,0.3,10.5,0.7,15.8,0.1
	c4.8-0.5,9.7-0.2,14.5-0.1c8.6,0.1,17.2,0.2,25.8,0.7c7.3,0.4,14.7,0.3,22,0.5c1,0,2,0,3,0c5.8,0,11.4,1,17.1,1.4
	c3.7,0.2,7.5,0.1,11.3,0.1c4.8,0,9.6-0.6,14.4-0.8c4.1-0.1,8.2-1,12.3-1.5c2.1-0.3,4.3-0.4,6.5-0.6c0.6,0,0.8-0.2,0.5-0.7
	c-0.3-0.6-0.2-1.2-0.2-1.9c0.1-2.2,0.3-4.3,0.1-6.6c-0.3-2.8,0.5-5.4,1.2-8.1c1-3.5,1.4-7.1,1.5-10.7c0-3.9,0.4-7.9,1.6-11.7
	c0.6-1.7,0.7-3.5,0.6-5.3c-0.2-4.5,0.6-8.8,0.6-13.3c0-0.9,0-1.8-0.1-2.6c-0.2-1.9,0.7-3.4,1.1-5.2c0.3-1.7,0.3-1.7-1.4-1.7
	c-2.2,0-10.3-0.4-12.5-0.6c-1.6-0.2-38.8-1.7-40.4-2.2l39,1.5c2.3,0.2,10.6,1,13,0.7c0.7,0,1.3,0,2,0c0.5,0,0.6-0.2,0.6-0.6
	c0.3-2.3,0-4.8,0.8-7c0.2-0.4,1-1.7,1.3-1.9c0.2-0.1,0.5-0.2,0.7-0.3c1.4-0.2,2.6,0.3,4,0.6c0.2,0.2,0.4,0.4,0.7,0.4
	c0.4,0.5-0.1,1.1,0.3,1.6c0,0.1,0,0.3-0.1,0.4c-0.5,0.9-0.6,1.8-0.6,2.8c0,3.6-1.4,3.9-3.7,4.7c-0.1,0-0.2,0-0.2,0
	c-0.7,0.3-2,0-2,0.2c-0.2,1.2-0.8,2.1-1,3.3c-0.5,2.5-0.3,4.9-0.4,7.4c-0.1,3.1-0.1,6.3-0.5,9.4c-0.2,2.4,0.1,4.8-0.5,7.1
	c-1.4,5-1.4,10.2-1.7,15.3c-0.1,2.3-0.7,4.6-1.2,6.8c-0.9,3.4-1.8,6.8-1.2,10.5c0.2,1.2-0.2,2.5-0.3,3.8c0,0.4-0.1,0.9-0.1,1.3
	c0.1,1.9,0.4,2.2,2.2,2.3c1.9,0,3.7,0.4,5.3,1.5c0.7,0.5,1.7,1.1,1.1,2.3c-0.1,0.2,0.2,0.4,0.2,0.7c0,0.9,0.4,1.8-0.4,2.7
	c-1.6,1.8-1.6,1.8-3.8,0.7c-0.7-0.4-1.5-0.7-2.2-1.2c-1.4-1.2-2.4-2.5-2.5-4.4c0-0.7-0.4-1-1.1-0.9c-0.9,0.1-1.8,0.1-2.7,0.2
	c-4.6,0.7-9.2,1.3-13.9,1.9c-0.7,0.1-7.5,0.1-10,0.2c-2.5,0.1-5,0.3-7.5,0.5c-3.9,0.3-7.8,0.1-11.7-0.2c-5.1-0.4-10.2-1.1-15.4-1
	c-5.8,0.1-11.7-0.2-17.5-0.1c-3.9,0.1-7.8-0.5-11.7-0.7c-2.7-0.1-5.5,0.1-8.2-0.1c-4.7-0.2-9.4-0.2-14.1-0.5
	c-3.1-0.2-6.2-0.1-9.3-0.1c-5.5-0.1-11,0.8-16.5,0.5c-2.9-0.2-5.9-0.4-8.8-0.8c-2.5-0.3-5.1-0.3-7.6-0.5c-3.7-0.2-7.3-0.5-10.9-1.1
	c-3.1-0.5-6.2-0.4-9.3-0.5c-2.3,0-4.5-0.6-6.8-0.6c-5.1-0.1-10.2-0.8-15.3-0.3c-2.5,0.3-4.9,0.5-7.4,0.8c-2.4,0.3-4.8-0.4-7.1-0.7
	c-2.2-0.3-4.3-0.9-6.6-0.8c-3.2-0.2-6.4,0.4-9.6,0.2c-3.4-0.2-6.7-0.8-10-1.5c-1.7-0.4-3.4-0.4-5.1-0.4c-3.5,0-6.9,0.4-10.2,1.4
	c-2.1,0.6-4.3,0.4-6.5-0.3c-1.8-0.5-3.8-0.1-5.8,0.3c-1.5,0.3-3,0.9-4.5,1.1c-1.1,0.2-2.2,0.3-3.2-0.4c-0.5-0.3-0.8-0.3-0.8,0.5
	c0.1,0.8,0,1.7,0.1,2.5c0.3,2.1-1.2,4.9-3.1,5.8c-0.2,0.1-0.4,0.1-0.7,0.1c-1.5-0.3-3-0.5-4.5-0.8c-0.7-0.1-1.2-0.5-1.3-1.3
	c-0.3-2.5,0.2-4.3,2-6c0.9-0.8,1.7-1.5,3-1.4c0.4,0,0.8-0.2,1.2-0.3C9.2,88,9.2,87.9,9.4,85c0.2-3.2,0.2-6.5,0.2-9.7
	c0-2.7,0.5-5.4,0.8-8.1c0.4-3.6-0.1-7.2,0.2-10.8c0.2-2.2,0.5-4.4,0.7-6.6c0.4-3.5,0.1-7,0.4-10.4c0.3-4.2,0.7-8.4,0.9-12.6
	c0.2-4.1,0.4-8.3,0.6-12.4c0-0.6-0.2-0.9-0.8-1.1c-1.4-0.5-2.6-1.2-4-1.6C7.5,11.4,6.6,10.5,6,9.5C5.5,8.8,5.5,8,5.6,7.2
	C5.7,6.1,5.9,5.1,6.1,4c0.2-1.5,1.2-2.7,2.4-3.6c0.9-0.6,3.2,0.4,3.5,1.5c0.3,1.5,0.7,3,1.4,4.4c0.3,0.7,0.4,1.5,0.3,2.2
	c0,0.8-0.1,1.5,0,2.3c0.2,1.9,1.2,2.4,3,1.7c1.4-0.5,7.1,0.1,8.1,0.3c2.6,0.5,5.2,1,8,0.8c2.5-0.2,5.1,0,7.6,0c1.6,0,3.2-0.2,4.8,0
	c1.3,0.2,2.3,1,3.7,0.9c2.7-0.2,5.4,0.2,8.1-0.2c2.2-0.3,4.5,0.1,6.7,0.3c2.9,0.2,5.7,0.4,8.6,0.5c0.2,0,0.3,0,0.5,0
	s0.3,0.1,0.5,0.1c0.2,0.2,0.5,0.1,0.7,0c4.1,1.3,8.3,2,12.6,2c0.5,0.4,1.1,0.2,1.7,0.1c0.9,0.4,1.9,0.1,2.9,0.2c0,0.2,0,0.3,0,0.5
	c-0.5,0-1,0-1.4,0c-0.3-0.4-0.6-0.3-1,0c-1-0.1-2.1,0-3.1-0.1c-2.2-0.2-4.5,0.1-6.7-0.5c-1.9-0.5-3.8-1.2-5.7-1.2
	c-2.9-0.1-5.7-0.7-8.5-0.7c-3,0-5.9-0.6-9-0.4c-3.3,0.3-6.7,0.4-10.1-0.4c-1-0.2-2-0.5-3.1-0.5c-2,0.1-4,0.1-5.9,0.3
	c-1.6,0.1-3.3-0.3-4.9,0c-2,0.3-4,0.4-5.9-0.6c-0.3-0.1-0.6-0.1-0.9-0.1c-2.3-0.2-4.7,0.1-7-0.4c-1.2-0.3-2.6,0.2-3.7,0.6
	c-0.7,0.3-0.1,1.6-0.3,2.5v0.1c-0.7,5.1-0.5,10.5-0.7,15.8c-0.2,3.8-1,7.6-0.8,11.5c0.2,2.8,0.1,5.5-0.3,8.2
	c-0.4,2.7-0.8,5.4-0.7,8.2c0.1,2.3-0.2,4.6,0,6.9c0.2,2.7-0.7,5.3-0.8,8.1c-0.1,4.1,0.2,8.2-0.5,12.3c-0.1,0.4-0.1,0.8,0.5,1
	c0.8,0.3,1.6,0.7,2.6,0.5c1.4-0.3,2.9-0.6,4.3-0.9c2.4-0.5,4.9-0.9,7.3-0.4c1.9,0.4,3.9,0.5,5.8,0c2.2-0.6,4.5-0.9,6.7-1.1
	c3.1-0.2,6.2-0.4,9.2,0.4C51.7,88.5,56.8,88.5,61.9,88.1L61.9,88.1z M12.8,9.8c0.1-2.6-1.1-4.9-1.6-7.3c-0.3-1.3-1.8-1.4-2.8-0.6
	C6.6,3.4,6.5,5.4,6.3,7.5c-0.2,1.3,0.5,2.2,1.6,2.7c1.2,0.7,2.4,1.4,3.8,1.8c1.3,0.4,1.2,0.4,1.1-0.8C12.8,10.7,12.8,10.3,12.8,9.8
	L12.8,9.8z M6,97.2c1.1,0.1,3-2.4,2.9-3.7c-0.1-1.1-0.4-2.1-0.1-3.2c0.2-1-0.2-0.9-0.9-0.7c-0.8,0.3-1.6,0.7-2.5,0.8
	c-1.7,0.2-2.7,1.2-3.5,2.5C1.3,93.8,1.1,95,1.6,96c0.5,0.9,1.5,1.1,2.5,1.1C4.7,97.1,5.3,97.2,6,97.2L6,97.2z M292.2,21.4
	c0,0.8,0,1.4,0,2.2c0,0.2,0,0.4,0.3,0.5c1.9,0.5,4.9-1.6,4.7-3.5c-0.1-1.4,0.1-2.7,0.4-4c0.1-0.6,0.2-1.3-0.8-1.4
	c-0.4,0-0.8-0.3-1.2-0.4c-1.4-0.3-1.8-0.1-2.4,1.2C292.3,17.7,292.2,19.5,292.2,21.4L292.2,21.4z M288.2,93.1c-0.4,0-0.9,0-1.4,0
	c-0.2,0-0.5,0.1-0.5,0.4c-0.2,0.7,0.5,2.9,1,3.3c1,0.6,2,1.3,3.1,1.8c1.9,1,2.1,0.8,2.1-1.3c0-1.9-0.4-3.5-2.6-4
	C289.4,93.1,288.9,93.2,288.2,93.1L288.2,93.1z"/>
<path class="st0" d="M112.7,18.8c1.2,0.2,2.3,0.1,3.5,0c3-0.2,6-0.4,9-0.6c2.2-0.1,4.4-0.3,6.6-0.1c1,0.1,2.1,0,3.1,0
	c3.9,0.2,7.7,1.1,11.5,1.1c3.9,0,7.8,0.1,11.7,0.1c2.5,0,5.1-0.3,7.6,0c1.6,0.2,3.2,0.2,4.9,0.4c5.2,0.7,10.4,1.1,15.6,0.4
	c3-0.4,6-0.4,9.1-0.4c3.3,0,6.7,0,10,0c1.9,0,18.7,0.9,20.5,1.1c1.1,0.1,2.4,0.3,3.6,0.2c0.6,0,3.2,0.4,3.9,0.4c0.8,0,1.6-0.1,2.4,0
	c0.2,0,1.8,0,1.8,0.5c-0.9,0.3-1.7,0.5-2.6,0c-0.5-0.3-1.2-0.5-1.8-0.4c-1.2,0.2-2.5,0-3.7,0c-1.5,0-2.9-0.4-4.4-0.2
	c-1.2,0.1-17.5-0.8-18.8-0.9c-1.6-0.1-3.2-0.6-4.7-0.4c-2.3,0.2-4.6,0-6.9,0.3c-2.8,0.3-5.7,0-8.4,0.5c-1.6,0.3-3.1,0.3-4.6,0.3
	c-5.3,0.1-10.6-0.9-15.9-1.2c-3.1-0.2-6.1-0.2-9.2-0.1c-2.9,0.1-5.8-0.1-8.6,0.1c-2.7,0.1-5.4-0.5-8.1-0.8
	c-4.4-0.6-8.7-0.7-13.1-0.6c-2.2,0-4.3,0.2-6.4,0.5c-2.3,0.3-4.7,0-7,0.5C112.9,19.3,112.8,19.1,112.7,18.8L112.7,18.8z"/>
<path class="st0" d="M93,17.4c0.7,0.2,1.3,0,1.9,0c0.3,0.4,0.8,0.3,1.2,0.2c2.1,0.4,4.2,0.5,6.2,1c2.1,0.5,4.2,0.3,6.3,0.3
	c0.2,0.7-0.5,0.5-0.7,0.7c-0.3-0.3-0.7-0.2-1.1-0.2c-1.3,0-2.6,0.3-3.8-0.1c-2.1-0.6-4.3-0.7-6.4-1c-1.4-0.2-2.8-0.3-4.2-0.4
	C92.4,17.6,92.9,17.8,93,17.4L93,17.4z"/>
<path class="st0" d="M275.1,70.6c-0.2,2.2-0.8,4.2-1.9,6.1c-0.5,0.8-1.1,1.2-2.2,0.6c-1.2-0.7-2.2-1.4-2.6-2.8
	c-0.2-0.7-0.6-0.6-1.1-0.3c-1.4,0.8-2.7,1.7-3.9,2.7c-1.2,0.9-2.4,0.8-3-0.3c-0.3-0.6-0.1-1.2-0.2-1.8c0-0.6-0.1-0.8-0.9-0.6
	c-1.3,0.4-2.2,1.4-3.3,2.1c-0.5,0.3-1,0.7-1.5,0.9c-0.8,0.4-1.7,0.8-2.6,0.1c-0.8-0.6-0.9-2.1-0.4-3.2c0.4-0.8,1-1.4,1.9-1.9
	c1.3-0.7,2.6-1.3,4-1.6c0.8-0.2,1.5-0.2,2.2,0.3c0.6,0.4,1,0.3,1.3-0.3c0.8-1.5,1.7-3,1.9-4.7c0.1-0.9,0.6-0.8,1.2-0.7
	c0.6,0,1,0.3,0.9,1c-0.4,1.5-0.6,3-1.4,4.4c-0.8,1.3-1.2,2.8-1.2,4.4c0,0.7,0.1,0.9,0.8,0.4c3.1-1.8,6.1-3.8,9-6
	c0.2-0.1,0.3-0.2,0.5-0.3c0.7-0.4,1.4-0.7,2.1-0.3C275.4,69.3,275.1,70,275.1,70.6L275.1,70.6z M271.8,75.5c0.4,0,0.5-0.4,0.6-0.8
	c0.3-1.2,0.4-2.3,0.9-3.4c0.1-0.2,0.2-0.4-0.1-0.6c-0.2-0.2-0.4-0.1-0.5,0c-1.4,0.6-2.5,1.5-3.6,2.4c-0.2,0.1-0.3,0.3-0.2,0.5
	C269.1,73.9,271.3,75.5,271.8,75.5L271.8,75.5z M253.2,76.2c0.4-0.1,0.8-0.2,1.1-0.4c1.4-0.7,2.6-1.5,3.8-2.5
	c0.3-0.2,0.9-0.4,0.6-0.8c-0.2-0.4-0.7-0.3-1.2-0.3c-1.1,0.2-2.1,0.6-3.2,0.9c-1,0.4-1.7,1.1-1.8,2.3
	C252.5,76,252.6,76.3,253.2,76.2L253.2,76.2z"/>
<path class="st0" d="M215,69.9c0.9,0.8,0.7,2,1,3c0.1,0.4-0.2,1,0.5,1.1c0.4,0,0.6-0.6,0.8-0.9c1.1-1.8,2-3.6,2.5-5.6
	c0.1-0.3,0.1-0.9,0.6-0.8s0.5,0.6,0.6,1.1c0.2,1.4-0.1,2.6-0.8,3.8c-1.1,1.7-2,3.4-3.3,4.9c-0.6,0.7-1,0.5-1.4,0
	c-0.5-0.6-0.7-1.3-0.8-2.1c0-0.7-0.2-1.4-0.5-2.1c-0.4-0.9-0.9-0.8-1.4-0.2c-0.9,1-1.8,2-2.8,2.9c-0.3,0.3-0.6,0.6-1,0.8
	c-0.9,0.5-1.4,0.2-1.4-0.7c0.1-2.2-0.1-4.5,0.4-6.7c0.2-0.7,0.1-1.5,0.1-2.3c0-0.3,0-0.7,0.4-0.7c0.3,0,1.6,0.9,1.3,2.8
	c-0.3,1.2-0.1,2.6-0.5,3.8c-0.1,0.2-0.2,0.5,0,0.7s0.6,0.1,0.8,0c1.1-0.8,1.9-1.8,3.1-2.4C213.3,69.7,214.3,69.2,215,69.9z"/>
<path class="st0" d="M139,65c0.1,0.1,0.3,0.1,0.4,0.1c0.3,1.6-0.4,3-0.7,4.4c-0.1,1-0.4,1.9-0.4,2.9c0.4,0.1,0.5-0.2,0.7-0.5
	c1-1.4,2.3-2.4,3.8-3.2c1.1-0.6,1.5-0.4,1.7,0.8c0.2,1.2,0.5,2.5,0.7,3.8c0.1,0.3,0,0.6,0.3,0.7s0.4-0.3,0.6-0.5
	c0.6-0.9,1.3-1.8,1.9-2.8c0.7-1.1,1.9-1.7,2.8-2.6c0.1-0.2,0.4-0.1,0.6,0c0.2,0.1,0.2,0.3,0.1,0.5c0,0.1-0.1,0.2-0.1,0.3
	c-2.1,2.2-3.1,5.1-5.3,7.2c-0.9,0.9-1.2,0.9-1.9-0.3c-0.6-1.3-0.5-2.7-0.8-4.1c-0.1-0.4-0.1-1-0.6-1.1s-0.8,0.2-1.1,0.6
	c-1,1.1-2.1,2.2-3,3.3c-0.5,0.6-1,0.6-1.6,0.5c-0.5-0.2-0.5-0.7-0.6-1.2c-0.1-2.2,0.9-4.1,1.2-6.2c0-0.3,0.2-0.5,0.1-0.8
	C137.8,65.9,138.3,65.3,139,65L139,65z"/>
<path class="st0" d="M178.2,36.2c0,0.2-0.1,0.3-0.1,0.5c-0.6,1.2-0.8,2.5-1.5,3.6c-0.1,0.2-0.3,0.3-0.1,0.5s0.4,0.1,0.6,0
	c0.9-0.4,1.6-0.8,2.6-0.8c1.8,0,2.5,0.9,2.1,2.7c-0.5,2-1.1,4-2.4,5.7c-0.1,0.2-0.2,0.3-0.4,0.5s-0.5,0.4-0.9,0.2
	c-0.3-0.2-0.2-0.5-0.1-0.8c0.3-1.3,1.1-2.4,1.5-3.7c0-0.1,0.1-0.2,0.2-0.3c0.3-0.8,0.8-1.7,0.2-2.2c-0.7-0.6-1.9-0.4-2.7,0.2
	c-1.4,1-2.6,2.2-3.5,3.7c-0.2,0.3-0.4,0.6-0.6,0.9c-0.4,0.4-1,0.8-1.5,0.4c-0.5-0.4-0.3-1.1,0.1-1.6c0.9-1.2,1.7-2.3,2.4-3.5
	c0.1-0.2,0.3-0.5,0.4-0.7c0.7-1,1-2.1,1.6-3.2c0.3-0.5,0.6-1.2,0.1-1.9c0.1-0.6-0.4-1.2,0.3-1.7c0.2,0,0.5,0,0.7,0s0.3,0,0.5,0
	C178.1,35,178.1,35.6,178.2,36.2L178.2,36.2z"/>
<path class="st0" d="M217.3,45.5c0.3-3.2,1-5.8,3.3-7.9c0.8-0.7,1.5-1.4,2.5-1.8c1.2-0.5,2.2-0.1,3,0.7c0.8,0.7,0.9,1.7,0.6,2.8
	c-0.9,2.5-2.5,4.4-4.1,6.4c-0.5,0.6-0.8,1.3-1.5,1.6s-1.3,1.1-2.1,0.6C218.1,47.2,217,46.6,217.3,45.5L217.3,45.5z M219.1,44.6
	c0.1,0.6-0.2,1.1,0.2,1.4c0.3,0.2,0.6,0,0.8-0.3c1.7-2,3.6-3.9,4.7-6.4c0.3-0.7,0.3-1.3-0.4-1.8c-0.7-0.4-1.2-0.5-1.9,0.1
	C220.6,39.6,219.5,42,219.1,44.6z"/>
<path class="st0" d="M183.4,74.3c-0.2,1.4-0.6,2.9-1.6,4.2c-0.3,0.4-0.8,0.8-1.2,0.6c-0.6-0.3-0.3-1,0-1.4c1-1.2,0.8-2.6,0.8-4
	c0-0.7-0.3-0.9-1-0.7c-1.7,0.6-3,1.6-4.1,3c-0.1,0.2-0.2,0.5-0.4,0.6c-0.5,0.3-1,0.9-1.6,0.3c-0.5-0.5-0.2-1,0.2-1.5
	c1.3-1.6,1.6-3.7,2.2-5.6c0.5-1.4,1.2-2.8,0.7-4.5c-0.1-0.4,0.3-1,0.9-1c0.6,0,1,0.4,1.1,1c0.1,1.2-0.3,2.3-0.6,3.4
	c-0.3,0.9-0.7,1.9-1,2.8c-0.1,0.3-0.3,0.7,0,0.9c0.3,0.2,0.6,0,0.9-0.1c0.5-0.2,0.9-0.4,1.4-0.6C182.3,71.1,183.3,71.5,183.4,74.3
	L183.4,74.3z"/>
<path class="st0" d="M233.6,69.1c0,1.2-0.5,2.5-1.6,3.5c-1.2,1.1-2.4,2.2-3.9,2.8c-1,0.4-1.8,0.2-2.6-0.4c-0.5-0.4-0.9-1-1.6-1.2
	c-0.3-0.1-0.5-0.8-0.1-1.3c1.6-2.2,3.2-4.5,5.7-5.9c0.5-0.2,0.9-0.4,1.5-0.5C232.8,66.1,233.7,67,233.6,69.1L233.6,69.1z
	 M230.9,68.1c-2.5,0.1-4.8,3.1-4.2,5.4c0.1,0.5,0.4,0.6,0.8,0.4c2-0.6,4.3-2.4,4.4-5C231.8,68.3,231.6,67.9,230.9,68.1z"/>
<path class="st0" d="M239.5,44.8c0.4-3.8,2.6-6.5,6.6-6.8c1-0.1,1.7,0.4,2,1.4c0.8,2.4-0.3,5.6-2.4,7c-1.6,1.1-4.8,1.1-5.9-0.3
	C239.6,45.6,239.5,45.2,239.5,44.8L239.5,44.8z M242.7,45.6c2.6,0,4.2-2.3,3.9-4.5c-0.2-1.5-1.3-2.1-2.6-1.2
	c-1.4,0.9-2.5,2.2-2.8,3.9C240.9,45,241.4,45.6,242.7,45.6L242.7,45.6z"/>
<path class="st0" d="M209.7,36.2c0.6-1.2,1.8-1.2,2.7-1.3c1.1-0.1,1.4,0.9,1.4,1.7c0,1-0.4,1.9-0.9,2.8c-0.2,0.4-0.6,0.6-1,0.5
	c-0.5-0.2-0.1-0.6-0.1-0.9c0-0.7,0.6-1.2,0.4-1.9c-0.1-0.7-0.4-0.9-1-0.5c-2.5,1.8-2.9,4.5-3,7.2c0,0.8,0.8,1,1.5,1.1
	c0.8,0.1,1.6,0.1,2.4-0.1c0.6-0.2,1.2,0,1.9,0.3c-1.7,1.2-3.5,1.7-5.5,1.5c-1.1-0.1-2.1-1.9-1.9-3.5c0.1-1.3,0.5-2.7,1-3.9
	C207.9,38.7,209,36.8,209.7,36.2z"/>
<path class="st0" d="M260.8,41.7c-1.3,1-2.9,1.7-4,3c-1,1.1-2.3,2-3,3.3c-0.1,0.1-0.2,0.3-0.3,0.4c-0.4,0.5-0.9,1.1-1.6,0.5
	c-0.6-0.5-0.3-1.2,0-1.7c0.5-0.8,1.1-1.6,1.7-2.3c1.1-1.3,1.4-2.9,1.6-4.5c0.1-0.4,0.1-0.9,0.1-1.3c0.1-0.6,0.7-0.5,1.1-0.5
	c0.4,0,0.6,0.4,0.5,0.8c-0.1,0.7-0.1,1.4-0.2,2.1c-0.1,0.7,0.3,1,0.8,0.6C258.5,41.4,259.7,41.9,260.8,41.7L260.8,41.7z"/>
<path class="st0" d="M237.2,34.3c0.2,0,0.4,0,0.4-0.2c0.6-0.2,1.2-1.1,1.7-0.6c0.4,0.5-0.2,1.2-0.5,1.8c-1.8,3.2-3.1,6.6-4.8,9.8
	c-0.3,0.7-0.6,1.4-1,2c-0.2,0.4-0.6,0.5-1,0.5c-0.3-0.1-0.2-0.5-0.2-0.8c0.2-1.5,0.8-3,1.4-4.4C234.5,39.6,235.9,36.9,237.2,34.3
	L237.2,34.3z"/>
<path class="st0" d="M173.9,68.8c-1,1.1-2.2,1.3-3.3,1.6c-1.5,0.3-2.1,1.1-2.2,2.4c-0.1,1.4-0.9,2.3-1.8,3.2
	c-0.2,0.2-0.4,0.5-0.7,0.3s-0.2-0.6-0.1-0.9c0.4-1,1-2,1.2-3.1c0.1-0.8,0-1.3-0.9-1.3c-0.5,0-1-0.1-0.9-0.8c0.1-0.7,0.6-1.2,1.3-0.9
	c1.3,0.5,1.6,0,1.8-1.2c0.2-0.8,0.6-1.7,0.9-2.4c0.2-0.4,0.5-0.7,1-0.5s0.3,0.7,0.2,1c-0.2,0.8-0.5,1.5-0.8,2.3
	c-0.2,0.7-0.2,1,0.7,0.9C171.6,69.3,172.6,68.6,173.9,68.8L173.9,68.8z"/>
<path class="st0" d="M247.8,69.3c-2.8,1.3-5.4,2.8-6.8,5.7c-0.2,0.5-0.6,1.3-1.4,0.9s-0.6-1.1-0.3-1.8c0.1-0.2,0.2-0.4,0.3-0.6
	c1-1.2,1.4-2.6,1.2-4.1c0-0.3-0.3-0.9,0.4-0.9c0.6-0.1,0.6,0.5,0.8,0.8c0.2,0.4-0.5,1.1,0.3,1.3c0.5,0.1,0.6-0.6,1-0.9
	C244.7,68.6,246.7,68.3,247.8,69.3L247.8,69.3z"/>
<path class="st0" d="M269.2,40.1c0.2,0,0.3,0,0.4,0.1c0.5,0.1,1.3,0.2,1.3,0.7c0,0.4-0.8,0.6-1.3,0.7c-1.9,0.2-2.5,0.9-2.7,2.9
	c-0.1,0.8-0.2,1.5-0.3,2.2c-0.2,1.2-1,1.9-2.1,2.2c-0.8,0.2-1.4-0.5-2-0.9c-0.3-0.2-0.4-0.5-0.2-0.8c0.2-0.3,0.4-0.5,0.8-0.4
	c0.6,0.2,1.4,0.6,1.9,0.3c0.8-0.4,0-1.2,0.1-1.8c0.3-1.8,0.9-3.5,2.5-4.7C268.1,40.2,268.7,40.3,269.2,40.1L269.2,40.1z"/>
<path class="st0" d="M153.9,76.8c0.2-0.8,0.6-1.5,1.1-2.2c0.7-0.9,1.3-1.9,2-2.8c0.3-0.4,0.5-1.1,1-0.8c0.5,0.3,0.3,1,0,1.4
	c-0.8,1.4-1.7,2.7-2.6,4c-0.2,0.3-0.4,0.6-0.7,0.8c-0.2,0.2-0.4,0.5-0.7,0.3C153.9,77.5,153.9,77.2,153.9,76.8L153.9,76.8z"/>
<path class="st0" d="M158.9,65.8c0.6-0.1,0.8,0.1,0.8,0.4c-0.1,0.7-0.5,1-1.2,1.1c-0.3,0-0.5-0.2-0.5-0.5
	C158.1,66.1,158.5,65.8,158.9,65.8z"/>
<path class="st0" d="M105.8,70.5c0.1-0.2,0.1-0.3,0.2-0.4c0.4-0.4,0.8-0.9,0.9-1.5c0.7-0.9,1.7-1.5,2.7-2.2c0.2-0.1,0.3-0.2,0.5-0.3
	c0.2-0.1,0.4-0.2,0.7-0.4c0.6-0.1,1.2-0.1,1.8-0.2c1.9-0.2,3.1,1.3,2.6,3.1c-0.6,2.3-1.5,4.6-2.5,6.8c-1.6,3.1-3.9,5.4-7.6,5.7
	c-0.2-0.1-0.5-0.2-0.7-0.3c-0.8-0.8-1.2-1.7-0.9-2.8c0.3,0.2,0.7,0.4,1.1,0.6c1.4,1.1,2.3,1.2,3.3,0.2c0.1-0.1,0.2-0.2,0.3-0.3
	c0.2-0.2,0.5-0.4,0.8-0.6c1.3-1,1.9-2.6,2.6-4c0.8-1.3,1.4-2.7,1.7-4.5c-1,0.8-1.8,1.5-2.6,2.1c-1.4,1-2.7,2.3-4.7,2.2
	c-1.2-0.7-0.4-1.6-0.3-2.4C105.7,71,105.7,70.8,105.8,70.5L105.8,70.5z M111.6,67.1c-0.5,0-0.8,0.1-1.2,0.2
	c-1.7,0.8-2.4,2.4-3.4,3.8c-0.1,0.1-0.1,0.3,0.1,0.4s0.4,0,0.6-0.1c1.6-1,3.2-1.9,4.5-3.2c0.2-0.2,0.6-0.5,0.4-0.9
	C112.2,67,111.8,67.1,111.6,67.1L111.6,67.1z"/>
<path class="st0" d="M97.6,46.9c0.9,0.7,1.3,1.6,2.2,2c1.5,0.7,2.4,0.6,3.2-0.9c1.1-2,1.6-4.3,2.2-6.5c0.2-0.5-0.1-0.7-0.6-0.5
	c-0.4,0.2-0.8,0.4-1.2,0.6c-0.7,0.4-1.3,0.3-1.9-0.1c-0.6-0.4-0.5-1.1-0.3-1.7c0.5-2.4,3.1-4.4,5.5-4.3c0.6,0,1.3,0.1,1.9,0.2
	c1,0.1,1.1,0.8,0.7,1.4c-1.9,2.8-3.1,5.9-3.9,9.1c-0.4,1.6-1,3.3-2.7,4.2c-1,0.5-3.5,0.5-4.3-0.2C97.3,49.5,97.3,48.3,97.6,46.9
	L97.6,46.9z M102.6,40.2c1.5-0.5,2.5-1.1,3.5-1.9c0.2-0.2,0.6-0.5,0.2-0.9c-0.3-0.3-0.6-0.2-1,0C104.2,37.9,103.3,38.7,102.6,40.2
	L102.6,40.2z"/>
<path class="st0" d="M74.2,33.7c1.4-0.2,2.9,0.2,4.5,0.2c0.7,0,0.8,0.6,0.9,1.1c0.1,0.7,0,1.5-0.3,2.1c-0.6,1.7-1.2,3.3-2.1,4.9
	c-0.3,0.6-0.8,0.9-1.4,0.6c-0.7-0.3-0.3-0.9-0.1-1.3c0.9-1.5,1.6-3,2.1-4.6c0.5-1.5,0.3-2-1.2-1.8c-2,0.2-4,0.4-6,0.5
	c-0.6,0-1,0.4-1.2,1c-0.9,1.9-1.9,3.9-2.8,5.8c-0.2,0.4-0.3,1.1-1,0.9c-0.6-0.2-0.4-0.9-0.2-1.4c0.6-1.5,1.1-3.1,2.1-4.5
	c0.7-1,0.5-1.4-0.7-1.5c-0.2,0-0.3,0-0.5,0c-0.8-0.2-1.8-0.2-1.5-1.3c0.3-0.8,1.1-0.3,1.8-0.2c0.7,0.1,1.3,0,2,0
	c1-0.1,0.6-1,0.9-1.5c0.5-0.8,0.6-1.8,0.9-2.7c0.2-0.4,0.5-1,0.9-1c0.6,0.1,0.3,0.7,0.3,1.1c0.1,1-0.2,1.9-0.7,2.7s-0.4,1.3,0.7,1.2
	C72.5,33.7,73.3,33.8,74.2,33.7L74.2,33.7z"/>
<path class="st0" d="M142.7,42.2c1.9-1.8,3.7-3.5,5.5-5.3c0.1-0.1,0.2-0.3,0.4-0.5c0.4-0.4,0.9-0.5,1.3-0.2c0.5,0.4,0.3,0.9,0,1.3
	c-0.3,0.5-0.7,0.9-1.1,1.3c-1.9,1.7-3.6,3.6-5.3,5.5c-0.5,0.5-1.1,1-1.9,0.7c-0.7-0.3-0.6-1-0.7-1.7c-0.1-0.6-0.1-1.3-0.2-1.9
	c-0.1-0.9-0.6-0.9-1.1-0.4c-0.7,0.6-1.4,1.2-2.1,1.8c-0.2,0.2-0.5,0.5-0.8,0.6c-0.6,0.3-1.3,0.6-1.9,0.4c-0.7-0.3-0.3-1.1-0.3-1.6
	c0.1-2.2,0.9-4.2,1.7-6.3c0.2-0.5,0.6-0.7,1.1-0.6c0.5,0.1,0.4,0.7,0.3,1c-0.3,1.5-1.1,2.8-1.2,4.3c0,0.2-0.4,0.5-0.1,0.7
	c0.2,0.2,0.5,0,0.8-0.2c0.8-0.6,1.6-1.2,2.4-1.8c0.3-0.2,0.6-0.5,0.9-0.7c0.6-0.3,1.1-0.8,1.5,0.5C142.1,40.2,142.7,41.1,142.7,42.2
	L142.7,42.2z"/>
<path class="st0" d="M23.9,38.2c1.1-0.7,2-1.7,2.8-2.8c0.8-0.9,1.8-1.3,2.7-1.9c0.6-0.4,1.1,0,1.3,0.7c0.6,1.5,0.4,3.1,0.2,4.6
	c0,0.4-0.3,0.8,0,1.2c1.4-0.8,2.1-2.2,3-3.5c1.1-1.6,2.4-3.2,3.5-4.8c0.1-0.2,0.3-0.3,0.5-0.2c0.2,0.1,0.3,0.3,0.3,0.6
	c0,0.7-0.3,1.3-0.7,1.8c-2,2.5-3.5,5.3-5.7,7.6c-0.5,0.5-1,0.9-1.6,0.7s-0.5-1-0.5-1.5c-0.1-1.6,0.4-3.2,0.1-4.8
	c-0.1-0.8-0.3-0.9-1-0.5c-1.1,0.6-1.8,1.5-2.6,2.4c-0.8,1-1.9,1.7-2.7,2.7c-0.5,0.5-1,0.5-1.2-0.3c-0.3-1.1,0.1-2.1,0.3-3
	c0.5-2,1.3-3.9,1.6-6c0-0.2,0.2-0.4,0.4-0.4c0.2,0,0.3,0.2,0.4,0.4c0.4,1,0.1,1.9-0.1,2.8c-0.3,1.2-0.8,2.3-1.1,3.5
	C23.8,37.7,23.7,38,23.9,38.2L23.9,38.2z"/>
<path class="st0" d="M31.4,64.2c0,2.7-1,4-3.3,4.5c-0.6,0.1-1.2,0-1.8-0.2c-0.8-0.2-1.3-0.1-1.4,0.9c-0.4,2.4-1.5,4.5-2.1,6.8
	c-0.1,0.2-0.1,0.6-0.5,0.5c-0.5-0.1-0.5-0.5-0.4-0.9c0.4-2.3,0.6-4.7,1.7-6.9c0.3-0.6,0.5-1.2,0.2-1.9c-0.2-0.6-0.4-1.3,0.7-1.6
	c0.6-0.2,1.3-2.9,0.9-3.5c-0.5-0.8-0.7-1.4,0.4-1.8c0,0,0.1,0,0.1-0.1c0.8-2.4,2.6-1,3.7-0.6c1.6,0.5,2,2.2,1.9,3.8
	C31.4,63.5,31.4,63.9,31.4,64.2L31.4,64.2z M30.4,63.8c0.1-1.2-0.3-2.3-1.5-3c-0.6-0.3-1.4-0.5-1.6,0.3c-0.5,1.7-1.2,3.3-1.3,5
	c0,0.6,0,0.8,0.7,1C29.1,67.8,30.4,66.7,30.4,63.8L30.4,63.8z"/>
<path class="st0" d="M43,59.4c0.9,0.1,1.8,0.3,2.1,1.4c0.2,0.7,0.7,0.9,1.2,0.2c0.2-0.3,0.6-0.5,0.9-0.3c0.4,0.2,0.2,0.6,0.2,1
	c-0.1,1-1,1.6-1.2,2.6c-0.2,1.1-0.2,2.3-0.5,3.4c-0.1,0.3-0.2,0.7-0.2,1c-0.1,0.4-0.5,0.6-0.9,0.6c-0.5-0.1-0.5-0.5-0.5-0.8
	c0.1-0.8,0.2-1.6,0.3-2.4c0-0.3,0.1-0.6-0.1-0.8c-0.3-0.2-0.5,0.1-0.7,0.3c-1.6,2.2-4.2,2.3-6.4,3.2c-0.6,0.2-1.3,0.1-1.7-0.5
	c-0.5-0.8-0.5-1.6-0.2-2.5c0.7-2,2.5-2.9,3.9-4.2c0.9-0.8,1.8-1.9,3.2-2C42.5,59.5,42.7,59.4,43,59.4L43,59.4z M43.9,62.3
	c0-1.3-1.4-2-2.5-1.4c-2,1.1-3.5,2.8-4.9,4.6c-0.3,0.4-0.4,0.9-0.1,1.3c0.3,0.4,0.8,0.4,1.3,0.3c0.7-0.2,1.4-0.4,2.1-0.6
	c2.2-0.4,3.1-2.1,4-3.9C43.9,62.6,43.9,62.4,43.9,62.3L43.9,62.3z"/>
<path class="st0" d="M82.6,71.3c0.2-0.8,0.8-1.7,1.1-2.6c0.3-0.8,1.2-1.7,0.5-2.5c-0.4-0.5-1.5,0-2.3,0.1c-0.9,0.1-1.9,0.3-2.8,0.4
	c-0.7,0.1-1.2,0.5-1.2,1.1c-0.2,1.5-1.2,2.7-1.8,4c-0.2,0.4-0.5,0.7-0.9,0.5s-0.3-0.6-0.3-0.9c0.1-1.1,0.8-2.1,1.2-3.1
	c0.6-1.1,0.5-1.2-0.7-1.3c-0.6,0-1.1-0.4-1.6-0.7c-0.4-0.2-0.5-0.6-0.4-1.1s0.5-0.5,0.9-0.5s0.7,0.1,1,0.3c1.3,0.8,2.1,0.5,2.6-1
	c0.2-0.6,0.3-1.2,0.5-1.7s0.6-1,1.1-0.8s0.5,0.8,0.3,1.3c-0.8,2.4-0.8,2.4,1.7,2.1c1.1-0.1,2.1-0.2,3.2-0.4c1-0.1,1.6,0.5,1.3,1.6
	c-0.6,1.7-1.2,3.4-1.8,5.1c-0.1,0.3-0.3,0.5-0.6,0.8c-0.3,0.3-0.7,0.2-1,0.1C82.5,72,82.6,71.7,82.6,71.3L82.6,71.3z"/>
<path class="st0" d="M63.5,65.4c1.1-0.6,1.8-1.5,2.8-2.1c1.3-0.8,2.4-0.5,3.4,0.2c0.9,0.7,1,1.8,0.8,2.9c-0.4,2.3-2,3.9-3,5.8
	c-0.2,0.3-0.5,0.7-1,0.5c-0.5-0.3-0.5-0.8-0.2-1.3c0.6-1.1,1.2-2.1,2-3.1c0.5-0.7,0.8-1.4,0.8-2.2c0-0.6,0.1-1.2-0.5-1.6
	c-0.7-0.4-1.3-0.4-2,0c-1.9,1.2-3.4,2.8-4.5,4.8c-0.5,0.8-1,1.7-1.8,2.3c-0.3,0.2-0.9,0.6-1.2,0.3c-0.4-0.4-0.4-1.2,0-1.4
	c1.8-1.2,1.7-3.4,2.7-5.1c0.1-0.1,0.1-0.3,0.2-0.4c0.3-0.5,0.5-1.3,1.2-1.2C63.9,64.1,63.2,64.9,63.5,65.4L63.5,65.4z"/>
<path class="st0" d="M95.8,38.2c-0.3,1.7-0.4,3.6-2.1,4.9c-0.2,0.2-0.4,0.7-0.8,0.3c-0.3-0.3-0.2-0.7,0-1c0.5-0.7,0.8-1.5,1.1-2.4
	c0.3-1,0.2-2-0.1-3.1c-0.2-0.9-0.8-1.1-1.6-0.8c-1.7,0.8-3.1,2.1-4,3.8c-0.5,1-1.1,1.8-1.6,2.8c-0.3,0.5-0.6,0.7-1.1,0.5
	s-0.5-0.7-0.4-1.1c0.2-1,0.9-1.8,1.3-2.7c0.6-1.1,1.1-2.3,1.4-3.5c0.4-1.3,0.5-1.3,1.5-0.5c0.3,0.2,0.5,0.2,0.8,0.1
	c0.5-0.2,1.1-0.5,1.6-0.8c2.2-1,3.5-0.3,3.9,2.1C95.8,37.3,95.8,37.7,95.8,38.2L95.8,38.2z"/>
<path class="st0" d="M98,71.4c0.3-1.4,0.4-2.7,0.5-4.1c0-0.9-0.4-1.2-1.1-0.7c-1.1,0.8-2.4,1.5-3,2.8C94,70.2,93.5,71,93,71.7
	c-0.5,0.7-1,0.5-1.4,0.3c-0.5-0.3-0.5-0.9-0.2-1.2c1.3-1.4,1.8-3.2,2.4-5c0.1-0.2,0.2-0.4,0.3-0.6c0.2-0.4,0.5-0.9,1.1-0.8
	c0.5,0.2,0.2,0.8,0.2,1.2c0,0.1,0,0.2,0,0.4c0.9-0.1,1.5-0.8,2.3-1.2c1.2-0.6,2-0.2,2.5,1c0.8,2.1-0.3,3.9-0.8,5.8
	c-0.2,0.7-0.8,0.5-1.3,0.1C98.1,71.7,98.1,71.6,98,71.4L98,71.4z"/>
<path class="st0" d="M160.9,39.8c0.2-0.5,0.6-0.5,1.2-0.5c1.8,0.1,2.2-0.2,2.7-2c0.2-0.7,0.3-1.3,0.5-2s0.7-1.1,1.3-1
	c0.7,0.1,0.5,0.8,0.4,1.3c-0.1,0.6-0.2,1.2-0.6,1.8c-0.5,0.8-0.3,1.4,0.8,1.4c0.3,0.3,0.1,0.5-0.1,0.7c-0.6,0-1.1,0.2-1.6,0.5
	c-0.1,0-0.3,0-0.3,0.2c-0.1,0.1-0.2,0.2-0.3,0.3c-0.4,0.2-0.5,0.6-0.7,1c-0.6,1.8-1.6,3.4-3.2,4.8c-0.3-1,0.1-1.7,0.2-2.4h-0.1h0.1
	c0.4-0.7,0.8-1.4,1.3-2.1c0-0.1,0.1-0.2,0.1-0.3c0.2-0.5-0.2-0.7-1-0.6c-0.2-0.1-0.4-0.2-0.6-0.1c0.2-0.2,0.1-0.3-0.1-0.5l0,0
	C160.9,40.2,160.9,40,160.9,39.8L160.9,39.8z"/>
<path class="st0" d="M42.1,41.7c-0.5-0.9-0.3-1.7,0.2-2.4c0.6-1,1-2,1.5-3.1c0.8-2.1,2.7-3.2,4.3-4.6c0.4-0.3,1-0.1,1.3,0.5
	c0.2,0.5-0.1,0.7-0.5,1c-1.8,1-2.7,2.6-3.6,4.4C44.4,38.8,43.6,40.5,42.1,41.7z"/>
<path class="st0" d="M155.4,38.6c0,0.1-0.1,0.2-0.1,0.3c-1.2,1.8-1.9,3.9-2.7,5.9c-0.2,0.6-0.6,0.9-1.2,0.9
	c-0.1-0.1-0.2-0.3-0.3-0.4c0.1-0.5,0.1-1.1,0.1-1.7c0.9-1.8,1.5-3.7,2.5-5.4c0.6-0.9,1.2-1.1,1.8-0.3
	C155.4,38.1,155.4,38.3,155.4,38.6z"/>
<path class="st0" d="M54.2,62.3c0.4,1.7-0.2,3.2-0.8,4.6c-0.5,1.2-1.3,2.1-2,3.2c-0.3,0.4-0.7,0.8-1.2,0.6c-0.6-0.3-0.1-0.9,0.1-1.2
	c1.2-1.9,2-3.9,2.7-6C53.1,62.9,53.9,62.9,54.2,62.3L54.2,62.3z"/>
<path class="st0" d="M57.2,34.8c-0.2,1.8-1.2,3.2-2,4.7c-0.3,0.5-1,0.4-1.3,0s-0.5-0.9,0.2-1.2s0.8-1.1,1.1-1.7
	c0.3-0.7,0.6-1.4,0.9-2.1c0.2-0.3,0.3-0.8,0.8-0.7C57.3,34,57.2,34.4,57.2,34.8L57.2,34.8z"/>
<path class="st0" d="M55.9,31.6c0.2-1.5,0.9-2.3,2-2.3c0.3,0,0.6-0.2,0.8,0.3c0.1,0.4-0.2,0.5-0.3,0.8
	C57.7,31.1,56.9,31.4,55.9,31.6L55.9,31.6z"/>
<path class="st0" d="M54.4,61.1c-0.6-0.1-1.2-0.3-1.2-1.1c0-0.4,0.5-0.7,0.8-0.5c0.5,0.3,1.4,0.1,1.5,0.9
	C55.4,60.9,54.9,61.2,54.4,61.1L54.4,61.1z"/>
<path class="st0" d="M80.4,32.1c-0.7,0-1.1-0.2-1.1-0.8c0-0.4,0.1-0.9,0.6-0.8s1.3,0.1,1.4,0.9C81.4,31.9,80.9,32.1,80.4,32.1
	L80.4,32.1z"/>
<path class="st0" d="M87.7,61.3c0.2,0.1,0.8-0.2,0.7,0.4c-0.1,0.5-0.6,0.9-1.1,0.9c-0.4,0-0.5-0.4-0.5-0.8
	C86.8,61.3,87.1,61.1,87.7,61.3L87.7,61.3z"/>
<path class="st0" d="M156.5,33.4c0.1-0.4,0-1,0.7-0.8c0.4,0.1,0.9,0.2,0.8,0.7c0,0.5-0.5,0.7-1,0.7C156.5,34,156.5,33.7,156.5,33.4
	L156.5,33.4z"/>
</svg>
